M48
METRIC,LZ,000.000
;FILE_FORMAT=3:3
;TYPE=PLATED
;Layer: PTH_Through
;EasyEDA v6.5.9, 2022-07-22 04:57:57
;840753d4bb104133846108dccaf676b4,987c639a94b84ffc8c6145f2c3ae8d38,10
;Gerber Generator version 0.2
;Holesize 1 = 0.305 mm
T01C0.305
;Holesize 2 = 0.800 mm
T02C0.800
;Holesize 3 = 0.915 mm
T03C0.915
;Holesize 4 = 1.101 mm
T04C1.101
;Holesize 5 = 1.200 mm
T05C1.200
;Holesize 6 = 2.101 mm
T06C2.101
;Holesize 7 = 2.751 mm
T07C2.751
%
G05
G90
T01
X032500Y031900
X034000Y031900
X038000Y023000
X037000Y022000
X036000Y022000
X035000Y022000
X026000Y027900
X027950Y027900
X022000Y025000
X022000Y024000
X014000Y011900
X014000Y010630
X008000Y010550
X008000Y009500
X007550Y012400
X007550Y007600
X007500Y024400
X007500Y019600
X028000Y022150
X026999Y022150
X011600Y012043
X004750Y022400
X004050Y021250
X030001Y019849
X029000Y019850
X013100Y038550
X028000Y038526
X029000Y034900
X030000Y032900
X029100Y026250
X029100Y023800
X030250Y025000
X023450Y005000
X022201Y002999
X014450Y003000
X014650Y019000
X010250Y014050
X009700Y011050
X010350Y007200
X010250Y008300
X011000Y003000
X019000Y003000
X027000Y003000
X045750Y012550
X037600Y032950
X037600Y033950
X040100Y035000
X040100Y036000
X040200Y033000
X041000Y033000
X038250Y021250
X039400Y021250
X033000Y022700
X033000Y023750
X033000Y024750
X033000Y025800
X030300Y022850
X030300Y026350
X024400Y029000
X025350Y029000
X021750Y029000
X020950Y029000
X020150Y029950
X025350Y029850
X025150Y035200
X025150Y034250
X027900Y033900
X028750Y033900
X024950Y032300
X024950Y031300
X022600Y037400
X025000Y039500
X025000Y040400
X025000Y037850
X031000Y038250
X030000Y038250
X031000Y039050
X031000Y035900
X031000Y035100
X026000Y020000
X026000Y019000
X026000Y017000
X028000Y017000
X030000Y017000
X025000Y011000
X027000Y011000
X031000Y012000
X025000Y007000
X029050Y006950
X027000Y007000
X031000Y007000
X039000Y007000
X041000Y007000
X040000Y013000
X038000Y014000
X040000Y012000
X039000Y016000
X038450Y018500
X035700Y019350
X035700Y016350
X020000Y007000
X019000Y007000
X018000Y009000
X018000Y010000
X013000Y014000
X016000Y014000
X009000Y016000
X010000Y024000
X013000Y027000
X014000Y025000
X013800Y030950
X013800Y032150
X013800Y029550
X015900Y030150
X021000Y043000
X016000Y044000
X014000Y045000
X004000Y044000
X002000Y044000
X005000Y028000
X002000Y028000
X007000Y033000
X005000Y035000
X007000Y037000
X009000Y034000
X005000Y031000
X003000Y033000
X038000Y040000
X039000Y039000
X039900Y040900
X042000Y040000
X041000Y037000
X029000Y040000
T02
X001216Y017675G85X001816Y017675
X005316Y017675G85X006116Y017675
X005316Y026325G85X006116Y026325
X001216Y026325G85X001816Y026325
X001216Y005675G85X001816Y005675
X005316Y005675G85X006116Y005675
X005316Y014325G85X006116Y014325
X001216Y014325G85X001816Y014325
T03
X044480Y039270
X047020Y039270
X044480Y036730
X047020Y036730
T04
X011355Y039500
X011355Y037000
X011355Y035000
X011355Y032500
X034190Y003000
X036730Y003000
X039270Y003000
X041810Y003000
X047020Y008790
X044480Y008790
X047020Y011330
X044480Y011330
X047020Y013870
X044480Y013870
X047020Y016410
X044480Y016410
X047020Y018950
X044480Y018950
X047020Y021490
X044480Y021490
X047020Y024030
X044480Y024030
X047020Y026570
X044480Y026570
X047020Y029110
X044480Y029110
X047020Y031650
X044480Y031650
X016730Y039810
X019270Y039810
X016730Y037270
X019270Y037270
X016730Y034730
X019270Y034730
X016730Y032190
X019270Y032190
X016730Y025810
X019270Y025810
X016730Y023270
X019270Y023270
X016730Y020730
X019270Y020730
X016730Y018190
X019270Y018190
T05
X041890Y046970
X041890Y044430
X039350Y046970
X039350Y044430
X036810Y046970
X036810Y044430
X034270Y046970
X034270Y044430
X031730Y046970
X031730Y044430
X029190Y046970
X029190Y044430
X026650Y046970
X026650Y044430
X024110Y046970
X024110Y044430
T06
X008645Y029000
X008645Y043000
T07
X003000Y003000
X047000Y003000
X047000Y047000
X003000Y047000
M30
