G04 Layer: BottomLayer*
G04 EasyEDA v6.5.9, 2022-07-22 04:57:57*
G04 840753d4bb104133846108dccaf676b4,987c639a94b84ffc8c6145f2c3ae8d38,10*
G04 Gerber Generator version 0.2*
G04 Scale: 100 percent, Rotated: No, Reflected: No *
G04 Dimensions in millimeters *
G04 leading zeros omitted , absolute positions ,4 integer and 5 decimal *
%FSLAX45Y45*%
%MOMM*%

%ADD10C,0.2000*%
%ADD11C,0.5000*%
%ADD12C,0.3000*%
%ADD13C,0.3500*%
%ADD14C,3.1000*%
%ADD15C,1.7000*%
%ADD16C,1.8000*%
%ADD17R,1.7000X1.7000*%
%ADD18R,1.5240X1.5240*%
%ADD19C,1.5240*%
%ADD20C,3.5000*%
%ADD21C,0.5000*%
%ADD22C,1.2000*%
%ADD23C,0.0111*%

%LPD*%
G36*
X250291Y25908D02*
G01*
X230022Y26822D01*
X210667Y29413D01*
X191566Y33680D01*
X172923Y39624D01*
X154889Y47142D01*
X137566Y56184D01*
X121107Y66700D01*
X105613Y78638D01*
X91236Y91897D01*
X78079Y106324D01*
X66192Y121869D01*
X55727Y138328D01*
X46736Y155702D01*
X39319Y173786D01*
X33477Y192430D01*
X29260Y211531D01*
X26771Y230886D01*
X25908Y250748D01*
X25908Y4749241D01*
X26822Y4769967D01*
X29413Y4789322D01*
X33680Y4808423D01*
X39624Y4827016D01*
X47091Y4845100D01*
X56184Y4862423D01*
X66700Y4878882D01*
X78638Y4894326D01*
X91846Y4908753D01*
X106324Y4921910D01*
X121818Y4933797D01*
X138328Y4944262D01*
X155702Y4953254D01*
X173786Y4960670D01*
X192430Y4966512D01*
X211531Y4970729D01*
X230886Y4973218D01*
X250748Y4974082D01*
X4749241Y4974082D01*
X4769967Y4973167D01*
X4789322Y4970576D01*
X4808423Y4966309D01*
X4827016Y4960366D01*
X4845050Y4952847D01*
X4862372Y4943805D01*
X4878832Y4933289D01*
X4894326Y4921351D01*
X4908702Y4908092D01*
X4921910Y4893665D01*
X4933746Y4878120D01*
X4944211Y4861610D01*
X4953203Y4844288D01*
X4960670Y4826203D01*
X4966512Y4807559D01*
X4970729Y4788458D01*
X4973218Y4769053D01*
X4974082Y4749241D01*
X4974082Y250748D01*
X4973116Y230022D01*
X4970526Y210667D01*
X4966258Y191566D01*
X4960366Y172923D01*
X4952847Y154889D01*
X4943805Y137566D01*
X4933238Y121107D01*
X4921351Y105613D01*
X4908092Y91236D01*
X4893665Y78079D01*
X4878120Y66192D01*
X4861610Y55727D01*
X4844288Y46736D01*
X4826203Y39319D01*
X4807559Y33477D01*
X4788458Y29260D01*
X4769053Y26771D01*
X4749241Y25908D01*
G37*

%LPC*%
G36*
X299974Y104495D02*
G01*
X319125Y105460D01*
X338124Y108254D01*
X356717Y112928D01*
X374802Y119380D01*
X392125Y127609D01*
X408584Y137464D01*
X423976Y148894D01*
X438200Y161747D01*
X451104Y175971D01*
X462534Y191414D01*
X472389Y207822D01*
X480568Y225196D01*
X487019Y243230D01*
X491693Y261874D01*
X494538Y280822D01*
X495452Y299974D01*
X494538Y319176D01*
X491693Y338124D01*
X487019Y356768D01*
X480568Y374802D01*
X472389Y392125D01*
X462534Y408584D01*
X451104Y424027D01*
X438200Y438251D01*
X423976Y451104D01*
X408584Y462534D01*
X392125Y472389D01*
X374802Y480618D01*
X356717Y487070D01*
X338124Y491743D01*
X319125Y494538D01*
X299974Y495503D01*
X280822Y494538D01*
X261823Y491743D01*
X243230Y487070D01*
X225145Y480618D01*
X207822Y472389D01*
X191363Y462534D01*
X175971Y451104D01*
X161747Y438251D01*
X148844Y424027D01*
X137414Y408584D01*
X127558Y392125D01*
X119380Y374802D01*
X112928Y356768D01*
X108254Y338124D01*
X105410Y319176D01*
X104495Y299974D01*
X105410Y280822D01*
X108254Y261874D01*
X112928Y243230D01*
X119380Y225196D01*
X127558Y207822D01*
X137414Y191414D01*
X148844Y175971D01*
X161747Y161747D01*
X175971Y148894D01*
X191363Y137464D01*
X207822Y127609D01*
X225145Y119380D01*
X243230Y112928D01*
X261823Y108254D01*
X280822Y105460D01*
G37*
G36*
X4699965Y104495D02*
G01*
X4719116Y105460D01*
X4738116Y108254D01*
X4756708Y112928D01*
X4774793Y119380D01*
X4792116Y127609D01*
X4808575Y137464D01*
X4823968Y148894D01*
X4838192Y161747D01*
X4851095Y175971D01*
X4862525Y191414D01*
X4872380Y207822D01*
X4880559Y225196D01*
X4887061Y243230D01*
X4891684Y261874D01*
X4894529Y280822D01*
X4895443Y299974D01*
X4894529Y319176D01*
X4891684Y338124D01*
X4887061Y356768D01*
X4880559Y374802D01*
X4872380Y392125D01*
X4862525Y408584D01*
X4851095Y424027D01*
X4838192Y438251D01*
X4823968Y451104D01*
X4808575Y462534D01*
X4792116Y472389D01*
X4774793Y480618D01*
X4756708Y487070D01*
X4738116Y491743D01*
X4719116Y494538D01*
X4699965Y495503D01*
X4680813Y494538D01*
X4661814Y491743D01*
X4643221Y487070D01*
X4625187Y480618D01*
X4607814Y472389D01*
X4591354Y462534D01*
X4575962Y451104D01*
X4561738Y438251D01*
X4548886Y424027D01*
X4537456Y408584D01*
X4527550Y392125D01*
X4519371Y374802D01*
X4512919Y356768D01*
X4508246Y338124D01*
X4505452Y319176D01*
X4504486Y299974D01*
X4505452Y280822D01*
X4508246Y261874D01*
X4512919Y243230D01*
X4519371Y225196D01*
X4527550Y207822D01*
X4537456Y191414D01*
X4548886Y175971D01*
X4561738Y161747D01*
X4575962Y148894D01*
X4591354Y137464D01*
X4607814Y127609D01*
X4625187Y119380D01*
X4643221Y112928D01*
X4661814Y108254D01*
X4680813Y105460D01*
G37*
G36*
X4180992Y194513D02*
G01*
X4194759Y195427D01*
X4208272Y198120D01*
X4221327Y202539D01*
X4233722Y208635D01*
X4245203Y216306D01*
X4255566Y225399D01*
X4264660Y235762D01*
X4272330Y247243D01*
X4278426Y259638D01*
X4282846Y272694D01*
X4285538Y286207D01*
X4286453Y299974D01*
X4285538Y313740D01*
X4282846Y327304D01*
X4278426Y340360D01*
X4272330Y352755D01*
X4264660Y364185D01*
X4255566Y374599D01*
X4245203Y383692D01*
X4233722Y391363D01*
X4221327Y397459D01*
X4208272Y401878D01*
X4194759Y404571D01*
X4180992Y405485D01*
X4167225Y404571D01*
X4153662Y401878D01*
X4140606Y397459D01*
X4128262Y391363D01*
X4116781Y383692D01*
X4106418Y374599D01*
X4097324Y364185D01*
X4089654Y352755D01*
X4083558Y340360D01*
X4079087Y327304D01*
X4076395Y313740D01*
X4075531Y299974D01*
X4076395Y286207D01*
X4079087Y272694D01*
X4083558Y259638D01*
X4089654Y247243D01*
X4097324Y235762D01*
X4106418Y225399D01*
X4116781Y216306D01*
X4128262Y208635D01*
X4140606Y202539D01*
X4153662Y198120D01*
X4167225Y195427D01*
G37*
G36*
X3672992Y194513D02*
G01*
X3686759Y195427D01*
X3700272Y198120D01*
X3713327Y202539D01*
X3725722Y208635D01*
X3737203Y216306D01*
X3747566Y225399D01*
X3756660Y235762D01*
X3764330Y247243D01*
X3770426Y259638D01*
X3774846Y272694D01*
X3777538Y286207D01*
X3778453Y299974D01*
X3777538Y313740D01*
X3774846Y327304D01*
X3770426Y340360D01*
X3764330Y352755D01*
X3756660Y364185D01*
X3747566Y374599D01*
X3737203Y383692D01*
X3725722Y391363D01*
X3713327Y397459D01*
X3710381Y398475D01*
X3706774Y400558D01*
X3704336Y403961D01*
X3703472Y408076D01*
X3703472Y455930D01*
X3704234Y459790D01*
X3706469Y463092D01*
X3709771Y465328D01*
X3713632Y466090D01*
X3717544Y465328D01*
X3720846Y463092D01*
X3828999Y354787D01*
X3831285Y351282D01*
X3831945Y347167D01*
X3830929Y343154D01*
X3829558Y340360D01*
X3825087Y327304D01*
X3822395Y313740D01*
X3821531Y299974D01*
X3822395Y286207D01*
X3825087Y272694D01*
X3829558Y259638D01*
X3835654Y247243D01*
X3843324Y235762D01*
X3852418Y225399D01*
X3862781Y216306D01*
X3874262Y208635D01*
X3886606Y202539D01*
X3899662Y198120D01*
X3913225Y195427D01*
X3926992Y194513D01*
X3940759Y195427D01*
X3954272Y198120D01*
X3967327Y202539D01*
X3979722Y208635D01*
X3991203Y216306D01*
X4001566Y225399D01*
X4010660Y235762D01*
X4018330Y247243D01*
X4024426Y259638D01*
X4028846Y272694D01*
X4031538Y286207D01*
X4032453Y299974D01*
X4031538Y313740D01*
X4028846Y327304D01*
X4024426Y340360D01*
X4018330Y352755D01*
X4010660Y364185D01*
X4001566Y374599D01*
X3991203Y383692D01*
X3979722Y391363D01*
X3967327Y397459D01*
X3954272Y401878D01*
X3940759Y404571D01*
X3926992Y405485D01*
X3913225Y404571D01*
X3899662Y401878D01*
X3886606Y397459D01*
X3883761Y396036D01*
X3879697Y395020D01*
X3875582Y395681D01*
X3872077Y397967D01*
X3773474Y496722D01*
X3771290Y500024D01*
X3770477Y503885D01*
X3770477Y1244600D01*
X3770122Y1249629D01*
X3768394Y1255928D01*
X3765550Y1261567D01*
X3761181Y1266952D01*
X3048355Y1979777D01*
X3046374Y1982622D01*
X3045460Y1985975D01*
X3044748Y1993493D01*
X3042310Y2001824D01*
X3038348Y2009495D01*
X3033014Y2016252D01*
X3026460Y2021941D01*
X3018993Y2026259D01*
X3010814Y2029104D01*
X3002280Y2030323D01*
X2993644Y2029917D01*
X2985211Y2027885D01*
X2977388Y2024278D01*
X2970326Y2019249D01*
X2964383Y2013000D01*
X2957372Y2001824D01*
X2954223Y1999589D01*
X2950464Y1998725D01*
X2946654Y1999234D01*
X2943352Y2001164D01*
X2940964Y2004212D01*
X2938221Y2009546D01*
X2932887Y2016353D01*
X2926334Y2021992D01*
X2918866Y2026310D01*
X2910687Y2029155D01*
X2902153Y2030374D01*
X2893517Y2029968D01*
X2885084Y2027936D01*
X2877261Y2024329D01*
X2870200Y2019350D01*
X2864256Y2013102D01*
X2859582Y2005787D01*
X2856382Y1997811D01*
X2854706Y1989328D01*
X2854706Y1980641D01*
X2856382Y1972157D01*
X2859582Y1964182D01*
X2864256Y1956866D01*
X2870200Y1950618D01*
X2877261Y1945639D01*
X2885084Y1942033D01*
X2893517Y1940001D01*
X2898343Y1939747D01*
X2901950Y1938883D01*
X2905048Y1936800D01*
X3639515Y1202334D01*
X3641699Y1199032D01*
X3642512Y1195120D01*
X3642512Y408076D01*
X3641648Y403961D01*
X3639210Y400558D01*
X3635603Y398475D01*
X3632606Y397459D01*
X3620262Y391363D01*
X3608781Y383692D01*
X3598418Y374599D01*
X3589324Y364185D01*
X3581654Y352755D01*
X3575558Y340360D01*
X3571087Y327304D01*
X3568395Y313740D01*
X3567531Y299974D01*
X3568395Y286207D01*
X3571087Y272694D01*
X3575558Y259638D01*
X3581654Y247243D01*
X3589324Y235762D01*
X3598418Y225399D01*
X3608781Y216306D01*
X3620262Y208635D01*
X3632606Y202539D01*
X3645662Y198120D01*
X3659225Y195427D01*
G37*
G36*
X2222246Y254457D02*
G01*
X2230780Y255676D01*
X2238959Y258521D01*
X2246426Y262839D01*
X2252980Y268528D01*
X2258314Y275285D01*
X2262276Y282956D01*
X2264714Y291287D01*
X2265527Y299872D01*
X2264714Y308457D01*
X2262276Y316788D01*
X2258314Y324459D01*
X2252726Y331520D01*
X2251100Y334467D01*
X2250541Y337820D01*
X2250541Y526846D01*
X2251354Y530707D01*
X2253538Y534009D01*
X2256840Y536244D01*
X2260701Y537006D01*
X2264613Y536244D01*
X2267915Y534009D01*
X2296820Y505104D01*
X2299004Y501802D01*
X2299766Y497941D01*
X2299766Y495706D01*
X2301443Y487222D01*
X2304643Y479196D01*
X2309317Y471932D01*
X2315260Y465683D01*
X2322322Y460654D01*
X2330145Y457047D01*
X2338578Y455015D01*
X2347214Y454609D01*
X2355748Y455828D01*
X2363927Y458673D01*
X2371394Y462991D01*
X2377948Y468680D01*
X2383282Y475437D01*
X2387244Y483108D01*
X2389682Y491439D01*
X2390495Y500024D01*
X2389682Y508609D01*
X2387244Y516940D01*
X2383282Y524611D01*
X2377948Y531368D01*
X2371394Y537057D01*
X2363927Y541375D01*
X2355748Y544220D01*
X2343150Y546150D01*
X2339797Y548386D01*
X2313482Y574700D01*
X2311298Y578002D01*
X2310485Y581914D01*
X2310485Y1873046D01*
X2311298Y1876958D01*
X2313482Y1880260D01*
X2639415Y2206193D01*
X2642717Y2208428D01*
X2646629Y2209190D01*
X2650540Y2208377D01*
X2653842Y2206142D01*
X2656027Y2202789D01*
X2659481Y2194204D01*
X2664155Y2186940D01*
X2670098Y2180691D01*
X2677160Y2175662D01*
X2684983Y2172055D01*
X2693416Y2170023D01*
X2698242Y2169820D01*
X2701848Y2168956D01*
X2704896Y2166823D01*
X2733141Y2138629D01*
X2736951Y2135378D01*
X2742590Y2132126D01*
X2748635Y2130145D01*
X2755493Y2129434D01*
X3143046Y2129434D01*
X3146907Y2128621D01*
X3150209Y2126437D01*
X3783177Y1493723D01*
X3786987Y1490472D01*
X3792626Y1487220D01*
X3798671Y1485239D01*
X3805529Y1484528D01*
X4372559Y1484528D01*
X4376521Y1483715D01*
X4379874Y1481378D01*
X4382058Y1477924D01*
X4382719Y1473911D01*
X4381703Y1469948D01*
X4379264Y1466697D01*
X4373422Y1461566D01*
X4364329Y1451203D01*
X4356658Y1439722D01*
X4350562Y1427378D01*
X4346092Y1414322D01*
X4343400Y1400759D01*
X4342485Y1386992D01*
X4343400Y1373225D01*
X4346092Y1359712D01*
X4350562Y1346657D01*
X4356658Y1334262D01*
X4364329Y1322781D01*
X4373422Y1312418D01*
X4383786Y1303324D01*
X4395266Y1295654D01*
X4407611Y1289558D01*
X4420666Y1285138D01*
X4434230Y1282446D01*
X4447997Y1281531D01*
X4461764Y1282446D01*
X4475276Y1285138D01*
X4488332Y1289558D01*
X4500727Y1295654D01*
X4512208Y1303324D01*
X4522571Y1312418D01*
X4531664Y1322781D01*
X4539335Y1334262D01*
X4545431Y1346657D01*
X4549851Y1359712D01*
X4552543Y1373225D01*
X4553458Y1386992D01*
X4552543Y1400759D01*
X4549851Y1414322D01*
X4545431Y1427378D01*
X4539335Y1439722D01*
X4531664Y1451203D01*
X4522571Y1461566D01*
X4516729Y1466697D01*
X4514240Y1469948D01*
X4513275Y1473911D01*
X4513884Y1477924D01*
X4516069Y1481378D01*
X4519422Y1483715D01*
X4523435Y1484528D01*
X4557014Y1484528D01*
X4560925Y1483715D01*
X4564227Y1481531D01*
X4603953Y1441805D01*
X4606239Y1438300D01*
X4606950Y1434185D01*
X4605883Y1430121D01*
X4604562Y1427378D01*
X4600092Y1414322D01*
X4597400Y1400759D01*
X4596485Y1386992D01*
X4597400Y1373225D01*
X4600092Y1359712D01*
X4604562Y1346657D01*
X4610658Y1334262D01*
X4618329Y1322781D01*
X4627422Y1312418D01*
X4637786Y1303324D01*
X4649266Y1295654D01*
X4661611Y1289558D01*
X4674666Y1285138D01*
X4688230Y1282446D01*
X4701997Y1281531D01*
X4715764Y1282446D01*
X4729276Y1285138D01*
X4742332Y1289558D01*
X4754727Y1295654D01*
X4766208Y1303324D01*
X4776571Y1312418D01*
X4785664Y1322781D01*
X4793335Y1334262D01*
X4799431Y1346657D01*
X4803851Y1359712D01*
X4806543Y1373225D01*
X4807458Y1386992D01*
X4806543Y1400759D01*
X4803851Y1414322D01*
X4799431Y1427378D01*
X4793335Y1439722D01*
X4785664Y1451203D01*
X4776571Y1461566D01*
X4766208Y1470660D01*
X4754727Y1478330D01*
X4742332Y1484426D01*
X4729276Y1488897D01*
X4715764Y1491589D01*
X4701997Y1492453D01*
X4688230Y1491589D01*
X4674666Y1488897D01*
X4661611Y1484426D01*
X4658766Y1483004D01*
X4654702Y1481988D01*
X4650587Y1482648D01*
X4647082Y1484934D01*
X4595723Y1536293D01*
X4591913Y1539544D01*
X4586274Y1542796D01*
X4580229Y1544777D01*
X4573371Y1545488D01*
X4525721Y1545488D01*
X4521708Y1546301D01*
X4518355Y1548638D01*
X4516221Y1552092D01*
X4515561Y1556105D01*
X4516577Y1560068D01*
X4519015Y1563319D01*
X4522571Y1566418D01*
X4531664Y1576781D01*
X4539335Y1588262D01*
X4545431Y1600657D01*
X4549851Y1613712D01*
X4552543Y1627225D01*
X4553458Y1640992D01*
X4552543Y1654759D01*
X4549851Y1668322D01*
X4545431Y1681378D01*
X4539335Y1693722D01*
X4531664Y1705203D01*
X4522571Y1715566D01*
X4515612Y1721713D01*
X4513122Y1724964D01*
X4512157Y1728876D01*
X4512767Y1732889D01*
X4514951Y1736343D01*
X4518304Y1738680D01*
X4522317Y1739493D01*
X4556150Y1739493D01*
X4560011Y1738731D01*
X4563313Y1736496D01*
X4604004Y1695856D01*
X4606290Y1692351D01*
X4606950Y1688236D01*
X4605934Y1684172D01*
X4604562Y1681378D01*
X4600092Y1668322D01*
X4597400Y1654759D01*
X4596485Y1640992D01*
X4597400Y1627225D01*
X4600092Y1613712D01*
X4604562Y1600657D01*
X4610658Y1588262D01*
X4618329Y1576781D01*
X4627422Y1566418D01*
X4637786Y1557324D01*
X4649266Y1549654D01*
X4661611Y1543558D01*
X4674666Y1539138D01*
X4688230Y1536446D01*
X4701997Y1535531D01*
X4715764Y1536446D01*
X4729276Y1539138D01*
X4742332Y1543558D01*
X4754727Y1549654D01*
X4766208Y1557324D01*
X4776571Y1566418D01*
X4785664Y1576781D01*
X4793335Y1588262D01*
X4799431Y1600657D01*
X4803851Y1613712D01*
X4806543Y1627225D01*
X4807458Y1640992D01*
X4806543Y1654759D01*
X4803851Y1668322D01*
X4799431Y1681378D01*
X4793335Y1693722D01*
X4785664Y1705203D01*
X4776571Y1715566D01*
X4766208Y1724660D01*
X4754727Y1732330D01*
X4742332Y1738426D01*
X4729276Y1742897D01*
X4715764Y1745589D01*
X4701997Y1746453D01*
X4688230Y1745589D01*
X4674666Y1742897D01*
X4661611Y1738426D01*
X4658817Y1737055D01*
X4654753Y1736039D01*
X4650638Y1736699D01*
X4647133Y1738985D01*
X4594860Y1791258D01*
X4590999Y1794560D01*
X4585360Y1797812D01*
X4579315Y1799793D01*
X4572457Y1800504D01*
X4526838Y1800504D01*
X4522825Y1801317D01*
X4519523Y1803603D01*
X4517339Y1807057D01*
X4516678Y1811070D01*
X4517694Y1815033D01*
X4520133Y1818284D01*
X4522571Y1820418D01*
X4531664Y1830781D01*
X4539335Y1842262D01*
X4545431Y1854657D01*
X4549851Y1867712D01*
X4552543Y1881225D01*
X4553458Y1894992D01*
X4552543Y1908759D01*
X4549851Y1922322D01*
X4545431Y1935378D01*
X4539335Y1947722D01*
X4531664Y1959203D01*
X4522571Y1969566D01*
X4520133Y1971700D01*
X4517694Y1974951D01*
X4516678Y1978914D01*
X4517339Y1982927D01*
X4519523Y1986381D01*
X4522876Y1988667D01*
X4526838Y1989480D01*
X4572558Y1989480D01*
X4577588Y1989886D01*
X4583887Y1991563D01*
X4589576Y1994458D01*
X4594910Y1998827D01*
X4647133Y2050999D01*
X4650638Y2053285D01*
X4654753Y2053996D01*
X4658817Y2052929D01*
X4661611Y2051557D01*
X4674666Y2047138D01*
X4688230Y2044446D01*
X4701997Y2043531D01*
X4715764Y2044446D01*
X4729276Y2047138D01*
X4742332Y2051557D01*
X4754727Y2057654D01*
X4766208Y2065324D01*
X4776571Y2074418D01*
X4785664Y2084781D01*
X4793335Y2096262D01*
X4799431Y2108657D01*
X4803851Y2121712D01*
X4806543Y2135225D01*
X4807458Y2148992D01*
X4806543Y2162759D01*
X4803851Y2176322D01*
X4799431Y2189378D01*
X4793335Y2201722D01*
X4785664Y2213203D01*
X4776571Y2223566D01*
X4766208Y2232660D01*
X4754727Y2240330D01*
X4742332Y2246426D01*
X4729276Y2250897D01*
X4715764Y2253589D01*
X4701997Y2254453D01*
X4688230Y2253589D01*
X4674666Y2250897D01*
X4661611Y2246426D01*
X4649266Y2240330D01*
X4637786Y2232660D01*
X4627422Y2223566D01*
X4618329Y2213203D01*
X4610658Y2201722D01*
X4604562Y2189378D01*
X4600092Y2176322D01*
X4597400Y2162759D01*
X4596485Y2148992D01*
X4597400Y2135225D01*
X4600092Y2121712D01*
X4604562Y2108657D01*
X4605934Y2105812D01*
X4606950Y2101748D01*
X4606290Y2097633D01*
X4604004Y2094128D01*
X4563313Y2053488D01*
X4560011Y2051253D01*
X4556150Y2050491D01*
X4522266Y2050491D01*
X4518304Y2051304D01*
X4514951Y2053640D01*
X4512767Y2057095D01*
X4512106Y2061108D01*
X4513122Y2065070D01*
X4515561Y2068271D01*
X4522571Y2074418D01*
X4531664Y2084781D01*
X4539335Y2096262D01*
X4545431Y2108657D01*
X4549851Y2121712D01*
X4552543Y2135225D01*
X4553458Y2148992D01*
X4552543Y2162759D01*
X4549851Y2176322D01*
X4545431Y2189378D01*
X4539335Y2201722D01*
X4531664Y2213203D01*
X4522571Y2223566D01*
X4513326Y2231694D01*
X4510836Y2234946D01*
X4509871Y2238908D01*
X4510481Y2242921D01*
X4512665Y2246376D01*
X4516018Y2248662D01*
X4520031Y2249474D01*
X4578604Y2249474D01*
X4583633Y2249881D01*
X4589881Y2251557D01*
X4595571Y2254453D01*
X4600905Y2258822D01*
X4647133Y2304999D01*
X4650638Y2307285D01*
X4654753Y2307996D01*
X4658817Y2306929D01*
X4661611Y2305558D01*
X4674666Y2301138D01*
X4688230Y2298446D01*
X4701997Y2297531D01*
X4715764Y2298446D01*
X4729276Y2301138D01*
X4742332Y2305558D01*
X4754727Y2311654D01*
X4766208Y2319324D01*
X4776571Y2328418D01*
X4785664Y2338781D01*
X4793335Y2350262D01*
X4799431Y2362657D01*
X4803851Y2375712D01*
X4806543Y2389225D01*
X4807458Y2402992D01*
X4806543Y2416759D01*
X4803851Y2430322D01*
X4799431Y2443378D01*
X4793335Y2455722D01*
X4785664Y2467203D01*
X4776571Y2477566D01*
X4766208Y2486660D01*
X4754727Y2494330D01*
X4742332Y2500426D01*
X4729276Y2504897D01*
X4715764Y2507589D01*
X4701997Y2508453D01*
X4688230Y2507589D01*
X4674666Y2504897D01*
X4661611Y2500426D01*
X4649266Y2494330D01*
X4637786Y2486660D01*
X4627422Y2477566D01*
X4618329Y2467203D01*
X4610658Y2455722D01*
X4604562Y2443378D01*
X4600092Y2430322D01*
X4597400Y2416759D01*
X4596485Y2402992D01*
X4597400Y2389225D01*
X4600092Y2375712D01*
X4604562Y2362657D01*
X4605934Y2359812D01*
X4606950Y2355748D01*
X4606290Y2351633D01*
X4604004Y2348128D01*
X4569307Y2313482D01*
X4566005Y2311247D01*
X4562144Y2310485D01*
X4529124Y2310485D01*
X4525111Y2311298D01*
X4521809Y2313635D01*
X4519625Y2317089D01*
X4518964Y2321102D01*
X4519980Y2325065D01*
X4522571Y2328418D01*
X4531664Y2338781D01*
X4539335Y2350262D01*
X4545431Y2362657D01*
X4549851Y2375712D01*
X4552543Y2389225D01*
X4553458Y2402992D01*
X4552543Y2416759D01*
X4549851Y2430322D01*
X4545431Y2443378D01*
X4539335Y2455722D01*
X4531664Y2467203D01*
X4522571Y2477566D01*
X4517847Y2481681D01*
X4515408Y2484932D01*
X4514443Y2488895D01*
X4515053Y2492908D01*
X4517237Y2496362D01*
X4520590Y2498699D01*
X4524552Y2499512D01*
X4574590Y2499512D01*
X4579620Y2499918D01*
X4585919Y2501595D01*
X4591558Y2504490D01*
X4596942Y2508808D01*
X4647133Y2558999D01*
X4650638Y2561285D01*
X4654753Y2561996D01*
X4658817Y2560929D01*
X4661611Y2559558D01*
X4674666Y2555138D01*
X4688230Y2552446D01*
X4701997Y2551531D01*
X4715764Y2552446D01*
X4729276Y2555138D01*
X4742332Y2559558D01*
X4754727Y2565654D01*
X4766208Y2573324D01*
X4776571Y2582418D01*
X4785664Y2592781D01*
X4793335Y2604262D01*
X4799431Y2616657D01*
X4803851Y2629712D01*
X4806543Y2643225D01*
X4807458Y2656992D01*
X4806543Y2670759D01*
X4803851Y2684322D01*
X4799431Y2697378D01*
X4793335Y2709722D01*
X4785664Y2721203D01*
X4776571Y2731566D01*
X4766208Y2740660D01*
X4754727Y2748330D01*
X4742332Y2754426D01*
X4729276Y2758897D01*
X4715764Y2761589D01*
X4701997Y2762453D01*
X4688230Y2761589D01*
X4674666Y2758897D01*
X4661611Y2754426D01*
X4649266Y2748330D01*
X4637786Y2740660D01*
X4627422Y2731566D01*
X4618329Y2721203D01*
X4610658Y2709722D01*
X4604562Y2697378D01*
X4600092Y2684322D01*
X4597400Y2670759D01*
X4596485Y2656992D01*
X4597400Y2643225D01*
X4600092Y2629712D01*
X4604562Y2616657D01*
X4605934Y2613812D01*
X4606950Y2609748D01*
X4606290Y2605633D01*
X4604004Y2602128D01*
X4565345Y2563469D01*
X4562043Y2561285D01*
X4558131Y2560472D01*
X4524552Y2560472D01*
X4520590Y2561336D01*
X4517237Y2563622D01*
X4515053Y2567076D01*
X4514392Y2571089D01*
X4515408Y2575052D01*
X4517847Y2578303D01*
X4522571Y2582418D01*
X4531664Y2592781D01*
X4539335Y2604262D01*
X4545431Y2616657D01*
X4549851Y2629712D01*
X4552543Y2643225D01*
X4553458Y2656992D01*
X4552543Y2670759D01*
X4549851Y2684322D01*
X4545431Y2697378D01*
X4539335Y2709722D01*
X4531664Y2721203D01*
X4522571Y2731566D01*
X4511751Y2740964D01*
X4508754Y2744063D01*
X4507331Y2748127D01*
X4507687Y2752394D01*
X4509770Y2756154D01*
X4513173Y2758694D01*
X4517390Y2759608D01*
X4580585Y2759608D01*
X4585614Y2759964D01*
X4591913Y2761691D01*
X4597552Y2764536D01*
X4602937Y2768904D01*
X4647082Y2813050D01*
X4650587Y2815336D01*
X4654702Y2815996D01*
X4658766Y2814980D01*
X4661611Y2813558D01*
X4674666Y2809138D01*
X4688230Y2806446D01*
X4701997Y2805531D01*
X4715764Y2806446D01*
X4729276Y2809138D01*
X4742332Y2813558D01*
X4754727Y2819654D01*
X4766208Y2827324D01*
X4776571Y2836418D01*
X4785664Y2846781D01*
X4793335Y2858262D01*
X4799431Y2870657D01*
X4803851Y2883712D01*
X4806543Y2897225D01*
X4807458Y2910992D01*
X4806543Y2924759D01*
X4803851Y2938322D01*
X4799431Y2951378D01*
X4793335Y2963722D01*
X4785664Y2975203D01*
X4776571Y2985566D01*
X4766208Y2994660D01*
X4754727Y3002330D01*
X4742332Y3008426D01*
X4729276Y3012897D01*
X4715764Y3015589D01*
X4701997Y3016453D01*
X4688230Y3015589D01*
X4674666Y3012897D01*
X4661611Y3008426D01*
X4649266Y3002330D01*
X4637786Y2994660D01*
X4627422Y2985566D01*
X4618329Y2975203D01*
X4610658Y2963722D01*
X4604562Y2951378D01*
X4600092Y2938322D01*
X4597400Y2924759D01*
X4596485Y2910992D01*
X4597400Y2897225D01*
X4600092Y2883712D01*
X4604562Y2870657D01*
X4605883Y2867863D01*
X4606950Y2863850D01*
X4606239Y2859684D01*
X4603953Y2856179D01*
X4571339Y2823565D01*
X4568037Y2821381D01*
X4564126Y2820568D01*
X4531106Y2820568D01*
X4527346Y2821330D01*
X4524095Y2823413D01*
X4521860Y2826562D01*
X4520946Y2830322D01*
X4521504Y2834132D01*
X4523486Y2837434D01*
X4531664Y2846781D01*
X4539335Y2858262D01*
X4545431Y2870657D01*
X4549851Y2883712D01*
X4552543Y2897225D01*
X4553458Y2910992D01*
X4552543Y2924759D01*
X4549851Y2938322D01*
X4545431Y2951378D01*
X4539335Y2963722D01*
X4531664Y2975203D01*
X4522571Y2985566D01*
X4512208Y2994660D01*
X4500727Y3002330D01*
X4488332Y3008426D01*
X4475276Y3012897D01*
X4461764Y3015589D01*
X4447997Y3016453D01*
X4434230Y3015589D01*
X4420666Y3012897D01*
X4407611Y3008426D01*
X4395266Y3002330D01*
X4383786Y2994660D01*
X4373422Y2985566D01*
X4364329Y2975203D01*
X4356658Y2963722D01*
X4350562Y2951378D01*
X4346092Y2938322D01*
X4343400Y2924759D01*
X4342485Y2910992D01*
X4343400Y2897225D01*
X4346092Y2883712D01*
X4350562Y2870657D01*
X4356658Y2858262D01*
X4364329Y2846781D01*
X4372508Y2837434D01*
X4374438Y2834132D01*
X4374997Y2830322D01*
X4374134Y2826562D01*
X4371898Y2823413D01*
X4368647Y2821330D01*
X4364837Y2820568D01*
X4290314Y2820568D01*
X4285284Y2820212D01*
X4278985Y2818485D01*
X4273346Y2815640D01*
X4267962Y2811272D01*
X3804869Y2348179D01*
X3801770Y2346045D01*
X3798163Y2345182D01*
X3793540Y2344978D01*
X3785108Y2342946D01*
X3777284Y2339340D01*
X3770223Y2334361D01*
X3764279Y2328113D01*
X3759606Y2320798D01*
X3756406Y2312822D01*
X3754729Y2304338D01*
X3754729Y2295652D01*
X3756406Y2287168D01*
X3759606Y2279192D01*
X3764279Y2271877D01*
X3770223Y2265629D01*
X3777284Y2260650D01*
X3785108Y2257044D01*
X3793540Y2255012D01*
X3802176Y2254605D01*
X3810711Y2255824D01*
X3818890Y2258669D01*
X3826357Y2262987D01*
X3832910Y2268626D01*
X3838244Y2275433D01*
X3842207Y2283104D01*
X3844645Y2291384D01*
X3845356Y2299106D01*
X3846271Y2302510D01*
X3848303Y2305354D01*
X4299559Y2756611D01*
X4302861Y2758795D01*
X4306773Y2759608D01*
X4378604Y2759608D01*
X4382770Y2758694D01*
X4386224Y2756154D01*
X4388307Y2752394D01*
X4388662Y2748127D01*
X4387189Y2744063D01*
X4383786Y2740660D01*
X4373422Y2731566D01*
X4364329Y2721203D01*
X4356658Y2709722D01*
X4350562Y2697378D01*
X4346092Y2684322D01*
X4343400Y2670759D01*
X4342485Y2656992D01*
X4343400Y2643225D01*
X4346092Y2629712D01*
X4350562Y2616657D01*
X4356658Y2604262D01*
X4364329Y2592781D01*
X4373422Y2582418D01*
X4378096Y2578303D01*
X4380585Y2575052D01*
X4381550Y2571089D01*
X4380890Y2567076D01*
X4378756Y2563622D01*
X4375404Y2561336D01*
X4371390Y2560472D01*
X4250385Y2560472D01*
X4245356Y2560116D01*
X4239056Y2558440D01*
X4233418Y2555544D01*
X4228033Y2551176D01*
X3910329Y2233472D01*
X3907028Y2231288D01*
X3903116Y2230475D01*
X3737660Y2230475D01*
X3734104Y2231136D01*
X3731006Y2232964D01*
X3726332Y2237028D01*
X3718864Y2241346D01*
X3710686Y2244191D01*
X3702151Y2245410D01*
X3693515Y2245004D01*
X3685133Y2242972D01*
X3677259Y2239365D01*
X3670249Y2234336D01*
X3664254Y2228088D01*
X3657295Y2217013D01*
X3654145Y2214778D01*
X3650437Y2213864D01*
X3646627Y2214422D01*
X3643274Y2216353D01*
X3640886Y2219401D01*
X3638245Y2224582D01*
X3632911Y2231339D01*
X3626358Y2237028D01*
X3618890Y2241346D01*
X3610711Y2244191D01*
X3602177Y2245410D01*
X3593541Y2245004D01*
X3585108Y2242972D01*
X3577285Y2239365D01*
X3570224Y2234336D01*
X3564280Y2228088D01*
X3557270Y2217013D01*
X3554171Y2214778D01*
X3550412Y2213864D01*
X3546601Y2214422D01*
X3543300Y2216353D01*
X3540912Y2219401D01*
X3538220Y2224582D01*
X3532886Y2231339D01*
X3526383Y2237028D01*
X3518865Y2241346D01*
X3510686Y2244191D01*
X3502151Y2245410D01*
X3493515Y2245004D01*
X3485134Y2242972D01*
X3477260Y2239365D01*
X3470249Y2234336D01*
X3464255Y2228088D01*
X3459581Y2220823D01*
X3456381Y2212797D01*
X3454755Y2204313D01*
X3454755Y2195677D01*
X3456381Y2187194D01*
X3459581Y2179167D01*
X3464255Y2171903D01*
X3466693Y2169363D01*
X3468776Y2166112D01*
X3469487Y2162352D01*
X3469487Y2110384D01*
X3469894Y2105355D01*
X3471570Y2099056D01*
X3474465Y2093417D01*
X3478784Y2088032D01*
X3628136Y1938731D01*
X3631996Y1935429D01*
X3637584Y1932178D01*
X3643680Y1930196D01*
X3650538Y1929485D01*
X4139590Y1929485D01*
X4144619Y1929892D01*
X4150918Y1931568D01*
X4156557Y1934464D01*
X4161942Y1938832D01*
X4209643Y1986534D01*
X4212945Y1988718D01*
X4216806Y1989480D01*
X4369104Y1989480D01*
X4373118Y1988667D01*
X4376470Y1986381D01*
X4378604Y1982927D01*
X4379264Y1978914D01*
X4378299Y1974951D01*
X4375810Y1971700D01*
X4373422Y1969566D01*
X4364329Y1959203D01*
X4356658Y1947722D01*
X4350562Y1935378D01*
X4346092Y1922322D01*
X4343400Y1908759D01*
X4342485Y1894992D01*
X4343400Y1881225D01*
X4346092Y1867712D01*
X4350562Y1854657D01*
X4356658Y1842262D01*
X4364329Y1830781D01*
X4373422Y1820418D01*
X4375810Y1818284D01*
X4378299Y1815033D01*
X4379264Y1811070D01*
X4378655Y1807057D01*
X4376470Y1803603D01*
X4373118Y1801317D01*
X4369104Y1800504D01*
X3651808Y1800504D01*
X3647948Y1801266D01*
X3644646Y1803450D01*
X3211830Y2236266D01*
X3207969Y2239568D01*
X3202381Y2242820D01*
X3196285Y2244750D01*
X3189427Y2245512D01*
X2837637Y2245512D01*
X2834081Y2246122D01*
X2830982Y2247950D01*
X2826359Y2252014D01*
X2820314Y2255469D01*
X2817063Y2258466D01*
X2815386Y2262530D01*
X2815539Y2266899D01*
X2817571Y2270810D01*
X2821076Y2273503D01*
X2825394Y2274468D01*
X2934665Y2274468D01*
X2939745Y2274874D01*
X2946044Y2276551D01*
X2951683Y2279446D01*
X2957068Y2283815D01*
X3046323Y2373325D01*
X3049524Y2377084D01*
X3052775Y2382723D01*
X3054756Y2388768D01*
X3055467Y2395626D01*
X3055467Y2462072D01*
X3056026Y2465374D01*
X3057652Y2468321D01*
X3063240Y2475433D01*
X3067202Y2483104D01*
X3069640Y2491384D01*
X3070453Y2499969D01*
X3069640Y2508605D01*
X3067202Y2516886D01*
X3063240Y2524556D01*
X3057906Y2531364D01*
X3051352Y2537002D01*
X3043885Y2541320D01*
X3035706Y2544165D01*
X3027172Y2545384D01*
X3018536Y2544978D01*
X3010103Y2542946D01*
X3002280Y2539339D01*
X2995218Y2534361D01*
X2989275Y2528112D01*
X2984601Y2520797D01*
X2981401Y2512822D01*
X2979724Y2504338D01*
X2979724Y2495651D01*
X2981401Y2487168D01*
X2984601Y2479192D01*
X2989275Y2471877D01*
X2991662Y2469337D01*
X2993745Y2466136D01*
X2994507Y2462326D01*
X2994507Y2411933D01*
X2993694Y2408021D01*
X2991510Y2404770D01*
X2971444Y2384602D01*
X2967939Y2382316D01*
X2963824Y2381656D01*
X2959760Y2382672D01*
X2956458Y2385263D01*
X2954528Y2388920D01*
X2952191Y2396896D01*
X2948228Y2404567D01*
X2942894Y2411323D01*
X2936341Y2417013D01*
X2928874Y2421331D01*
X2920695Y2424176D01*
X2912160Y2425395D01*
X2903524Y2424988D01*
X2895092Y2422956D01*
X2887268Y2419350D01*
X2876092Y2411171D01*
X2872079Y2410358D01*
X2682951Y2410358D01*
X2679090Y2411171D01*
X2675788Y2413355D01*
X2673553Y2416657D01*
X2672791Y2420518D01*
X2673553Y2424430D01*
X2675788Y2427732D01*
X2839567Y2591511D01*
X2842869Y2593695D01*
X2846781Y2594508D01*
X2872181Y2594508D01*
X2876194Y2593644D01*
X2887268Y2585618D01*
X2895092Y2582011D01*
X2903524Y2579979D01*
X2912160Y2579573D01*
X2920695Y2580792D01*
X2928874Y2583637D01*
X2936341Y2587955D01*
X2942894Y2593644D01*
X2948228Y2600401D01*
X2952191Y2608072D01*
X2954629Y2616403D01*
X2955442Y2624988D01*
X2954629Y2633573D01*
X2952191Y2641904D01*
X2948228Y2649575D01*
X2942894Y2656332D01*
X2936341Y2662021D01*
X2928874Y2666339D01*
X2920695Y2669184D01*
X2912160Y2670403D01*
X2903524Y2669997D01*
X2895092Y2667965D01*
X2887268Y2664358D01*
X2876194Y2656281D01*
X2872181Y2655468D01*
X2830677Y2655468D01*
X2826562Y2656382D01*
X2823108Y2658872D01*
X2821025Y2662529D01*
X2820568Y2666695D01*
X2821889Y2670708D01*
X2822905Y2672537D01*
X2824886Y2678582D01*
X2825597Y2685440D01*
X2825597Y2752191D01*
X2826156Y2755544D01*
X2827782Y2758490D01*
X2833217Y2765399D01*
X2837180Y2773070D01*
X2839618Y2781401D01*
X2840431Y2789986D01*
X2839618Y2798572D01*
X2837180Y2806903D01*
X2833217Y2814574D01*
X2827883Y2821330D01*
X2821381Y2827020D01*
X2813862Y2831338D01*
X2805684Y2834182D01*
X2797149Y2835402D01*
X2788513Y2834995D01*
X2780131Y2832963D01*
X2772257Y2829356D01*
X2765247Y2824327D01*
X2759252Y2818079D01*
X2754579Y2810814D01*
X2751378Y2802788D01*
X2749753Y2794304D01*
X2749753Y2785668D01*
X2751378Y2777185D01*
X2754579Y2769158D01*
X2759252Y2761894D01*
X2761792Y2759202D01*
X2763875Y2756001D01*
X2764637Y2752191D01*
X2764637Y2701798D01*
X2763824Y2697886D01*
X2761640Y2694584D01*
X2646984Y2579979D01*
X2643530Y2577693D01*
X2639466Y2577033D01*
X2635453Y2577998D01*
X2632151Y2580487D01*
X2630119Y2584094D01*
X2629712Y2588209D01*
X2630474Y2595524D01*
X2630474Y2752039D01*
X2631033Y2755392D01*
X2632659Y2758338D01*
X2638196Y2765399D01*
X2642158Y2773070D01*
X2644597Y2781401D01*
X2645410Y2789986D01*
X2644597Y2798572D01*
X2642158Y2806903D01*
X2638196Y2814574D01*
X2632862Y2821330D01*
X2626309Y2827020D01*
X2618841Y2831338D01*
X2610662Y2834182D01*
X2602128Y2835402D01*
X2593492Y2834995D01*
X2585110Y2832963D01*
X2577236Y2829356D01*
X2570226Y2824327D01*
X2564231Y2818079D01*
X2559558Y2810814D01*
X2556357Y2802788D01*
X2554732Y2794304D01*
X2554732Y2785668D01*
X2556357Y2777185D01*
X2559558Y2769158D01*
X2564231Y2761894D01*
X2566670Y2759354D01*
X2568752Y2756103D01*
X2569464Y2752344D01*
X2569464Y2611831D01*
X2568702Y2607919D01*
X2566517Y2604617D01*
X2195322Y2233472D01*
X2192020Y2231237D01*
X2188159Y2230475D01*
X1871827Y2230475D01*
X1867916Y2231237D01*
X1864664Y2233472D01*
X1838452Y2259634D01*
X1836267Y2262936D01*
X1835505Y2266848D01*
X1835505Y2448610D01*
X1835099Y2453640D01*
X1833422Y2459888D01*
X1830527Y2465578D01*
X1826158Y2470962D01*
X1781454Y2515666D01*
X1779270Y2518968D01*
X1778457Y2522829D01*
X1778457Y2665425D01*
X1777898Y2670556D01*
X1776374Y2674874D01*
X1773936Y2678734D01*
X1770735Y2681986D01*
X1766874Y2684424D01*
X1762506Y2685897D01*
X1757425Y2686507D01*
X1588566Y2686507D01*
X1583436Y2685897D01*
X1579118Y2684424D01*
X1575257Y2681986D01*
X1572006Y2678734D01*
X1569567Y2674874D01*
X1568043Y2670556D01*
X1567484Y2665425D01*
X1567484Y2496566D01*
X1568043Y2491435D01*
X1569567Y2487117D01*
X1572006Y2483256D01*
X1575257Y2480005D01*
X1579118Y2477566D01*
X1583436Y2476093D01*
X1588566Y2475484D01*
X1731162Y2475484D01*
X1735023Y2474722D01*
X1738325Y2472537D01*
X1771497Y2439365D01*
X1773732Y2436063D01*
X1774494Y2432151D01*
X1774494Y2397861D01*
X1773682Y2393899D01*
X1771345Y2390546D01*
X1767890Y2388362D01*
X1763877Y2387701D01*
X1759915Y2388717D01*
X1756714Y2391156D01*
X1747570Y2401570D01*
X1737207Y2410663D01*
X1725726Y2418334D01*
X1713331Y2424430D01*
X1700275Y2428900D01*
X1686763Y2431592D01*
X1672996Y2432456D01*
X1659229Y2431592D01*
X1645666Y2428900D01*
X1632610Y2424430D01*
X1620266Y2418334D01*
X1608785Y2410663D01*
X1598422Y2401570D01*
X1589328Y2391206D01*
X1581658Y2379726D01*
X1575562Y2367381D01*
X1571091Y2354275D01*
X1568399Y2340762D01*
X1567484Y2326995D01*
X1568399Y2313228D01*
X1571091Y2299716D01*
X1575562Y2286609D01*
X1581658Y2274265D01*
X1589328Y2262784D01*
X1598422Y2252421D01*
X1608785Y2243328D01*
X1620266Y2235657D01*
X1632610Y2229561D01*
X1645666Y2225090D01*
X1659229Y2222449D01*
X1672996Y2221534D01*
X1686763Y2222449D01*
X1700275Y2225090D01*
X1713331Y2229561D01*
X1725726Y2235657D01*
X1737207Y2243328D01*
X1747570Y2252421D01*
X1756714Y2262835D01*
X1759915Y2265273D01*
X1763877Y2266289D01*
X1767890Y2265629D01*
X1771345Y2263444D01*
X1773682Y2260092D01*
X1774494Y2256129D01*
X1774494Y2250389D01*
X1774901Y2245360D01*
X1776577Y2239060D01*
X1779473Y2233422D01*
X1783791Y2228037D01*
X1833118Y2178710D01*
X1836978Y2175408D01*
X1842617Y2172157D01*
X1848662Y2170226D01*
X1851964Y2169871D01*
X1855673Y2168702D01*
X1858670Y2166264D01*
X1860550Y2162860D01*
X1861007Y2158949D01*
X1859991Y2155190D01*
X1857603Y2152142D01*
X1852422Y2147570D01*
X1843328Y2137206D01*
X1835657Y2125726D01*
X1829562Y2113381D01*
X1825091Y2100275D01*
X1822399Y2086762D01*
X1821484Y2072995D01*
X1822399Y2059228D01*
X1825091Y2045716D01*
X1829562Y2032609D01*
X1835657Y2020265D01*
X1843328Y2008784D01*
X1852422Y1998421D01*
X1858213Y1993341D01*
X1860651Y1990089D01*
X1861667Y1986127D01*
X1861007Y1982114D01*
X1858822Y1978660D01*
X1855470Y1976323D01*
X1851507Y1975510D01*
X1820418Y1975510D01*
X1815388Y1975154D01*
X1809089Y1973427D01*
X1803450Y1970582D01*
X1798066Y1966214D01*
X1741474Y1909622D01*
X1738630Y1907641D01*
X1735328Y1906727D01*
X1731822Y1906981D01*
X1728673Y1908352D01*
X1725726Y1910334D01*
X1713331Y1916430D01*
X1700275Y1920900D01*
X1686763Y1923592D01*
X1672996Y1924456D01*
X1659229Y1923592D01*
X1645666Y1920900D01*
X1632610Y1916430D01*
X1620266Y1910334D01*
X1608785Y1902663D01*
X1598422Y1893570D01*
X1589328Y1883206D01*
X1581658Y1871725D01*
X1575562Y1859381D01*
X1571091Y1846275D01*
X1568399Y1832762D01*
X1567484Y1818995D01*
X1568399Y1805228D01*
X1571091Y1791716D01*
X1575562Y1778609D01*
X1581658Y1766265D01*
X1589328Y1754784D01*
X1598422Y1744421D01*
X1608785Y1735328D01*
X1620266Y1727657D01*
X1632610Y1721561D01*
X1645666Y1717090D01*
X1659229Y1714449D01*
X1672996Y1713534D01*
X1686763Y1714449D01*
X1700275Y1717090D01*
X1713331Y1721561D01*
X1725726Y1727657D01*
X1737207Y1735328D01*
X1747570Y1744421D01*
X1756664Y1754784D01*
X1764334Y1766265D01*
X1770430Y1778609D01*
X1774850Y1791716D01*
X1777542Y1805228D01*
X1778457Y1818995D01*
X1777542Y1832762D01*
X1774850Y1846275D01*
X1774240Y1848104D01*
X1773732Y1851812D01*
X1774545Y1855470D01*
X1776679Y1858568D01*
X1829663Y1911553D01*
X1832965Y1913737D01*
X1836877Y1914550D01*
X1849272Y1914550D01*
X1853285Y1913737D01*
X1856638Y1911400D01*
X1858822Y1907946D01*
X1859432Y1903933D01*
X1858467Y1899970D01*
X1855978Y1896719D01*
X1852422Y1893570D01*
X1843328Y1883206D01*
X1835657Y1871725D01*
X1829562Y1859381D01*
X1825091Y1846275D01*
X1822399Y1832762D01*
X1821484Y1818995D01*
X1822399Y1805228D01*
X1825091Y1791716D01*
X1829562Y1778609D01*
X1835657Y1766265D01*
X1843328Y1754784D01*
X1852422Y1744421D01*
X1862785Y1735328D01*
X1874266Y1727657D01*
X1886610Y1721561D01*
X1899666Y1717090D01*
X1913229Y1714449D01*
X1926996Y1713534D01*
X1940763Y1714449D01*
X1954275Y1717090D01*
X1967331Y1721561D01*
X1979726Y1727657D01*
X1991207Y1735328D01*
X2001570Y1744421D01*
X2010664Y1754784D01*
X2018334Y1766265D01*
X2024430Y1778609D01*
X2028850Y1791716D01*
X2031542Y1805228D01*
X2032457Y1818995D01*
X2031542Y1832762D01*
X2028850Y1846275D01*
X2024430Y1859381D01*
X2018334Y1871725D01*
X2010664Y1883206D01*
X2001570Y1893570D01*
X1997964Y1896719D01*
X1995525Y1899970D01*
X1994509Y1903933D01*
X1995170Y1907946D01*
X1997354Y1911400D01*
X2000656Y1913737D01*
X2004669Y1914550D01*
X2054555Y1914550D01*
X2059584Y1914906D01*
X2065883Y1916633D01*
X2071522Y1919478D01*
X2076907Y1923846D01*
X2112010Y1958949D01*
X2115312Y1961134D01*
X2119223Y1961946D01*
X2123084Y1961134D01*
X2126386Y1958949D01*
X2128570Y1955647D01*
X2129383Y1951786D01*
X2129383Y1151839D01*
X2128570Y1147978D01*
X2126386Y1144676D01*
X1423822Y441858D01*
X1420571Y438048D01*
X1417320Y432409D01*
X1415338Y426364D01*
X1414627Y419506D01*
X1414627Y337769D01*
X1413865Y334010D01*
X1411782Y330758D01*
X1409242Y328117D01*
X1404569Y320802D01*
X1401368Y312826D01*
X1399743Y304342D01*
X1399743Y295656D01*
X1401368Y287172D01*
X1404569Y279196D01*
X1409242Y271881D01*
X1415237Y265633D01*
X1422247Y260654D01*
X1430121Y257048D01*
X1438503Y255016D01*
X1447139Y254609D01*
X1455674Y255828D01*
X1463852Y258673D01*
X1471371Y262991D01*
X1477873Y268630D01*
X1483207Y275437D01*
X1487170Y283108D01*
X1489608Y291388D01*
X1490421Y299974D01*
X1489608Y308610D01*
X1487170Y316890D01*
X1483207Y324561D01*
X1477772Y331470D01*
X1476146Y334467D01*
X1475587Y337769D01*
X1475587Y403199D01*
X1476400Y407060D01*
X1478584Y410362D01*
X2172208Y1104239D01*
X2175510Y1106424D01*
X2179421Y1107236D01*
X2183282Y1106424D01*
X2186584Y1104239D01*
X2188768Y1100937D01*
X2189581Y1097076D01*
X2189581Y337515D01*
X2188819Y333756D01*
X2186736Y330504D01*
X2184349Y327964D01*
X2179675Y320700D01*
X2176475Y312674D01*
X2174798Y304190D01*
X2174798Y295554D01*
X2176475Y287070D01*
X2179675Y279044D01*
X2184349Y271780D01*
X2190292Y265531D01*
X2197354Y260502D01*
X2205177Y256895D01*
X2213610Y254863D01*
G37*
G36*
X524001Y652119D02*
G01*
X533755Y653338D01*
X543153Y656234D01*
X551942Y660654D01*
X559866Y666496D01*
X566674Y673608D01*
X572160Y681736D01*
X576224Y690676D01*
X578713Y700227D01*
X579526Y709980D01*
X578713Y719785D01*
X576224Y729335D01*
X572160Y738276D01*
X566674Y746404D01*
X559866Y753516D01*
X551942Y759358D01*
X543153Y763778D01*
X533755Y766673D01*
X524001Y767892D01*
X514197Y767486D01*
X504596Y765403D01*
X495452Y761746D01*
X487121Y756615D01*
X479704Y750112D01*
X473557Y742442D01*
X468731Y733856D01*
X465480Y724611D01*
X463804Y714908D01*
X463804Y705104D01*
X465480Y695401D01*
X468731Y686155D01*
X473557Y677570D01*
X479704Y669899D01*
X487121Y663397D01*
X495452Y658266D01*
X504596Y654608D01*
X514197Y652526D01*
G37*
G36*
X757174Y714603D02*
G01*
X765708Y715822D01*
X773887Y718667D01*
X781354Y722985D01*
X787908Y728624D01*
X793343Y735584D01*
X797255Y743204D01*
X799693Y751586D01*
X799998Y753567D01*
X800404Y762304D01*
X799236Y770636D01*
X796544Y778560D01*
X792429Y785876D01*
X786739Y792683D01*
X748385Y830935D01*
X746150Y834237D01*
X745388Y838098D01*
X745388Y916635D01*
X746302Y920902D01*
X748893Y924356D01*
X752652Y926388D01*
X756970Y926693D01*
X761034Y925220D01*
X770229Y915619D01*
X777240Y910640D01*
X785114Y907034D01*
X793496Y905002D01*
X802132Y904595D01*
X810666Y905814D01*
X818845Y908659D01*
X826363Y912977D01*
X832866Y918616D01*
X838200Y925423D01*
X842162Y933094D01*
X843381Y937209D01*
X845464Y941019D01*
X848918Y943610D01*
X853135Y944524D01*
X1054557Y944524D01*
X1059586Y944880D01*
X1065885Y946607D01*
X1071524Y949452D01*
X1076909Y953820D01*
X1189583Y1066495D01*
X1192885Y1068679D01*
X1196797Y1069492D01*
X1344574Y1069492D01*
X1348435Y1068679D01*
X1351737Y1066495D01*
X1353972Y1063193D01*
X1356360Y1050188D01*
X1359560Y1042162D01*
X1364234Y1034897D01*
X1370228Y1028649D01*
X1377238Y1023619D01*
X1385112Y1020013D01*
X1393494Y1017981D01*
X1402130Y1017574D01*
X1410665Y1018794D01*
X1418844Y1021638D01*
X1426362Y1025956D01*
X1432864Y1031646D01*
X1438198Y1038402D01*
X1442161Y1046073D01*
X1444599Y1054404D01*
X1445412Y1062990D01*
X1444599Y1071575D01*
X1442161Y1079906D01*
X1438198Y1087577D01*
X1432864Y1094333D01*
X1426362Y1100023D01*
X1418844Y1104341D01*
X1410665Y1107186D01*
X1398117Y1109116D01*
X1394714Y1111402D01*
X1386789Y1119327D01*
X1384604Y1122629D01*
X1383842Y1126540D01*
X1384655Y1130401D01*
X1386840Y1133703D01*
X1394764Y1141628D01*
X1398117Y1143863D01*
X1410665Y1145794D01*
X1418844Y1148638D01*
X1426362Y1152956D01*
X1432864Y1158646D01*
X1438198Y1165402D01*
X1442161Y1173073D01*
X1444599Y1181404D01*
X1445412Y1189990D01*
X1444599Y1198575D01*
X1442161Y1206906D01*
X1438198Y1214577D01*
X1432864Y1221333D01*
X1426362Y1227023D01*
X1418844Y1231341D01*
X1410665Y1234186D01*
X1402130Y1235405D01*
X1393494Y1234998D01*
X1385112Y1232966D01*
X1377238Y1229360D01*
X1370228Y1224330D01*
X1364234Y1218082D01*
X1359560Y1210818D01*
X1356360Y1202791D01*
X1354734Y1194308D01*
X1354734Y1192072D01*
X1353972Y1188161D01*
X1351737Y1184859D01*
X1345285Y1178407D01*
X1341983Y1176223D01*
X1338072Y1175410D01*
X1212240Y1175410D01*
X1208582Y1176121D01*
X1205382Y1178102D01*
X1203147Y1181100D01*
X1202131Y1184706D01*
X1202486Y1188466D01*
X1204620Y1195679D01*
X1205433Y1204264D01*
X1204620Y1212850D01*
X1202182Y1221181D01*
X1198219Y1228852D01*
X1192885Y1235608D01*
X1186383Y1241298D01*
X1178864Y1245616D01*
X1170686Y1248460D01*
X1165453Y1249730D01*
X1162862Y1251610D01*
X1149756Y1264716D01*
X1143558Y1269695D01*
X1136954Y1273098D01*
X1129690Y1275029D01*
X1123848Y1275486D01*
X810666Y1275486D01*
X806754Y1276248D01*
X803452Y1278483D01*
X801268Y1281785D01*
X800506Y1285646D01*
X800455Y1956765D01*
X799236Y1965502D01*
X797356Y1971548D01*
X796340Y1973884D01*
X795477Y1977948D01*
X795375Y2681833D01*
X794156Y2690520D01*
X791514Y2698445D01*
X787400Y2705811D01*
X781761Y2712618D01*
X673404Y2820924D01*
X671220Y2824226D01*
X670458Y2828137D01*
X670458Y2972003D01*
X671220Y2975914D01*
X673404Y2979216D01*
X1018235Y3324098D01*
X1023518Y3331057D01*
X1027226Y3338576D01*
X1029563Y3346653D01*
X1030376Y3355441D01*
X1030376Y3434384D01*
X1031240Y3438550D01*
X1033830Y3442004D01*
X1037590Y3444087D01*
X1041857Y3444443D01*
X1045870Y3443020D01*
X1048969Y3440023D01*
X1051814Y3435807D01*
X1060907Y3425393D01*
X1071270Y3416300D01*
X1082751Y3408629D01*
X1095095Y3402533D01*
X1108202Y3398113D01*
X1121714Y3395421D01*
X1135481Y3394506D01*
X1149248Y3395421D01*
X1162761Y3398113D01*
X1175816Y3402533D01*
X1188212Y3408629D01*
X1199692Y3416300D01*
X1210056Y3425393D01*
X1219149Y3435807D01*
X1226820Y3447237D01*
X1232916Y3459632D01*
X1237335Y3472687D01*
X1240028Y3486251D01*
X1240942Y3500018D01*
X1240129Y3512210D01*
X1240790Y3516477D01*
X1243126Y3520084D01*
X1259687Y3536645D01*
X1262989Y3538829D01*
X1266901Y3539642D01*
X1313180Y3539642D01*
X1317091Y3538829D01*
X1320393Y3536645D01*
X1411630Y3445408D01*
X1413814Y3442106D01*
X1414627Y3438194D01*
X1414627Y2965500D01*
X1414983Y2960471D01*
X1416659Y2954223D01*
X1419555Y2948533D01*
X1423924Y2943148D01*
X1598015Y2768803D01*
X1601876Y2765501D01*
X1607464Y2762300D01*
X1613509Y2760319D01*
X1620367Y2759608D01*
X1953006Y2759608D01*
X1956917Y2758795D01*
X1960219Y2756611D01*
X2026564Y2690266D01*
X2028748Y2686964D01*
X2029561Y2683052D01*
X2029561Y2650439D01*
X2028647Y2646273D01*
X2026107Y2642819D01*
X2022348Y2640736D01*
X2018080Y2640380D01*
X2014016Y2641803D01*
X2010664Y2645206D01*
X2001570Y2655570D01*
X1991207Y2664663D01*
X1979726Y2672334D01*
X1967331Y2678430D01*
X1954275Y2682900D01*
X1940763Y2685592D01*
X1926996Y2686456D01*
X1913229Y2685592D01*
X1899666Y2682900D01*
X1886610Y2678430D01*
X1874266Y2672334D01*
X1862785Y2664663D01*
X1852422Y2655570D01*
X1843328Y2645206D01*
X1835657Y2633726D01*
X1829562Y2621381D01*
X1825091Y2608275D01*
X1822399Y2594762D01*
X1821484Y2580995D01*
X1822399Y2567228D01*
X1825091Y2553716D01*
X1829562Y2540609D01*
X1835657Y2528265D01*
X1843328Y2516784D01*
X1852422Y2506421D01*
X1862785Y2497328D01*
X1874266Y2489657D01*
X1886610Y2483561D01*
X1899666Y2479090D01*
X1913229Y2476449D01*
X1926996Y2475534D01*
X1940763Y2476449D01*
X1954275Y2479090D01*
X1967331Y2483561D01*
X1979726Y2489657D01*
X1991207Y2497328D01*
X2001570Y2506421D01*
X2010918Y2517190D01*
X2014016Y2520188D01*
X2018080Y2521610D01*
X2022348Y2521254D01*
X2026107Y2519172D01*
X2028647Y2515768D01*
X2029561Y2511552D01*
X2029561Y2480360D01*
X2029917Y2475331D01*
X2031644Y2469032D01*
X2034489Y2463393D01*
X2038857Y2458008D01*
X2098141Y2398725D01*
X2101951Y2395474D01*
X2107590Y2392222D01*
X2113635Y2390241D01*
X2120493Y2389530D01*
X2142998Y2389530D01*
X2146909Y2388717D01*
X2150211Y2386533D01*
X2161895Y2375103D01*
X2164080Y2372106D01*
X2170226Y2365654D01*
X2177288Y2360625D01*
X2185111Y2357018D01*
X2193544Y2354986D01*
X2202180Y2354580D01*
X2210714Y2355799D01*
X2218893Y2358644D01*
X2226360Y2362962D01*
X2232914Y2368651D01*
X2238248Y2375408D01*
X2242210Y2383078D01*
X2244648Y2391410D01*
X2245461Y2399995D01*
X2244648Y2408580D01*
X2242210Y2416911D01*
X2238248Y2424582D01*
X2232914Y2431338D01*
X2226360Y2437028D01*
X2219147Y2441194D01*
X2215997Y2444038D01*
X2214270Y2447899D01*
X2214270Y2452116D01*
X2215997Y2455976D01*
X2219147Y2458770D01*
X2226360Y2462987D01*
X2232914Y2468626D01*
X2238248Y2475433D01*
X2242210Y2483104D01*
X2244648Y2491384D01*
X2245461Y2499969D01*
X2244648Y2508605D01*
X2242210Y2516886D01*
X2238248Y2524556D01*
X2232914Y2531364D01*
X2226360Y2537002D01*
X2218893Y2541320D01*
X2210714Y2544165D01*
X2202180Y2545384D01*
X2193544Y2544978D01*
X2185111Y2542946D01*
X2177288Y2539339D01*
X2170226Y2534361D01*
X2164283Y2528112D01*
X2159660Y2520899D01*
X2156460Y2517749D01*
X2152192Y2516276D01*
X2147722Y2516835D01*
X2143556Y2519578D01*
X2141372Y2522880D01*
X2140559Y2526792D01*
X2140559Y2719578D01*
X2140204Y2724607D01*
X2138476Y2730906D01*
X2135632Y2736545D01*
X2131263Y2741930D01*
X2001875Y2871317D01*
X1998065Y2874568D01*
X1992426Y2877820D01*
X1986381Y2879801D01*
X1979523Y2880512D01*
X1656791Y2880512D01*
X1652879Y2881325D01*
X1649577Y2883509D01*
X1533448Y2999638D01*
X1531264Y3002940D01*
X1530451Y3006852D01*
X1530451Y3479546D01*
X1530096Y3484575D01*
X1528368Y3490874D01*
X1525524Y3496513D01*
X1521155Y3501898D01*
X1371701Y3651351D01*
X1367891Y3654602D01*
X1362252Y3657854D01*
X1356207Y3659835D01*
X1349349Y3660546D01*
X1276807Y3660546D01*
X1272895Y3661359D01*
X1269593Y3663543D01*
X1243736Y3689400D01*
X1241399Y3693007D01*
X1240790Y3697274D01*
X1240942Y3700018D01*
X1240028Y3713784D01*
X1237335Y3727297D01*
X1232916Y3740353D01*
X1226820Y3752748D01*
X1219149Y3764229D01*
X1210056Y3774592D01*
X1199692Y3783685D01*
X1188212Y3791356D01*
X1175816Y3797452D01*
X1162761Y3801872D01*
X1149248Y3804564D01*
X1135481Y3805478D01*
X1121714Y3804564D01*
X1108202Y3801872D01*
X1095095Y3797452D01*
X1082751Y3791356D01*
X1071270Y3783685D01*
X1060907Y3774592D01*
X1051814Y3764229D01*
X1048969Y3759962D01*
X1045870Y3756964D01*
X1041857Y3755542D01*
X1037590Y3755898D01*
X1033830Y3757980D01*
X1031240Y3761435D01*
X1030376Y3765600D01*
X1030376Y3776218D01*
X1031138Y3780078D01*
X1033322Y3783380D01*
X1096060Y3846220D01*
X1099159Y3848354D01*
X1102817Y3849217D01*
X1121714Y3845407D01*
X1135481Y3844544D01*
X1149248Y3845407D01*
X1162761Y3848100D01*
X1175816Y3852570D01*
X1188212Y3858666D01*
X1199692Y3866337D01*
X1210056Y3875430D01*
X1219149Y3885793D01*
X1226820Y3897274D01*
X1232916Y3909618D01*
X1237335Y3922674D01*
X1240028Y3936237D01*
X1240942Y3950004D01*
X1240028Y3963771D01*
X1237335Y3977284D01*
X1232916Y3990340D01*
X1226820Y4002735D01*
X1219149Y4014215D01*
X1210056Y4024579D01*
X1199692Y4033672D01*
X1188212Y4041343D01*
X1175816Y4047439D01*
X1162761Y4051858D01*
X1149248Y4054551D01*
X1135481Y4055465D01*
X1121714Y4054551D01*
X1108202Y4051858D01*
X1095095Y4047439D01*
X1082751Y4041343D01*
X1071270Y4033672D01*
X1060907Y4024579D01*
X1051814Y4014215D01*
X1044143Y4002735D01*
X1038047Y3990340D01*
X1033576Y3977284D01*
X1030884Y3963771D01*
X1030020Y3950004D01*
X1030884Y3936237D01*
X1034694Y3917340D01*
X1033830Y3913682D01*
X1031748Y3910584D01*
X951484Y3830116D01*
X946200Y3823157D01*
X942492Y3815638D01*
X940155Y3807561D01*
X939342Y3798773D01*
X939342Y3378047D01*
X938580Y3374136D01*
X936396Y3370834D01*
X591566Y3025952D01*
X586282Y3018993D01*
X582574Y3011474D01*
X580237Y3003397D01*
X579424Y2994609D01*
X579475Y2803347D01*
X580694Y2794660D01*
X583336Y2786735D01*
X587451Y2779369D01*
X593090Y2772562D01*
X701446Y2664256D01*
X703630Y2660954D01*
X704392Y2657043D01*
X704494Y1960118D01*
X705307Y1951532D01*
X706323Y1947316D01*
X708812Y1940661D01*
X709472Y1937054D01*
X709472Y1263040D01*
X708710Y1259128D01*
X706475Y1255826D01*
X666496Y1215948D01*
X661212Y1208989D01*
X657504Y1201470D01*
X655167Y1193393D01*
X654354Y1184605D01*
X654405Y813104D01*
X655624Y804468D01*
X658317Y796544D01*
X662432Y789228D01*
X668121Y782421D01*
X725068Y725728D01*
X732282Y720648D01*
X740105Y717042D01*
X748538Y715010D01*
G37*
G36*
X4701997Y773531D02*
G01*
X4715764Y774446D01*
X4729276Y777138D01*
X4742332Y781558D01*
X4754727Y787654D01*
X4766208Y795324D01*
X4776571Y804418D01*
X4785664Y814781D01*
X4793335Y826262D01*
X4799431Y838657D01*
X4803851Y851712D01*
X4806543Y865225D01*
X4807458Y878992D01*
X4806543Y892759D01*
X4803851Y906322D01*
X4799431Y919378D01*
X4793335Y931722D01*
X4785664Y943203D01*
X4776571Y953566D01*
X4766208Y962660D01*
X4754727Y970330D01*
X4742332Y976426D01*
X4729276Y980897D01*
X4715764Y983589D01*
X4701997Y984453D01*
X4688230Y983589D01*
X4674666Y980897D01*
X4661611Y976426D01*
X4649266Y970330D01*
X4637786Y962660D01*
X4627422Y953566D01*
X4618329Y943203D01*
X4610658Y931722D01*
X4604562Y919378D01*
X4600092Y906322D01*
X4597400Y892759D01*
X4596485Y878992D01*
X4597400Y865225D01*
X4600092Y851712D01*
X4604562Y838657D01*
X4610658Y826262D01*
X4618329Y814781D01*
X4627422Y804418D01*
X4637786Y795324D01*
X4649266Y787654D01*
X4661611Y781558D01*
X4674666Y777138D01*
X4688230Y774446D01*
G37*
G36*
X4447997Y1027531D02*
G01*
X4461764Y1028446D01*
X4475276Y1031138D01*
X4488332Y1035558D01*
X4500727Y1041653D01*
X4512208Y1049324D01*
X4522571Y1058418D01*
X4531664Y1068781D01*
X4539335Y1080262D01*
X4545431Y1092657D01*
X4549851Y1105712D01*
X4552543Y1119225D01*
X4553458Y1132992D01*
X4552543Y1146759D01*
X4549851Y1160322D01*
X4545431Y1173378D01*
X4539335Y1185722D01*
X4531664Y1197203D01*
X4522571Y1207566D01*
X4512208Y1216660D01*
X4500727Y1224330D01*
X4488332Y1230426D01*
X4475276Y1234897D01*
X4461764Y1237589D01*
X4447997Y1238453D01*
X4434230Y1237589D01*
X4420666Y1234897D01*
X4407611Y1230426D01*
X4395266Y1224330D01*
X4383786Y1216660D01*
X4373422Y1207566D01*
X4364329Y1197203D01*
X4356658Y1185722D01*
X4350562Y1173378D01*
X4346092Y1160322D01*
X4343400Y1146759D01*
X4342485Y1132992D01*
X4343400Y1119225D01*
X4346092Y1105712D01*
X4350562Y1092657D01*
X4356658Y1080262D01*
X4364329Y1068781D01*
X4373422Y1058418D01*
X4383786Y1049324D01*
X4395266Y1041653D01*
X4407611Y1035558D01*
X4420666Y1031138D01*
X4434230Y1028446D01*
G37*
G36*
X4701997Y1027531D02*
G01*
X4715764Y1028446D01*
X4729276Y1031138D01*
X4742332Y1035558D01*
X4754727Y1041653D01*
X4766208Y1049324D01*
X4776571Y1058418D01*
X4785664Y1068781D01*
X4793335Y1080262D01*
X4799431Y1092657D01*
X4803851Y1105712D01*
X4806543Y1119225D01*
X4807458Y1132992D01*
X4806543Y1146759D01*
X4803851Y1160322D01*
X4799431Y1173378D01*
X4793335Y1185722D01*
X4785664Y1197203D01*
X4776571Y1207566D01*
X4766208Y1216660D01*
X4754727Y1224330D01*
X4742332Y1230426D01*
X4729276Y1234897D01*
X4715764Y1237589D01*
X4701997Y1238453D01*
X4688230Y1237589D01*
X4674666Y1234897D01*
X4661611Y1230426D01*
X4649266Y1224330D01*
X4637786Y1216660D01*
X4627422Y1207566D01*
X4618329Y1197203D01*
X4610658Y1185722D01*
X4604562Y1173378D01*
X4600092Y1160322D01*
X4597400Y1146759D01*
X4596485Y1132992D01*
X4597400Y1119225D01*
X4600092Y1105712D01*
X4604562Y1092657D01*
X4610658Y1080262D01*
X4618329Y1068781D01*
X4627422Y1058418D01*
X4637786Y1049324D01*
X4649266Y1041653D01*
X4661611Y1035558D01*
X4674666Y1031138D01*
X4688230Y1028446D01*
G37*
G36*
X524001Y1232103D02*
G01*
X533755Y1233322D01*
X543153Y1236218D01*
X551942Y1240637D01*
X559866Y1246479D01*
X566674Y1253591D01*
X572160Y1261719D01*
X576224Y1270660D01*
X578713Y1280210D01*
X579526Y1289964D01*
X578713Y1299768D01*
X576224Y1309319D01*
X572160Y1318260D01*
X566674Y1326388D01*
X559866Y1333500D01*
X551942Y1339342D01*
X543153Y1343761D01*
X533755Y1346657D01*
X524001Y1347876D01*
X514197Y1347470D01*
X504596Y1345387D01*
X495452Y1341729D01*
X487121Y1336598D01*
X479704Y1330096D01*
X473557Y1322425D01*
X468731Y1313840D01*
X465480Y1304594D01*
X463804Y1294892D01*
X463804Y1285087D01*
X465480Y1275384D01*
X468731Y1266139D01*
X473557Y1257554D01*
X479704Y1249883D01*
X487121Y1243380D01*
X495452Y1238250D01*
X504596Y1234592D01*
X514197Y1232509D01*
G37*
G36*
X524001Y1852117D02*
G01*
X533755Y1853336D01*
X543153Y1856232D01*
X551942Y1860651D01*
X559866Y1866493D01*
X566674Y1873605D01*
X572160Y1881733D01*
X576224Y1890674D01*
X578713Y1900224D01*
X579526Y1909978D01*
X578713Y1919782D01*
X576224Y1929333D01*
X572160Y1938274D01*
X566674Y1946402D01*
X559866Y1953514D01*
X551942Y1959356D01*
X543153Y1963775D01*
X533755Y1966671D01*
X524001Y1967890D01*
X514197Y1967484D01*
X504596Y1965401D01*
X495452Y1961743D01*
X487121Y1956612D01*
X479704Y1950110D01*
X473557Y1942439D01*
X468731Y1933854D01*
X465480Y1924608D01*
X463804Y1914906D01*
X463804Y1905101D01*
X465480Y1895398D01*
X468731Y1886153D01*
X473557Y1877568D01*
X479704Y1869897D01*
X487121Y1863394D01*
X495452Y1858264D01*
X504596Y1854606D01*
X514197Y1852523D01*
G37*
G36*
X407162Y2079599D02*
G01*
X415696Y2080818D01*
X423875Y2083663D01*
X431342Y2087981D01*
X437896Y2093620D01*
X443230Y2100427D01*
X447192Y2108098D01*
X449630Y2116378D01*
X450443Y2124964D01*
X449630Y2133600D01*
X447192Y2141880D01*
X443230Y2149551D01*
X441959Y2151176D01*
X440232Y2154428D01*
X439775Y2158034D01*
X440690Y2161590D01*
X442772Y2164638D01*
X469747Y2191613D01*
X473151Y2193848D01*
X477113Y2194610D01*
X485698Y2195830D01*
X493877Y2198674D01*
X501345Y2202992D01*
X507898Y2208631D01*
X513232Y2215438D01*
X517194Y2223109D01*
X519633Y2231390D01*
X520446Y2239975D01*
X519633Y2248611D01*
X517194Y2256891D01*
X513232Y2264562D01*
X507898Y2271369D01*
X501345Y2277008D01*
X493877Y2281326D01*
X485698Y2284171D01*
X477164Y2285390D01*
X468528Y2284984D01*
X460095Y2282952D01*
X452272Y2279345D01*
X445211Y2274366D01*
X439267Y2268118D01*
X434593Y2260803D01*
X431393Y2252827D01*
X429717Y2244344D01*
X429717Y2242058D01*
X428955Y2238197D01*
X426770Y2234895D01*
X383692Y2191816D01*
X380441Y2188006D01*
X377190Y2182368D01*
X375208Y2176322D01*
X374497Y2169464D01*
X374497Y2162657D01*
X373735Y2158847D01*
X371652Y2155647D01*
X369265Y2153107D01*
X364591Y2145792D01*
X361391Y2137816D01*
X359714Y2129332D01*
X359714Y2120646D01*
X361391Y2112162D01*
X364591Y2104186D01*
X369265Y2096871D01*
X375208Y2090623D01*
X382270Y2085644D01*
X390093Y2082038D01*
X398526Y2080006D01*
G37*
G36*
X524001Y2432100D02*
G01*
X533755Y2433320D01*
X543153Y2436215D01*
X551942Y2440635D01*
X559866Y2446477D01*
X566674Y2453589D01*
X572160Y2461717D01*
X576224Y2470658D01*
X578713Y2480208D01*
X579526Y2489962D01*
X578713Y2499766D01*
X576224Y2509316D01*
X572160Y2518257D01*
X566674Y2526385D01*
X559866Y2533497D01*
X551942Y2539339D01*
X543153Y2543759D01*
X533755Y2546654D01*
X524001Y2547874D01*
X514197Y2547467D01*
X504596Y2545384D01*
X495452Y2541727D01*
X487121Y2536596D01*
X479704Y2530094D01*
X473557Y2522423D01*
X468731Y2513838D01*
X465480Y2504592D01*
X463804Y2494889D01*
X463804Y2485085D01*
X465480Y2475382D01*
X468731Y2466136D01*
X473557Y2457551D01*
X479704Y2449880D01*
X487121Y2443378D01*
X495452Y2438247D01*
X504596Y2434590D01*
X514197Y2432507D01*
G37*
G36*
X1672996Y3113532D02*
G01*
X1686763Y3114446D01*
X1700275Y3117138D01*
X1713331Y3121558D01*
X1725726Y3127654D01*
X1737207Y3135325D01*
X1747570Y3144418D01*
X1756664Y3154781D01*
X1764334Y3166262D01*
X1770430Y3178657D01*
X1774850Y3191713D01*
X1777542Y3205226D01*
X1778457Y3218992D01*
X1777542Y3232759D01*
X1774850Y3246272D01*
X1770430Y3259378D01*
X1764334Y3271723D01*
X1756664Y3283204D01*
X1747570Y3293567D01*
X1737207Y3302660D01*
X1725726Y3310331D01*
X1713331Y3316427D01*
X1700275Y3320897D01*
X1686763Y3323590D01*
X1672996Y3324453D01*
X1659229Y3323590D01*
X1645666Y3320897D01*
X1632610Y3316427D01*
X1620266Y3310331D01*
X1608785Y3302660D01*
X1598422Y3293567D01*
X1589328Y3283204D01*
X1581658Y3271723D01*
X1575562Y3259378D01*
X1571091Y3246272D01*
X1568399Y3232759D01*
X1567484Y3218992D01*
X1568399Y3205226D01*
X1571091Y3191713D01*
X1575562Y3178657D01*
X1581658Y3166262D01*
X1589328Y3154781D01*
X1598422Y3144418D01*
X1608785Y3135325D01*
X1620266Y3127654D01*
X1632610Y3121558D01*
X1645666Y3117138D01*
X1659229Y3114446D01*
G37*
G36*
X1926996Y3113532D02*
G01*
X1940763Y3114446D01*
X1954275Y3117138D01*
X1967331Y3121558D01*
X1979726Y3127654D01*
X1991207Y3135325D01*
X2001570Y3144418D01*
X2010664Y3154781D01*
X2018334Y3166262D01*
X2024430Y3178657D01*
X2028850Y3191713D01*
X2031542Y3205226D01*
X2032457Y3218992D01*
X2031542Y3232759D01*
X2028850Y3246272D01*
X2024430Y3259378D01*
X2018334Y3271723D01*
X2010664Y3283204D01*
X2001570Y3293567D01*
X1992325Y3301695D01*
X1989836Y3304946D01*
X1988870Y3308908D01*
X1989480Y3312922D01*
X1991664Y3316376D01*
X1995017Y3318662D01*
X1999030Y3319475D01*
X2673146Y3319475D01*
X2677007Y3318713D01*
X2680309Y3316528D01*
X2728112Y3268726D01*
X2731973Y3265424D01*
X2737612Y3262172D01*
X2743657Y3260191D01*
X2750515Y3259480D01*
X2962198Y3259480D01*
X2966161Y3258667D01*
X2977235Y3250641D01*
X2985109Y3247034D01*
X2993491Y3245002D01*
X3002127Y3244596D01*
X3010662Y3245815D01*
X3018840Y3248660D01*
X3026359Y3252978D01*
X3032861Y3258616D01*
X3038195Y3265424D01*
X3042158Y3273094D01*
X3044596Y3281375D01*
X3045409Y3289960D01*
X3044596Y3298596D01*
X3042158Y3306876D01*
X3038195Y3314547D01*
X3032861Y3321354D01*
X3026359Y3326993D01*
X3018840Y3331311D01*
X3010662Y3334156D01*
X3002127Y3335375D01*
X2993491Y3334969D01*
X2985109Y3332937D01*
X2977235Y3329330D01*
X2966161Y3321304D01*
X2962198Y3320491D01*
X2766822Y3320491D01*
X2762910Y3321253D01*
X2759659Y3323488D01*
X2711805Y3371291D01*
X2707995Y3374542D01*
X2702356Y3377793D01*
X2696311Y3379774D01*
X2689453Y3380486D01*
X2008124Y3380486D01*
X2004110Y3381298D01*
X2000757Y3383635D01*
X1998624Y3387090D01*
X1997964Y3391103D01*
X1998980Y3395065D01*
X2001570Y3398418D01*
X2010664Y3408781D01*
X2018334Y3420262D01*
X2024430Y3432657D01*
X2028850Y3445713D01*
X2031542Y3459226D01*
X2032457Y3472992D01*
X2031542Y3486759D01*
X2028850Y3500272D01*
X2024430Y3513378D01*
X2018334Y3525723D01*
X2010664Y3537204D01*
X2001570Y3547567D01*
X1996897Y3551682D01*
X1994407Y3554933D01*
X1993442Y3558895D01*
X1994052Y3562908D01*
X1996236Y3566363D01*
X1999589Y3568700D01*
X2003552Y3569512D01*
X2718155Y3569512D01*
X2722016Y3568700D01*
X2725318Y3566515D01*
X2823159Y3468725D01*
X2826969Y3465423D01*
X2832608Y3462172D01*
X2838653Y3460191D01*
X2845511Y3459479D01*
X2862173Y3459479D01*
X2866186Y3458667D01*
X2877261Y3450640D01*
X2885084Y3447034D01*
X2893517Y3445001D01*
X2902153Y3444595D01*
X2910687Y3445814D01*
X2918866Y3448659D01*
X2926334Y3452977D01*
X2932887Y3458616D01*
X2938221Y3465423D01*
X2942183Y3473094D01*
X2944622Y3481374D01*
X2945434Y3489960D01*
X2944622Y3498596D01*
X2942183Y3506876D01*
X2938221Y3514547D01*
X2932887Y3521354D01*
X2926334Y3526993D01*
X2918866Y3531311D01*
X2910687Y3534156D01*
X2902153Y3535375D01*
X2893517Y3534968D01*
X2885084Y3532936D01*
X2877261Y3529329D01*
X2868320Y3522827D01*
X2865069Y3520998D01*
X2861360Y3520490D01*
X2857703Y3521354D01*
X2854655Y3523437D01*
X2756814Y3621278D01*
X2753004Y3624529D01*
X2747365Y3627780D01*
X2741320Y3629761D01*
X2734462Y3630472D01*
X2003552Y3630472D01*
X1999589Y3631285D01*
X1996236Y3633622D01*
X1994052Y3637076D01*
X1993392Y3641090D01*
X1994407Y3645052D01*
X1996846Y3648303D01*
X2001570Y3652418D01*
X2010664Y3662781D01*
X2018334Y3674262D01*
X2024430Y3686657D01*
X2028850Y3699713D01*
X2031542Y3713226D01*
X2032457Y3726992D01*
X2031542Y3740759D01*
X2028850Y3754272D01*
X2024430Y3767378D01*
X2018334Y3779723D01*
X2010664Y3791204D01*
X2004923Y3797757D01*
X2002993Y3801059D01*
X2002434Y3804869D01*
X2003298Y3808628D01*
X2005533Y3811778D01*
X2008784Y3813860D01*
X2012543Y3814622D01*
X2772105Y3814622D01*
X2776321Y3813708D01*
X2785160Y3809644D01*
X2793542Y3807612D01*
X2802178Y3807206D01*
X2810713Y3808425D01*
X2818892Y3811270D01*
X2826359Y3815587D01*
X2832912Y3821226D01*
X2838246Y3828034D01*
X2842209Y3835704D01*
X2844647Y3843985D01*
X2845460Y3852570D01*
X2844647Y3861206D01*
X2842209Y3869486D01*
X2838246Y3877157D01*
X2832912Y3883964D01*
X2826359Y3889603D01*
X2818892Y3893921D01*
X2810713Y3896766D01*
X2802178Y3897985D01*
X2793542Y3897579D01*
X2785110Y3895547D01*
X2776372Y3891534D01*
X2772105Y3890619D01*
X2010105Y3890619D01*
X2006346Y3891330D01*
X2003094Y3893413D01*
X2000859Y3896563D01*
X1999996Y3900322D01*
X2000554Y3904132D01*
X2002485Y3907485D01*
X2010664Y3916781D01*
X2018334Y3928262D01*
X2024430Y3940657D01*
X2028850Y3953713D01*
X2031542Y3967226D01*
X2032457Y3980992D01*
X2031542Y3994759D01*
X2028850Y4008272D01*
X2024430Y4021378D01*
X2018334Y4033723D01*
X2010664Y4045204D01*
X2001570Y4055567D01*
X1991207Y4064660D01*
X1979726Y4072331D01*
X1967331Y4078427D01*
X1954275Y4082897D01*
X1940763Y4085590D01*
X1926996Y4086453D01*
X1913229Y4085590D01*
X1899666Y4082897D01*
X1886610Y4078427D01*
X1874266Y4072331D01*
X1862785Y4064660D01*
X1852422Y4055567D01*
X1843328Y4045204D01*
X1835657Y4033723D01*
X1829562Y4021378D01*
X1825091Y4008272D01*
X1822399Y3994759D01*
X1821484Y3980992D01*
X1822399Y3967226D01*
X1825091Y3953713D01*
X1829562Y3940657D01*
X1835657Y3928262D01*
X1843328Y3916781D01*
X1851456Y3907485D01*
X1853438Y3904132D01*
X1853996Y3900322D01*
X1853082Y3896563D01*
X1850847Y3893413D01*
X1847646Y3891330D01*
X1843836Y3890619D01*
X1341475Y3890619D01*
X1338884Y3890975D01*
X1336395Y3891991D01*
X1328877Y3896309D01*
X1320698Y3899154D01*
X1312164Y3900373D01*
X1303528Y3899966D01*
X1295095Y3897934D01*
X1287272Y3894328D01*
X1280210Y3889349D01*
X1274267Y3883101D01*
X1269593Y3875786D01*
X1266393Y3867810D01*
X1264716Y3859326D01*
X1264716Y3850640D01*
X1266393Y3842156D01*
X1269593Y3834180D01*
X1274267Y3826865D01*
X1280210Y3820617D01*
X1287272Y3815638D01*
X1295095Y3812032D01*
X1303528Y3810000D01*
X1312164Y3809593D01*
X1320698Y3810812D01*
X1329893Y3814064D01*
X1333246Y3814622D01*
X1587398Y3814622D01*
X1591208Y3813860D01*
X1594408Y3811778D01*
X1596644Y3808628D01*
X1597558Y3804869D01*
X1596999Y3801059D01*
X1595018Y3797757D01*
X1589328Y3791204D01*
X1581658Y3779723D01*
X1575562Y3767378D01*
X1571091Y3754272D01*
X1568399Y3740759D01*
X1567484Y3726992D01*
X1568399Y3713226D01*
X1571091Y3699713D01*
X1575562Y3686657D01*
X1581658Y3674262D01*
X1589328Y3662781D01*
X1598422Y3652418D01*
X1608785Y3643325D01*
X1620266Y3635654D01*
X1632610Y3629558D01*
X1645666Y3625138D01*
X1659229Y3622446D01*
X1672996Y3621532D01*
X1686763Y3622446D01*
X1700275Y3625138D01*
X1713331Y3629558D01*
X1716176Y3630929D01*
X1720189Y3631996D01*
X1724355Y3631285D01*
X1727860Y3628999D01*
X1778152Y3578707D01*
X1781962Y3575456D01*
X1787601Y3572205D01*
X1793646Y3570224D01*
X1800504Y3569512D01*
X1850389Y3569512D01*
X1854403Y3568700D01*
X1857756Y3566363D01*
X1859889Y3562908D01*
X1860550Y3558895D01*
X1859534Y3554933D01*
X1857095Y3551682D01*
X1852422Y3547567D01*
X1843328Y3537204D01*
X1835657Y3525723D01*
X1829562Y3513378D01*
X1825091Y3500272D01*
X1822399Y3486759D01*
X1821484Y3472992D01*
X1822399Y3459226D01*
X1825091Y3445713D01*
X1829562Y3432657D01*
X1835657Y3420262D01*
X1843328Y3408781D01*
X1852523Y3398265D01*
X1855012Y3395065D01*
X1855978Y3391103D01*
X1855368Y3387090D01*
X1853184Y3383635D01*
X1849831Y3381298D01*
X1845868Y3380486D01*
X1812848Y3380486D01*
X1808937Y3381248D01*
X1805635Y3383483D01*
X1770989Y3418128D01*
X1768703Y3421634D01*
X1767992Y3425748D01*
X1769059Y3429812D01*
X1770430Y3432657D01*
X1774850Y3445713D01*
X1777542Y3459226D01*
X1778457Y3472992D01*
X1777542Y3486759D01*
X1774850Y3500272D01*
X1770430Y3513378D01*
X1764334Y3525723D01*
X1756664Y3537204D01*
X1747570Y3547567D01*
X1737207Y3556660D01*
X1725726Y3564331D01*
X1713331Y3570427D01*
X1700275Y3574897D01*
X1686763Y3577590D01*
X1672996Y3578453D01*
X1659229Y3577590D01*
X1645666Y3574897D01*
X1632610Y3570427D01*
X1620266Y3564331D01*
X1608785Y3556660D01*
X1598422Y3547567D01*
X1589328Y3537204D01*
X1581658Y3525723D01*
X1575562Y3513378D01*
X1571091Y3500272D01*
X1568399Y3486759D01*
X1567484Y3472992D01*
X1568399Y3459226D01*
X1571091Y3445713D01*
X1575562Y3432657D01*
X1581658Y3420262D01*
X1589328Y3408781D01*
X1598422Y3398418D01*
X1608785Y3389325D01*
X1620266Y3381654D01*
X1632610Y3375558D01*
X1645666Y3371138D01*
X1659229Y3368446D01*
X1672996Y3367532D01*
X1686763Y3368446D01*
X1700275Y3371138D01*
X1713331Y3375558D01*
X1716176Y3376929D01*
X1720189Y3377996D01*
X1724355Y3377285D01*
X1727860Y3374999D01*
X1774139Y3328720D01*
X1778000Y3325418D01*
X1783588Y3322167D01*
X1789684Y3320237D01*
X1796542Y3319475D01*
X1854962Y3319475D01*
X1858924Y3318662D01*
X1862277Y3316376D01*
X1864461Y3312922D01*
X1865122Y3308908D01*
X1864106Y3304946D01*
X1861667Y3301695D01*
X1852422Y3293567D01*
X1843328Y3283204D01*
X1835657Y3271723D01*
X1829562Y3259378D01*
X1825091Y3246272D01*
X1822399Y3232759D01*
X1821484Y3218992D01*
X1822399Y3205226D01*
X1825091Y3191713D01*
X1829562Y3178657D01*
X1835657Y3166262D01*
X1843328Y3154781D01*
X1852422Y3144418D01*
X1862785Y3135325D01*
X1874266Y3127654D01*
X1886610Y3121558D01*
X1899666Y3117138D01*
X1913229Y3114446D01*
G37*
G36*
X3252165Y3144570D02*
G01*
X3260699Y3145790D01*
X3268878Y3148634D01*
X3276346Y3152952D01*
X3282899Y3158642D01*
X3288233Y3165398D01*
X3292195Y3173069D01*
X3294634Y3181400D01*
X3295446Y3189986D01*
X3294634Y3198571D01*
X3292195Y3206902D01*
X3288233Y3214573D01*
X3282645Y3221634D01*
X3281019Y3224580D01*
X3280460Y3227933D01*
X3280460Y3453180D01*
X3281273Y3457041D01*
X3283458Y3460343D01*
X3321253Y3498138D01*
X3324555Y3501999D01*
X3327806Y3507638D01*
X3329787Y3513683D01*
X3330498Y3520541D01*
X3330498Y4359097D01*
X3331260Y4363008D01*
X3333496Y4366310D01*
X3336848Y4368495D01*
X3340760Y4369257D01*
X3344672Y4368393D01*
X3347923Y4366158D01*
X3352698Y4361230D01*
X3363772Y4352391D01*
X3375863Y4345076D01*
X3388817Y4339336D01*
X3402380Y4335272D01*
X3416401Y4333036D01*
X3430524Y4332579D01*
X3444595Y4333951D01*
X3458413Y4337100D01*
X3471722Y4341977D01*
X3484270Y4348530D01*
X3495852Y4356608D01*
X3502507Y4362653D01*
X3505860Y4364685D01*
X3509670Y4365294D01*
X3513480Y4364431D01*
X3516629Y4362196D01*
X3518763Y4358944D01*
X3519525Y4355134D01*
X3519525Y3596894D01*
X3518712Y3592982D01*
X3516528Y3589680D01*
X3378606Y3451758D01*
X3375355Y3447948D01*
X3372104Y3442309D01*
X3370122Y3436264D01*
X3369411Y3429406D01*
X3369411Y3227527D01*
X3368649Y3223768D01*
X3366566Y3220516D01*
X3364280Y3218078D01*
X3359607Y3210814D01*
X3356406Y3202787D01*
X3354730Y3194304D01*
X3354730Y3185668D01*
X3356406Y3177184D01*
X3359607Y3169158D01*
X3364280Y3161893D01*
X3370224Y3155645D01*
X3377285Y3150616D01*
X3385108Y3147009D01*
X3393541Y3144977D01*
X3402177Y3144570D01*
X3410712Y3145790D01*
X3418890Y3148634D01*
X3426358Y3152952D01*
X3432911Y3158642D01*
X3438245Y3165398D01*
X3442208Y3173069D01*
X3444646Y3181400D01*
X3445459Y3189986D01*
X3444646Y3198571D01*
X3442208Y3206902D01*
X3438245Y3214573D01*
X3432556Y3221786D01*
X3430930Y3224733D01*
X3430371Y3228035D01*
X3430371Y3413048D01*
X3431184Y3416960D01*
X3433368Y3420262D01*
X3571290Y3558184D01*
X3574542Y3561994D01*
X3577793Y3567633D01*
X3579774Y3573678D01*
X3580485Y3580536D01*
X3580485Y4363161D01*
X3581298Y4367072D01*
X3583533Y4370425D01*
X3586835Y4372610D01*
X3590747Y4373321D01*
X3594658Y4372508D01*
X3597960Y4370273D01*
X3606698Y4361230D01*
X3617772Y4352391D01*
X3629863Y4345076D01*
X3642817Y4339336D01*
X3656380Y4335272D01*
X3670401Y4333036D01*
X3684524Y4332579D01*
X3698595Y4333951D01*
X3712413Y4337100D01*
X3725722Y4341977D01*
X3738270Y4348530D01*
X3749852Y4356608D01*
X3760368Y4366158D01*
X3769512Y4376928D01*
X3777234Y4388764D01*
X3783380Y4401566D01*
X3787851Y4414977D01*
X3790543Y4428896D01*
X3791458Y4443018D01*
X3790543Y4457141D01*
X3787851Y4471009D01*
X3783380Y4484471D01*
X3777234Y4497222D01*
X3769512Y4509058D01*
X3760368Y4519879D01*
X3749852Y4529378D01*
X3738270Y4537456D01*
X3725722Y4544009D01*
X3712413Y4548886D01*
X3698595Y4552086D01*
X3684524Y4553407D01*
X3670401Y4552950D01*
X3656380Y4550714D01*
X3642817Y4546701D01*
X3629863Y4540961D01*
X3617772Y4533595D01*
X3606698Y4524806D01*
X3597960Y4515764D01*
X3594658Y4513478D01*
X3590747Y4512665D01*
X3586835Y4513376D01*
X3583533Y4515612D01*
X3581298Y4518914D01*
X3580485Y4522825D01*
X3580485Y4573524D01*
X3580129Y4578553D01*
X3578453Y4584801D01*
X3575558Y4590491D01*
X3571240Y4595825D01*
X3528720Y4638446D01*
X3526434Y4641900D01*
X3525723Y4646015D01*
X3526739Y4650028D01*
X3529380Y4655566D01*
X3533851Y4668977D01*
X3536543Y4682896D01*
X3537458Y4697018D01*
X3536543Y4711141D01*
X3533851Y4725009D01*
X3529380Y4738471D01*
X3523234Y4751222D01*
X3515512Y4763058D01*
X3506368Y4773879D01*
X3495852Y4783378D01*
X3484270Y4791456D01*
X3471722Y4798009D01*
X3458413Y4802886D01*
X3444595Y4806086D01*
X3430524Y4807407D01*
X3416401Y4806950D01*
X3402380Y4804714D01*
X3388817Y4800701D01*
X3375863Y4794961D01*
X3363772Y4787595D01*
X3352698Y4778806D01*
X3342843Y4768596D01*
X3334410Y4757267D01*
X3327450Y4744923D01*
X3322116Y4731816D01*
X3318560Y4718100D01*
X3316732Y4704080D01*
X3316732Y4689906D01*
X3318560Y4675886D01*
X3322116Y4662170D01*
X3327450Y4649063D01*
X3334410Y4636719D01*
X3342843Y4625390D01*
X3352698Y4615230D01*
X3363772Y4606391D01*
X3375863Y4599076D01*
X3388817Y4593336D01*
X3402380Y4589272D01*
X3416401Y4587036D01*
X3430524Y4586579D01*
X3444595Y4587951D01*
X3458413Y4591100D01*
X3471722Y4595977D01*
X3473754Y4597044D01*
X3477869Y4598212D01*
X3482086Y4597552D01*
X3485642Y4595215D01*
X3516528Y4564278D01*
X3518712Y4560976D01*
X3519525Y4557115D01*
X3519525Y4530852D01*
X3518763Y4527042D01*
X3516629Y4523790D01*
X3513480Y4521555D01*
X3509670Y4520692D01*
X3505860Y4521301D01*
X3502507Y4523333D01*
X3495852Y4529378D01*
X3484270Y4537456D01*
X3471722Y4544009D01*
X3458413Y4548886D01*
X3444595Y4552086D01*
X3430524Y4553407D01*
X3416401Y4552950D01*
X3402380Y4550714D01*
X3388817Y4546701D01*
X3375863Y4540961D01*
X3363772Y4533595D01*
X3352698Y4524806D01*
X3347923Y4519879D01*
X3344672Y4517593D01*
X3340760Y4516780D01*
X3336848Y4517491D01*
X3333496Y4519726D01*
X3331260Y4523028D01*
X3330498Y4526940D01*
X3330498Y4569612D01*
X3330092Y4574641D01*
X3328415Y4580890D01*
X3325520Y4586579D01*
X3321151Y4591964D01*
X3274720Y4638446D01*
X3272434Y4641900D01*
X3271723Y4645964D01*
X3272739Y4650028D01*
X3275380Y4655566D01*
X3279851Y4668977D01*
X3282543Y4682896D01*
X3283458Y4697018D01*
X3282543Y4711141D01*
X3279851Y4725009D01*
X3275380Y4738471D01*
X3269234Y4751222D01*
X3261512Y4763058D01*
X3252368Y4773879D01*
X3241852Y4783378D01*
X3230270Y4791456D01*
X3217722Y4798009D01*
X3204413Y4802886D01*
X3190595Y4806086D01*
X3176524Y4807407D01*
X3162401Y4806950D01*
X3148380Y4804714D01*
X3134817Y4800701D01*
X3121863Y4794961D01*
X3109772Y4787595D01*
X3098698Y4778806D01*
X3088843Y4768596D01*
X3080410Y4757267D01*
X3073450Y4744923D01*
X3068116Y4731816D01*
X3064560Y4718100D01*
X3062732Y4704080D01*
X3062732Y4689906D01*
X3064560Y4675886D01*
X3068116Y4662170D01*
X3073450Y4649063D01*
X3080410Y4636719D01*
X3088843Y4625390D01*
X3098698Y4615230D01*
X3109772Y4606391D01*
X3121863Y4599076D01*
X3134817Y4593336D01*
X3148380Y4589272D01*
X3162401Y4587036D01*
X3176524Y4586579D01*
X3190595Y4587951D01*
X3204413Y4591100D01*
X3217722Y4595977D01*
X3219754Y4597044D01*
X3223869Y4598162D01*
X3228035Y4597552D01*
X3231642Y4595215D01*
X3266490Y4560366D01*
X3268726Y4557064D01*
X3269488Y4553153D01*
X3269488Y4527245D01*
X3268726Y4523435D01*
X3266643Y4520184D01*
X3263442Y4517948D01*
X3259632Y4517085D01*
X3255822Y4517694D01*
X3252520Y4519726D01*
X3241852Y4529378D01*
X3230270Y4537456D01*
X3217722Y4544009D01*
X3204413Y4548886D01*
X3190595Y4552086D01*
X3176524Y4553407D01*
X3162401Y4552950D01*
X3148380Y4550714D01*
X3134817Y4546701D01*
X3121863Y4540961D01*
X3109772Y4533595D01*
X3098698Y4524806D01*
X3088843Y4514596D01*
X3080410Y4503267D01*
X3073450Y4490923D01*
X3068116Y4477816D01*
X3064560Y4464100D01*
X3062732Y4450080D01*
X3062732Y4435906D01*
X3064560Y4421886D01*
X3068116Y4408170D01*
X3073450Y4395063D01*
X3080410Y4382719D01*
X3088843Y4371390D01*
X3098698Y4361230D01*
X3109772Y4352391D01*
X3121863Y4345076D01*
X3134817Y4339336D01*
X3148380Y4335272D01*
X3162401Y4333036D01*
X3176524Y4332579D01*
X3190595Y4333951D01*
X3204413Y4337100D01*
X3217722Y4341977D01*
X3230270Y4348530D01*
X3241852Y4356608D01*
X3252520Y4366260D01*
X3255822Y4368292D01*
X3259632Y4368901D01*
X3263442Y4368038D01*
X3266643Y4365802D01*
X3268726Y4362551D01*
X3269488Y4358741D01*
X3269488Y3536848D01*
X3268726Y3532936D01*
X3266490Y3529634D01*
X3228695Y3491839D01*
X3225444Y3488029D01*
X3222193Y3482390D01*
X3220212Y3476345D01*
X3219500Y3469487D01*
X3219500Y3227628D01*
X3218738Y3223869D01*
X3216656Y3220618D01*
X3214268Y3218078D01*
X3209594Y3210814D01*
X3206394Y3202787D01*
X3204718Y3194304D01*
X3204718Y3185668D01*
X3206394Y3177184D01*
X3209594Y3169158D01*
X3214268Y3161893D01*
X3220212Y3155645D01*
X3227273Y3150616D01*
X3235096Y3147009D01*
X3243529Y3144977D01*
G37*
G36*
X4447997Y3576320D02*
G01*
X4461154Y3577234D01*
X4474057Y3579926D01*
X4486503Y3584346D01*
X4498238Y3590391D01*
X4509008Y3598011D01*
X4518660Y3607003D01*
X4526991Y3617264D01*
X4533849Y3628491D01*
X4539081Y3640632D01*
X4542637Y3653332D01*
X4544415Y3666388D01*
X4544415Y3679596D01*
X4542637Y3692651D01*
X4539081Y3705351D01*
X4533849Y3717493D01*
X4526991Y3728720D01*
X4518660Y3738981D01*
X4509008Y3747973D01*
X4498238Y3755593D01*
X4486503Y3761638D01*
X4474057Y3766058D01*
X4461154Y3768750D01*
X4447997Y3769664D01*
X4434840Y3768750D01*
X4421886Y3766058D01*
X4409490Y3761638D01*
X4397756Y3755593D01*
X4386986Y3747973D01*
X4377334Y3738981D01*
X4369003Y3728720D01*
X4362145Y3717493D01*
X4356912Y3705351D01*
X4353356Y3692651D01*
X4351528Y3679596D01*
X4351528Y3666388D01*
X4353356Y3653332D01*
X4356912Y3640632D01*
X4362145Y3628491D01*
X4369003Y3617264D01*
X4377334Y3607003D01*
X4386986Y3598011D01*
X4397756Y3590391D01*
X4409490Y3584346D01*
X4421886Y3579926D01*
X4434840Y3577234D01*
G37*
G36*
X4372356Y3830269D02*
G01*
X4523638Y3830269D01*
X4528718Y3830878D01*
X4533036Y3832402D01*
X4536948Y3834841D01*
X4540148Y3838041D01*
X4542586Y3841902D01*
X4544110Y3846220D01*
X4544669Y3851351D01*
X4544669Y4002633D01*
X4544110Y4007764D01*
X4542586Y4012082D01*
X4540148Y4015943D01*
X4536948Y4019143D01*
X4533036Y4021582D01*
X4528718Y4023106D01*
X4523638Y4023664D01*
X4372356Y4023664D01*
X4367225Y4023106D01*
X4362907Y4021582D01*
X4359046Y4019143D01*
X4355795Y4015943D01*
X4353407Y4012082D01*
X4351883Y4007764D01*
X4351274Y4002633D01*
X4351274Y3851351D01*
X4351883Y3846220D01*
X4353407Y3841902D01*
X4355795Y3838041D01*
X4359046Y3834841D01*
X4362907Y3832402D01*
X4367225Y3830878D01*
G37*
G36*
X4701997Y3830320D02*
G01*
X4715154Y3831234D01*
X4728057Y3833926D01*
X4740503Y3838346D01*
X4752238Y3844391D01*
X4763008Y3852011D01*
X4772660Y3861003D01*
X4780991Y3871264D01*
X4787849Y3882491D01*
X4793081Y3894632D01*
X4796637Y3907332D01*
X4798415Y3920388D01*
X4798415Y3933596D01*
X4796637Y3946651D01*
X4793081Y3959351D01*
X4787849Y3971493D01*
X4780991Y3982720D01*
X4772660Y3992981D01*
X4763008Y4001973D01*
X4752238Y4009593D01*
X4740503Y4015638D01*
X4728057Y4020058D01*
X4715154Y4022750D01*
X4701997Y4023664D01*
X4688840Y4022750D01*
X4675886Y4020058D01*
X4663490Y4015638D01*
X4651756Y4009593D01*
X4640986Y4001973D01*
X4631334Y3992981D01*
X4623003Y3982720D01*
X4616145Y3971493D01*
X4610912Y3959351D01*
X4607356Y3946651D01*
X4605528Y3933596D01*
X4605528Y3920388D01*
X4607356Y3907332D01*
X4610912Y3894632D01*
X4616145Y3882491D01*
X4623003Y3871264D01*
X4631334Y3861003D01*
X4640986Y3852011D01*
X4651756Y3844391D01*
X4663490Y3838346D01*
X4675886Y3833926D01*
X4688840Y3831234D01*
G37*
G36*
X2668524Y4332579D02*
G01*
X2682595Y4333951D01*
X2696413Y4337100D01*
X2709722Y4341977D01*
X2722270Y4348530D01*
X2733852Y4356608D01*
X2744368Y4366158D01*
X2753512Y4376928D01*
X2761234Y4388764D01*
X2767380Y4401566D01*
X2771851Y4414977D01*
X2774543Y4428896D01*
X2775458Y4443018D01*
X2774543Y4457141D01*
X2771851Y4471009D01*
X2767380Y4484471D01*
X2761234Y4497222D01*
X2753512Y4509058D01*
X2744368Y4519879D01*
X2733852Y4529378D01*
X2722270Y4537456D01*
X2709722Y4544009D01*
X2696413Y4548886D01*
X2682595Y4552086D01*
X2668524Y4553407D01*
X2654401Y4552950D01*
X2640380Y4550714D01*
X2626817Y4546701D01*
X2613863Y4540961D01*
X2601772Y4533595D01*
X2590698Y4524806D01*
X2580843Y4514596D01*
X2572410Y4503267D01*
X2565450Y4490923D01*
X2560116Y4477816D01*
X2556560Y4464100D01*
X2554732Y4450080D01*
X2554732Y4435906D01*
X2556560Y4421886D01*
X2560116Y4408170D01*
X2565450Y4395063D01*
X2572410Y4382719D01*
X2580843Y4371390D01*
X2590698Y4361230D01*
X2601772Y4352391D01*
X2613863Y4345076D01*
X2626817Y4339336D01*
X2640380Y4335272D01*
X2654401Y4333036D01*
G37*
G36*
X3938524Y4332579D02*
G01*
X3952595Y4333951D01*
X3966413Y4337100D01*
X3979722Y4341977D01*
X3992270Y4348530D01*
X4003852Y4356608D01*
X4014368Y4366158D01*
X4023512Y4376928D01*
X4031234Y4388764D01*
X4037380Y4401566D01*
X4041851Y4414977D01*
X4044543Y4428896D01*
X4045458Y4443018D01*
X4044543Y4457141D01*
X4041851Y4471009D01*
X4037380Y4484471D01*
X4031234Y4497222D01*
X4023512Y4509058D01*
X4014368Y4519879D01*
X4003852Y4529378D01*
X3992270Y4537456D01*
X3979722Y4544009D01*
X3966413Y4548886D01*
X3952595Y4552086D01*
X3938524Y4553407D01*
X3924401Y4552950D01*
X3910380Y4550714D01*
X3896817Y4546701D01*
X3883863Y4540961D01*
X3871772Y4533595D01*
X3860698Y4524806D01*
X3850843Y4514596D01*
X3842410Y4503267D01*
X3835450Y4490923D01*
X3830116Y4477816D01*
X3826560Y4464100D01*
X3824732Y4450080D01*
X3824732Y4435906D01*
X3826560Y4421886D01*
X3830116Y4408170D01*
X3835450Y4395063D01*
X3842410Y4382719D01*
X3850843Y4371390D01*
X3860698Y4361230D01*
X3871772Y4352391D01*
X3883863Y4345076D01*
X3896817Y4339336D01*
X3910380Y4335272D01*
X3924401Y4333036D01*
G37*
G36*
X2922524Y4332579D02*
G01*
X2936595Y4333951D01*
X2950413Y4337100D01*
X2963722Y4341977D01*
X2976270Y4348530D01*
X2987852Y4356608D01*
X2998368Y4366158D01*
X3007512Y4376928D01*
X3015234Y4388764D01*
X3021380Y4401566D01*
X3025851Y4414977D01*
X3028543Y4428896D01*
X3029458Y4443018D01*
X3028543Y4457141D01*
X3025851Y4471009D01*
X3021380Y4484471D01*
X3015234Y4497222D01*
X3007512Y4509058D01*
X2998368Y4519879D01*
X2987852Y4529378D01*
X2976270Y4537456D01*
X2963722Y4544009D01*
X2950413Y4548886D01*
X2936595Y4552086D01*
X2922524Y4553407D01*
X2908401Y4552950D01*
X2894380Y4550714D01*
X2880817Y4546701D01*
X2867863Y4540961D01*
X2855772Y4533595D01*
X2844698Y4524806D01*
X2834843Y4514596D01*
X2826410Y4503267D01*
X2819450Y4490923D01*
X2814116Y4477816D01*
X2810560Y4464100D01*
X2808732Y4450080D01*
X2808732Y4435906D01*
X2810560Y4421886D01*
X2814116Y4408170D01*
X2819450Y4395063D01*
X2826410Y4382719D01*
X2834843Y4371390D01*
X2844698Y4361230D01*
X2855772Y4352391D01*
X2867863Y4345076D01*
X2880817Y4339336D01*
X2894380Y4335272D01*
X2908401Y4333036D01*
G37*
G36*
X4699965Y4504537D02*
G01*
X4719116Y4505452D01*
X4738116Y4508296D01*
X4756708Y4512919D01*
X4774793Y4519422D01*
X4792116Y4527600D01*
X4808575Y4537456D01*
X4823968Y4548886D01*
X4838192Y4561789D01*
X4851095Y4576013D01*
X4862525Y4591405D01*
X4872380Y4607864D01*
X4880559Y4625187D01*
X4887061Y4643272D01*
X4891684Y4661865D01*
X4894529Y4680864D01*
X4895443Y4700016D01*
X4894529Y4719167D01*
X4891684Y4738116D01*
X4887061Y4756759D01*
X4880559Y4774793D01*
X4872380Y4792167D01*
X4862525Y4808626D01*
X4851095Y4824018D01*
X4838192Y4838242D01*
X4823968Y4851095D01*
X4808575Y4862525D01*
X4792116Y4872380D01*
X4774793Y4880610D01*
X4756708Y4887061D01*
X4738116Y4891735D01*
X4719116Y4894529D01*
X4699965Y4895494D01*
X4680813Y4894529D01*
X4661814Y4891735D01*
X4643221Y4887061D01*
X4625187Y4880610D01*
X4607814Y4872380D01*
X4591354Y4862525D01*
X4575962Y4851095D01*
X4561738Y4838242D01*
X4548886Y4824018D01*
X4537456Y4808626D01*
X4527550Y4792167D01*
X4519371Y4774793D01*
X4512919Y4756759D01*
X4508246Y4738116D01*
X4505452Y4719167D01*
X4504486Y4700016D01*
X4505452Y4680864D01*
X4508246Y4661865D01*
X4512919Y4643272D01*
X4519371Y4625187D01*
X4527550Y4607864D01*
X4537456Y4591405D01*
X4548886Y4576013D01*
X4561738Y4561789D01*
X4575962Y4548886D01*
X4591354Y4537456D01*
X4607814Y4527600D01*
X4625187Y4519422D01*
X4643221Y4512919D01*
X4661814Y4508296D01*
X4680813Y4505452D01*
G37*
G36*
X299974Y4504537D02*
G01*
X319125Y4505452D01*
X338124Y4508296D01*
X356717Y4512919D01*
X374802Y4519422D01*
X392125Y4527600D01*
X408584Y4537456D01*
X423976Y4548886D01*
X438200Y4561789D01*
X451104Y4576013D01*
X462534Y4591405D01*
X472389Y4607864D01*
X480568Y4625187D01*
X487019Y4643272D01*
X491693Y4661865D01*
X494538Y4680864D01*
X495452Y4700016D01*
X494538Y4719167D01*
X491693Y4738116D01*
X487019Y4756759D01*
X480568Y4774793D01*
X472389Y4792167D01*
X462534Y4808626D01*
X451104Y4824018D01*
X438200Y4838242D01*
X423976Y4851095D01*
X408584Y4862525D01*
X392125Y4872380D01*
X374802Y4880610D01*
X356717Y4887061D01*
X338124Y4891735D01*
X319125Y4894529D01*
X299974Y4895494D01*
X280822Y4894529D01*
X261823Y4891735D01*
X243230Y4887061D01*
X225145Y4880610D01*
X207822Y4872380D01*
X191363Y4862525D01*
X175971Y4851095D01*
X161747Y4838242D01*
X148844Y4824018D01*
X137414Y4808626D01*
X127558Y4792167D01*
X119380Y4774793D01*
X112928Y4756759D01*
X108254Y4738116D01*
X105410Y4719167D01*
X104495Y4700016D01*
X105410Y4680864D01*
X108254Y4661865D01*
X112928Y4643272D01*
X119380Y4625187D01*
X127558Y4607864D01*
X137414Y4591405D01*
X148844Y4576013D01*
X161747Y4561789D01*
X175971Y4548886D01*
X191363Y4537456D01*
X207822Y4527600D01*
X225145Y4519422D01*
X243230Y4512919D01*
X261823Y4508296D01*
X280822Y4505452D01*
G37*
G36*
X4192524Y4586579D02*
G01*
X4206595Y4587951D01*
X4220413Y4591100D01*
X4233722Y4595977D01*
X4246270Y4602530D01*
X4257852Y4610608D01*
X4268368Y4620158D01*
X4277512Y4630928D01*
X4285234Y4642764D01*
X4291380Y4655566D01*
X4295851Y4668977D01*
X4298543Y4682896D01*
X4299458Y4697018D01*
X4298543Y4711141D01*
X4295851Y4725009D01*
X4291380Y4738471D01*
X4285234Y4751222D01*
X4277512Y4763058D01*
X4268368Y4773879D01*
X4257852Y4783378D01*
X4246270Y4791456D01*
X4233722Y4798009D01*
X4220413Y4802886D01*
X4206595Y4806086D01*
X4192524Y4807407D01*
X4178401Y4806950D01*
X4164380Y4804714D01*
X4150817Y4800701D01*
X4137863Y4794961D01*
X4125772Y4787595D01*
X4114698Y4778806D01*
X4104843Y4768596D01*
X4096410Y4757267D01*
X4089450Y4744923D01*
X4084116Y4731816D01*
X4080560Y4718100D01*
X4078732Y4704080D01*
X4078732Y4689906D01*
X4080560Y4675886D01*
X4084116Y4662170D01*
X4089450Y4649063D01*
X4096410Y4636719D01*
X4104843Y4625390D01*
X4114698Y4615230D01*
X4125772Y4606391D01*
X4137863Y4599076D01*
X4150817Y4593336D01*
X4164380Y4589272D01*
X4178401Y4587036D01*
G37*
G36*
X2414524Y4586579D02*
G01*
X2428595Y4587951D01*
X2442413Y4591100D01*
X2455722Y4595977D01*
X2468270Y4602530D01*
X2479852Y4610608D01*
X2490368Y4620158D01*
X2499512Y4630928D01*
X2507234Y4642764D01*
X2513380Y4655566D01*
X2517851Y4668977D01*
X2520543Y4682896D01*
X2521458Y4697018D01*
X2520543Y4711141D01*
X2517851Y4725009D01*
X2513380Y4738471D01*
X2507234Y4751222D01*
X2499512Y4763058D01*
X2490368Y4773879D01*
X2479852Y4783378D01*
X2468270Y4791456D01*
X2455722Y4798009D01*
X2442413Y4802886D01*
X2428595Y4806086D01*
X2414524Y4807407D01*
X2400401Y4806950D01*
X2386380Y4804714D01*
X2372817Y4800701D01*
X2359863Y4794961D01*
X2347772Y4787595D01*
X2336698Y4778806D01*
X2326843Y4768596D01*
X2318410Y4757267D01*
X2311450Y4744923D01*
X2306116Y4731816D01*
X2302560Y4718100D01*
X2300732Y4704080D01*
X2300732Y4689906D01*
X2302560Y4675886D01*
X2306116Y4662170D01*
X2311450Y4649063D01*
X2318410Y4636719D01*
X2326843Y4625390D01*
X2336698Y4615230D01*
X2347772Y4606391D01*
X2359863Y4599076D01*
X2372817Y4593336D01*
X2386380Y4589272D01*
X2400401Y4587036D01*
G37*
G36*
X2668524Y4586579D02*
G01*
X2682595Y4587951D01*
X2696413Y4591100D01*
X2709722Y4595977D01*
X2722270Y4602530D01*
X2733852Y4610608D01*
X2744368Y4620158D01*
X2753512Y4630928D01*
X2761234Y4642764D01*
X2767380Y4655566D01*
X2771851Y4668977D01*
X2774543Y4682896D01*
X2775458Y4697018D01*
X2774543Y4711141D01*
X2771851Y4725009D01*
X2767380Y4738471D01*
X2761234Y4751222D01*
X2753512Y4763058D01*
X2744368Y4773879D01*
X2733852Y4783378D01*
X2722270Y4791456D01*
X2709722Y4798009D01*
X2696413Y4802886D01*
X2682595Y4806086D01*
X2668524Y4807407D01*
X2654401Y4806950D01*
X2640380Y4804714D01*
X2626817Y4800701D01*
X2613863Y4794961D01*
X2601772Y4787595D01*
X2590698Y4778806D01*
X2580843Y4768596D01*
X2572410Y4757267D01*
X2565450Y4744923D01*
X2560116Y4731816D01*
X2556560Y4718100D01*
X2554732Y4704080D01*
X2554732Y4689906D01*
X2556560Y4675886D01*
X2560116Y4662170D01*
X2565450Y4649063D01*
X2572410Y4636719D01*
X2580843Y4625390D01*
X2590698Y4615230D01*
X2601772Y4606391D01*
X2613863Y4599076D01*
X2626817Y4593336D01*
X2640380Y4589272D01*
X2654401Y4587036D01*
G37*
G36*
X3938524Y4586579D02*
G01*
X3952595Y4587951D01*
X3966413Y4591100D01*
X3979722Y4595977D01*
X3992270Y4602530D01*
X4003852Y4610608D01*
X4014368Y4620158D01*
X4023512Y4630928D01*
X4031234Y4642764D01*
X4037380Y4655566D01*
X4041851Y4668977D01*
X4044543Y4682896D01*
X4045458Y4697018D01*
X4044543Y4711141D01*
X4041851Y4725009D01*
X4037380Y4738471D01*
X4031234Y4751222D01*
X4023512Y4763058D01*
X4014368Y4773879D01*
X4003852Y4783378D01*
X3992270Y4791456D01*
X3979722Y4798009D01*
X3966413Y4802886D01*
X3952595Y4806086D01*
X3938524Y4807407D01*
X3924401Y4806950D01*
X3910380Y4804714D01*
X3896817Y4800701D01*
X3883863Y4794961D01*
X3871772Y4787595D01*
X3860698Y4778806D01*
X3850843Y4768596D01*
X3842410Y4757267D01*
X3835450Y4744923D01*
X3830116Y4731816D01*
X3826560Y4718100D01*
X3824732Y4704080D01*
X3824732Y4689906D01*
X3826560Y4675886D01*
X3830116Y4662170D01*
X3835450Y4649063D01*
X3842410Y4636719D01*
X3850843Y4625390D01*
X3860698Y4615230D01*
X3871772Y4606391D01*
X3883863Y4599076D01*
X3896817Y4593336D01*
X3910380Y4589272D01*
X3924401Y4587036D01*
G37*

%LPD*%
G36*
X3686810Y2090470D02*
G01*
X3682949Y2091283D01*
X3679647Y2093468D01*
X3633470Y2139645D01*
X3631285Y2142947D01*
X3630472Y2146858D01*
X3630472Y2162048D01*
X3631031Y2165400D01*
X3632657Y2168347D01*
X3638245Y2175408D01*
X3640886Y2180590D01*
X3643274Y2183638D01*
X3646627Y2185568D01*
X3650437Y2186127D01*
X3654145Y2185212D01*
X3657295Y2182977D01*
X3664254Y2171903D01*
X3670249Y2165654D01*
X3677259Y2160625D01*
X3685133Y2157018D01*
X3693515Y2154986D01*
X3702151Y2154580D01*
X3710686Y2155799D01*
X3718864Y2158644D01*
X3726332Y2162962D01*
X3731006Y2167026D01*
X3734104Y2168855D01*
X3737660Y2169515D01*
X3919575Y2169515D01*
X3924604Y2169871D01*
X3930904Y2171598D01*
X3936542Y2174443D01*
X3941927Y2178812D01*
X4259630Y2496515D01*
X4262932Y2498750D01*
X4266844Y2499512D01*
X4371390Y2499512D01*
X4375404Y2498699D01*
X4378756Y2496362D01*
X4380890Y2492908D01*
X4381550Y2488895D01*
X4380534Y2484932D01*
X4378096Y2481681D01*
X4373422Y2477566D01*
X4364329Y2467203D01*
X4356658Y2455722D01*
X4350562Y2443378D01*
X4346092Y2430322D01*
X4343400Y2416759D01*
X4342485Y2402992D01*
X4343400Y2389225D01*
X4346092Y2375712D01*
X4350562Y2362657D01*
X4356658Y2350262D01*
X4364329Y2338781D01*
X4373524Y2328316D01*
X4376013Y2325065D01*
X4376978Y2321102D01*
X4376369Y2317089D01*
X4374184Y2313635D01*
X4370832Y2311298D01*
X4366818Y2310485D01*
X4210405Y2310485D01*
X4205376Y2310079D01*
X4199077Y2308402D01*
X4193387Y2305507D01*
X4188053Y2301189D01*
X3980332Y2093468D01*
X3977030Y2091283D01*
X3973118Y2090470D01*
G37*

%LPD*%
G36*
X3821836Y1545488D02*
G01*
X3817975Y1546301D01*
X3814673Y1548485D01*
X3640937Y1722170D01*
X3638753Y1725422D01*
X3637940Y1729333D01*
X3638753Y1733245D01*
X3640937Y1736496D01*
X3644239Y1738731D01*
X3648100Y1739493D01*
X4373676Y1739493D01*
X4377690Y1738680D01*
X4380992Y1736343D01*
X4383176Y1732889D01*
X4383836Y1728876D01*
X4382820Y1724964D01*
X4380382Y1721713D01*
X4373422Y1715566D01*
X4364329Y1705203D01*
X4356658Y1693722D01*
X4350562Y1681378D01*
X4346092Y1668322D01*
X4343400Y1654759D01*
X4342485Y1640992D01*
X4343400Y1627225D01*
X4346092Y1613712D01*
X4350562Y1600657D01*
X4356658Y1588262D01*
X4364329Y1576781D01*
X4373422Y1566418D01*
X4376928Y1563319D01*
X4379417Y1560068D01*
X4380382Y1556105D01*
X4379772Y1552092D01*
X4377588Y1548638D01*
X4374235Y1546301D01*
X4370273Y1545488D01*
G37*

%LPD*%
G36*
X854557Y1055522D02*
G01*
X850341Y1056436D01*
X846886Y1059027D01*
X844803Y1062837D01*
X842162Y1071880D01*
X838200Y1079550D01*
X832866Y1086358D01*
X826363Y1091996D01*
X818845Y1096314D01*
X810666Y1099159D01*
X802132Y1100378D01*
X793496Y1099972D01*
X785114Y1097940D01*
X777240Y1094333D01*
X770229Y1089355D01*
X761034Y1079754D01*
X756970Y1078280D01*
X752652Y1078585D01*
X748893Y1080617D01*
X746302Y1084072D01*
X745388Y1088339D01*
X745388Y1161948D01*
X746150Y1165809D01*
X748385Y1169111D01*
X780897Y1201521D01*
X784199Y1203706D01*
X788060Y1204518D01*
X1105357Y1204518D01*
X1108710Y1203909D01*
X1111707Y1202232D01*
X1113993Y1199642D01*
X1115263Y1196492D01*
X1116330Y1191564D01*
X1119581Y1183436D01*
X1124254Y1176172D01*
X1128979Y1171194D01*
X1131112Y1167942D01*
X1131773Y1164082D01*
X1131011Y1160272D01*
X1128826Y1157020D01*
X1030325Y1058519D01*
X1027023Y1056335D01*
X1023112Y1055522D01*
G37*

%LPD*%
D10*
X1135496Y3699918D02*
G01*
X1190106Y3699918D01*
X1259956Y3630068D01*
X1349872Y3630068D01*
X1499986Y3479954D01*
X1499986Y2989988D01*
X1639940Y2850034D01*
X1980046Y2850034D01*
X2110094Y2719986D01*
X2110094Y2509928D01*
X2140066Y2479956D01*
X2179944Y2479956D01*
X2200010Y2500022D01*
X3427084Y4697122D02*
G01*
X3550020Y4573932D01*
X3550020Y3580030D01*
X3399906Y3429916D01*
X3399906Y3189886D01*
D11*
X1135496Y3950108D02*
G01*
X984874Y3799232D01*
X984874Y3354986D01*
X624956Y2995068D01*
X624956Y2805076D01*
X749924Y2680108D01*
X749924Y2440078D01*
D10*
X2909940Y2624990D02*
G01*
X2829930Y2624990D01*
X2159878Y1954938D01*
X2159878Y1135026D01*
X1445122Y420016D01*
X1445122Y300128D01*
X3025002Y2500022D02*
G01*
X3025002Y2395120D01*
X2935086Y2304950D01*
X2695056Y2304950D01*
X2280020Y1889914D01*
X2280020Y565050D01*
X2345044Y500026D01*
X4701910Y1386994D02*
G01*
X4573894Y1515010D01*
X3805036Y1515010D01*
X3159876Y2159916D01*
X2755000Y2159916D01*
X2699882Y2215034D01*
X2899994Y1984994D02*
G01*
X3673000Y1211988D01*
X3673000Y299999D01*
X3000110Y1984910D02*
G01*
X3740012Y1245008D01*
X3740012Y487072D01*
X3926956Y299874D01*
D12*
X1160000Y1204272D02*
G01*
X1124275Y1239997D01*
X754999Y1239997D01*
D10*
X2909940Y2379880D02*
G01*
X2680070Y2379880D01*
X2220076Y1919886D01*
X2220076Y299874D01*
X2795132Y2790090D02*
G01*
X2795132Y2684934D01*
X2054976Y1945032D01*
X1820026Y1945032D01*
X1694042Y1819048D01*
X1672960Y1819048D01*
X2599984Y2789989D02*
G01*
X2599984Y2594973D01*
X2205004Y2199993D01*
X1854997Y2199993D01*
X1805002Y2249992D01*
X1805002Y2449001D01*
X1673004Y2581000D01*
X1672998Y3473000D02*
G01*
X1796006Y3349993D01*
X2689994Y3349993D01*
X2749994Y3289993D01*
X2999994Y3289993D01*
X1673004Y3727000D02*
G01*
X1800004Y3599995D01*
X2734993Y3599995D01*
X2845000Y3489987D01*
X2899984Y3489987D01*
D13*
X2799994Y3852611D02*
G01*
X1312369Y3852611D01*
X1309994Y3854985D01*
D10*
X4701999Y1641000D02*
G01*
X4573003Y1769996D01*
X3634991Y1769996D01*
X3189993Y2214994D01*
X2799994Y2214994D01*
X475000Y2239998D02*
G01*
X404992Y2169990D01*
X404992Y2124991D01*
D11*
X749998Y1959996D02*
G01*
X754999Y1954994D01*
X754999Y1239997D01*
X755004Y1239928D02*
G01*
X699886Y1185064D01*
X699886Y814986D01*
X755004Y760122D01*
X749998Y2439995D02*
G01*
X749998Y1959996D01*
D10*
X1399910Y1189890D02*
G01*
X1354952Y1144932D01*
X1159880Y1144932D01*
X1039992Y1025044D01*
X829934Y1025044D01*
X799962Y1055016D01*
X799962Y950114D02*
G01*
X825108Y975006D01*
X1054978Y975006D01*
X1179946Y1099974D01*
X1363080Y1099974D01*
X1399910Y1062890D01*
X1135496Y3500020D02*
G01*
X1179946Y3500020D01*
X1250050Y3570124D01*
X1330060Y3570124D01*
X1445122Y3455062D01*
X1445122Y2965096D01*
X1619874Y2790090D01*
X1969886Y2790090D01*
X2060056Y2699920D01*
X2060056Y2479956D01*
X2120000Y2420012D01*
X2159878Y2420012D01*
X2179944Y2399946D01*
X2200010Y2399946D01*
X4701910Y2910994D02*
G01*
X4581006Y2790090D01*
X4289922Y2790090D01*
X3799956Y2300124D01*
X4702004Y2149000D02*
G01*
X4572995Y2019998D01*
X4200006Y2019998D01*
X4140004Y1960001D01*
X3650000Y1960001D01*
X3500008Y2109993D01*
X3500008Y2199998D01*
X4702004Y2403000D02*
G01*
X4578997Y2280000D01*
X4210004Y2280000D01*
X3989999Y2060000D01*
X3670005Y2060000D01*
X3600008Y2129998D01*
X3600008Y2199998D01*
X4702004Y2657000D02*
G01*
X4575004Y2530000D01*
X4250001Y2530000D01*
X3919997Y2199998D01*
X3700007Y2199998D01*
X3173001Y4697003D02*
G01*
X3300001Y4570003D01*
X3300001Y3520003D01*
X3250001Y3470003D01*
X3250001Y3190001D01*
D14*
G01*
X864504Y2899996D03*
G01*
X864504Y4299993D03*
D15*
G01*
X1135522Y3950007D03*
G01*
X1135522Y3699995D03*
G01*
X1135522Y3499995D03*
G01*
X1135522Y3250008D03*
G36*
X3333998Y385000D02*
G01*
X3504001Y385000D01*
X3504001Y214998D01*
X3333998Y214998D01*
G37*
G01*
X3673007Y300001D03*
G01*
X3927007Y300001D03*
G01*
X4181007Y300001D03*
D16*
G01*
X4189008Y4696995D03*
G01*
X4189008Y4442995D03*
G01*
X3935008Y4696995D03*
G01*
X3935008Y4442995D03*
G01*
X3681008Y4696995D03*
G01*
X3681008Y4442995D03*
G01*
X3427008Y4696995D03*
G01*
X3427008Y4442995D03*
G01*
X3173008Y4696995D03*
G01*
X3173008Y4442995D03*
G01*
X2919008Y4696995D03*
G01*
X2919008Y4442995D03*
G01*
X2665008Y4696995D03*
G01*
X2665008Y4442995D03*
G01*
X2411008Y4696995D03*
G36*
X2321001Y4533003D02*
G01*
X2501000Y4533003D01*
X2501000Y4353003D01*
X2321001Y4353003D01*
G37*
D15*
G01*
X4702012Y878994D03*
G01*
X4448012Y878994D03*
G01*
X4702012Y1132994D03*
G01*
X4448012Y1132994D03*
G01*
X4702012Y1386994D03*
G01*
X4448012Y1386994D03*
G01*
X4702012Y1640994D03*
G01*
X4448012Y1640994D03*
G01*
X4702012Y1894994D03*
G01*
X4448012Y1894994D03*
G01*
X4702012Y2148994D03*
G01*
X4448012Y2148994D03*
G01*
X4702012Y2402994D03*
G01*
X4448012Y2402994D03*
G01*
X4702012Y2656994D03*
G01*
X4448012Y2656994D03*
G01*
X4702012Y2910994D03*
G01*
X4448012Y2910994D03*
G01*
X4702012Y3164994D03*
D17*
G01*
X4448012Y3164994D03*
G01*
X1672986Y3980995D03*
D15*
G01*
X1927011Y3980995D03*
G01*
X1673011Y3726995D03*
G01*
X1927011Y3726995D03*
G01*
X1673011Y3472995D03*
G01*
X1927011Y3472995D03*
G01*
X1673011Y3218995D03*
G01*
X1927011Y3218995D03*
D17*
G01*
X1672986Y2580998D03*
D15*
G01*
X1927011Y2580998D03*
G01*
X1673011Y2326998D03*
G01*
X1927011Y2326998D03*
G01*
X1673011Y2072998D03*
G01*
X1927011Y2072998D03*
G01*
X1673011Y1818998D03*
G01*
X1927011Y1818998D03*
D18*
G01*
X4448012Y3926994D03*
D19*
G01*
X4702012Y3926994D03*
G01*
X4448012Y3672994D03*
G01*
X4702012Y3672994D03*
D20*
G01*
X299989Y300001D03*
G01*
X4700005Y300001D03*
G01*
X4700005Y4699993D03*
G01*
X299989Y4699993D03*
D21*
G01*
X3249996Y3189988D03*
G01*
X3400008Y3189988D03*
G01*
X3800007Y2299997D03*
G01*
X3700007Y2199998D03*
G01*
X3600008Y2199998D03*
G01*
X3500008Y2199998D03*
G01*
X2599984Y2789989D03*
G01*
X2795005Y2789989D03*
G01*
X2200010Y2499997D03*
G01*
X2200010Y2399997D03*
G01*
X1399987Y1189992D03*
G01*
X1399987Y1062992D03*
G01*
X799988Y1054991D03*
G01*
X799988Y949987D03*
G01*
X755004Y1240005D03*
G01*
X755004Y759995D03*
G01*
X750001Y2440002D03*
G01*
X750001Y1959993D03*
G01*
X2799984Y2214984D03*
G01*
X2699882Y2215034D03*
G01*
X1160007Y1204267D03*
G01*
X474995Y2240003D03*
G01*
X404992Y2124991D03*
G01*
X3000110Y1984910D03*
G01*
X2899984Y1984987D03*
G01*
X1309994Y3854985D03*
G01*
X2800009Y3852598D03*
G01*
X2899984Y3489987D03*
G01*
X2999983Y3289988D03*
G01*
X2909991Y2624990D03*
G01*
X2909991Y2379982D03*
G01*
X3025002Y2499997D03*
G01*
X2345044Y500026D03*
G01*
X2220076Y299874D03*
G01*
X1444995Y300001D03*
G01*
X1464985Y1899998D03*
G01*
X1025006Y1405003D03*
G01*
X969990Y1105004D03*
G01*
X1034989Y719990D03*
G01*
X1025006Y829998D03*
G01*
X1099987Y300001D03*
G01*
X1899986Y300001D03*
G01*
X2700009Y300001D03*
G01*
X4574987Y1254991D03*
G01*
X3760002Y3294992D03*
G01*
X3760002Y3394991D03*
G01*
X4009989Y3499995D03*
G01*
X4009989Y3599995D03*
G01*
X4019997Y3299995D03*
G01*
X4099981Y3299995D03*
G01*
X3825001Y2124991D03*
G01*
X3939987Y2124991D03*
G01*
X3299983Y2270000D03*
G01*
X3299983Y2375004D03*
G01*
X3299983Y2475003D03*
G01*
X3299983Y2579982D03*
G01*
X3030006Y2284986D03*
G01*
X3030006Y2634998D03*
G01*
X2439990Y2899996D03*
G01*
X2534986Y2899996D03*
G01*
X2174991Y2899996D03*
G01*
X2095007Y2899996D03*
G01*
X2014997Y2994992D03*
G01*
X2534986Y2984985D03*
G01*
X2514996Y3519985D03*
G01*
X2514996Y3424989D03*
G01*
X2790002Y3389988D03*
G01*
X2874990Y3389988D03*
G01*
X2495006Y3229993D03*
G01*
X2495006Y3129993D03*
G01*
X2260005Y3740000D03*
G01*
X2499984Y3949981D03*
G01*
X2499984Y4039999D03*
G01*
X2499984Y3784983D03*
G01*
X3099983Y3824988D03*
G01*
X2999983Y3824988D03*
G01*
X3099983Y3904998D03*
G01*
X3099983Y3589987D03*
G01*
X3099983Y3510003D03*
G01*
X2599984Y2000023D03*
G01*
X2599984Y1899998D03*
G01*
X2599984Y1700024D03*
G01*
X2799984Y1700024D03*
G01*
X2999983Y1700024D03*
G01*
X2499984Y1100025D03*
G01*
X2699984Y1100025D03*
G01*
X3099983Y1200025D03*
G01*
X2499984Y700026D03*
G01*
X2904987Y695022D03*
G01*
X2699984Y700026D03*
G01*
X3099983Y700026D03*
G01*
X3899982Y700026D03*
G01*
X4099981Y700026D03*
G01*
X3999981Y1300025D03*
G01*
X3799982Y1400025D03*
G01*
X3999981Y1200025D03*
G01*
X3899982Y1600024D03*
G01*
X3844991Y1850011D03*
G01*
X3569985Y1935025D03*
G01*
X3569985Y1635025D03*
G01*
X1999985Y700026D03*
G01*
X1899986Y700026D03*
G01*
X1799986Y900026D03*
G01*
X1799986Y1000025D03*
G01*
X1299987Y1400025D03*
G01*
X1599986Y1400025D03*
G01*
X899988Y1600024D03*
G01*
X999987Y2400023D03*
G01*
X1299987Y2700022D03*
G01*
X1399987Y2500022D03*
G01*
X1379997Y3095017D03*
G01*
X1379997Y3215007D03*
G01*
X1379997Y2955013D03*
G01*
X1589979Y3015007D03*
G01*
X2099985Y4300019D03*
G01*
X1599986Y4400019D03*
G01*
X1399987Y4500018D03*
G01*
X399989Y4400019D03*
G01*
X199989Y4400019D03*
G01*
X499988Y2800022D03*
G01*
X199989Y2800022D03*
G01*
X699988Y3300021D03*
G01*
X499988Y3500020D03*
G01*
X699988Y3700020D03*
G01*
X899988Y3400021D03*
G01*
X499988Y3100021D03*
G01*
X299989Y3300021D03*
G01*
X3799982Y4000019D03*
G01*
X3899982Y3900020D03*
G01*
X3989974Y4090012D03*
G01*
X4199981Y4000019D03*
G01*
X4099981Y3700020D03*
G01*
X2899984Y4000019D03*
D22*
X181602Y1767486D02*
G01*
X121602Y1767486D01*
X611591Y1767486D02*
G01*
X531591Y1767486D01*
X611591Y2632509D02*
G01*
X531591Y2632509D01*
X181602Y2632509D02*
G01*
X121602Y2632509D01*
X181602Y567489D02*
G01*
X121602Y567489D01*
X611591Y567489D02*
G01*
X531591Y567489D01*
X611591Y1432511D02*
G01*
X531591Y1432511D01*
X181602Y1432511D02*
G01*
X121602Y1432511D01*
M02*
