G04 Layer: BottomSolderMaskLayer*
G04 EasyEDA v6.5.9, 2022-07-22 04:57:57*
G04 840753d4bb104133846108dccaf676b4,987c639a94b84ffc8c6145f2c3ae8d38,10*
G04 Gerber Generator version 0.2*
G04 Scale: 100 percent, Rotated: No, Reflected: No *
G04 Dimensions in millimeters *
G04 leading zeros omitted , absolute positions ,4 integer and 5 decimal *
%FSLAX45Y45*%
%MOMM*%

%ADD10C,1.3016*%
%ADD11C,3.2016*%
%ADD12C,1.8016*%
%ADD13C,1.9016*%
%ADD14C,1.6256*%
%ADD15C,3.7032*%

%LPD*%
D10*
X181602Y1767486D02*
G01*
X121602Y1767486D01*
X611591Y1767486D02*
G01*
X531591Y1767486D01*
X611591Y2632509D02*
G01*
X531591Y2632509D01*
X181602Y2632509D02*
G01*
X121602Y2632509D01*
X181602Y567489D02*
G01*
X121602Y567489D01*
X611591Y567489D02*
G01*
X531591Y567489D01*
X611591Y1432511D02*
G01*
X531591Y1432511D01*
X181602Y1432511D02*
G01*
X121602Y1432511D01*
D11*
G01*
X864504Y2899996D03*
G01*
X864504Y4299993D03*
D12*
G01*
X1135522Y3950007D03*
G01*
X1135522Y3699995D03*
G01*
X1135522Y3499995D03*
G01*
X1135522Y3250008D03*
G36*
X3329040Y209958D02*
G01*
X3329040Y390044D01*
X3509126Y390044D01*
X3509126Y209958D01*
G37*
G01*
X3673007Y300001D03*
G01*
X3927007Y300001D03*
G01*
X4181007Y300001D03*
D13*
G01*
X4189008Y4696995D03*
G01*
X4189008Y4442995D03*
G01*
X3935008Y4696995D03*
G01*
X3935008Y4442995D03*
G01*
X3681008Y4696995D03*
G01*
X3681008Y4442995D03*
G01*
X3427008Y4696995D03*
G01*
X3427008Y4442995D03*
G01*
X3173008Y4696995D03*
G01*
X3173008Y4442995D03*
G01*
X2919008Y4696995D03*
G01*
X2919008Y4442995D03*
G01*
X2665008Y4696995D03*
G01*
X2665008Y4442995D03*
G01*
X2411008Y4696995D03*
G36*
X2315834Y4347872D02*
G01*
X2315834Y4538118D01*
X2506080Y4538118D01*
X2506080Y4347872D01*
G37*
D12*
G01*
X4702012Y878994D03*
G01*
X4448012Y878994D03*
G01*
X4702012Y1132994D03*
G01*
X4448012Y1132994D03*
G01*
X4702012Y1386994D03*
G01*
X4448012Y1386994D03*
G01*
X4702012Y1640994D03*
G01*
X4448012Y1640994D03*
G01*
X4702012Y1894994D03*
G01*
X4448012Y1894994D03*
G01*
X4702012Y2148994D03*
G01*
X4448012Y2148994D03*
G01*
X4702012Y2402994D03*
G01*
X4448012Y2402994D03*
G01*
X4702012Y2656994D03*
G01*
X4448012Y2656994D03*
G01*
X4702012Y2910994D03*
G01*
X4448012Y2910994D03*
G01*
X4702012Y3164994D03*
G36*
X4357994Y3074824D02*
G01*
X4357994Y3255164D01*
X4538080Y3255164D01*
X4538080Y3074824D01*
G37*
G36*
X1583044Y3890926D02*
G01*
X1583044Y4071012D01*
X1763130Y4071012D01*
X1763130Y3890926D01*
G37*
G01*
X1927011Y3980995D03*
G01*
X1673011Y3726995D03*
G01*
X1927011Y3726995D03*
G01*
X1673011Y3472995D03*
G01*
X1927011Y3472995D03*
G01*
X1673011Y3218995D03*
G01*
X1927011Y3218995D03*
G36*
X1583044Y2490878D02*
G01*
X1583044Y2670964D01*
X1763130Y2670964D01*
X1763130Y2490878D01*
G37*
G01*
X1927011Y2580998D03*
G01*
X1673011Y2326998D03*
G01*
X1927011Y2326998D03*
G01*
X1673011Y2072998D03*
G01*
X1927011Y2072998D03*
G01*
X1673011Y1818998D03*
G01*
X1927011Y1818998D03*
G36*
X4366630Y3845714D02*
G01*
X4366630Y4008274D01*
X4529190Y4008274D01*
X4529190Y3845714D01*
G37*
D14*
G01*
X4702012Y3926994D03*
G01*
X4448012Y3672994D03*
G01*
X4702012Y3672994D03*
D15*
G01*
X299989Y300001D03*
G01*
X4700005Y300001D03*
G01*
X4700005Y4699993D03*
G01*
X299989Y4699993D03*
M02*
