G04 Layer: TopLayer*
G04 EasyEDA v6.5.9, 2022-07-22 04:57:57*
G04 840753d4bb104133846108dccaf676b4,987c639a94b84ffc8c6145f2c3ae8d38,10*
G04 Gerber Generator version 0.2*
G04 Scale: 100 percent, Rotated: No, Reflected: No *
G04 Dimensions in millimeters *
G04 leading zeros omitted , absolute positions ,4 integer and 5 decimal *
%FSLAX45Y45*%
%MOMM*%

%ADD10C,0.3000*%
%ADD11C,0.3500*%
%ADD12C,0.3900*%
%ADD13C,0.2000*%
%ADD14C,0.5000*%
%ADD15C,0.3990*%
%ADD16C,0.6300*%
%ADD17R,0.8000X0.9000*%
%ADD18R,0.6000X1.2500*%
%ADD19R,1.2500X0.6000*%
%ADD20R,1.3000X0.3000*%
%ADD21R,0.9000X0.8000*%
%ADD22R,0.8640X0.8065*%
%ADD23R,0.6000X1.0000*%
%ADD24C,3.1000*%
%ADD25C,1.7000*%
%ADD26C,1.8000*%
%ADD27R,1.7000X1.7000*%
%ADD28R,1.5240X1.5240*%
%ADD29C,1.5240*%
%ADD30C,3.5000*%
%ADD31C,0.5000*%
%ADD32C,1.2000*%
%ADD33C,0.0124*%

%LPD*%
G36*
X250291Y25908D02*
G01*
X230022Y26822D01*
X210667Y29413D01*
X191566Y33680D01*
X172923Y39624D01*
X154889Y47142D01*
X137566Y56184D01*
X121107Y66700D01*
X105613Y78638D01*
X91236Y91897D01*
X78079Y106324D01*
X66192Y121869D01*
X55727Y138328D01*
X46736Y155702D01*
X39319Y173786D01*
X33477Y192430D01*
X29260Y211531D01*
X26771Y230886D01*
X25908Y250748D01*
X25908Y4749241D01*
X26822Y4769967D01*
X29413Y4789322D01*
X33680Y4808423D01*
X39624Y4827016D01*
X47091Y4845100D01*
X56184Y4862423D01*
X66700Y4878882D01*
X78638Y4894326D01*
X91846Y4908753D01*
X106324Y4921910D01*
X121818Y4933797D01*
X138328Y4944262D01*
X155702Y4953254D01*
X173786Y4960670D01*
X192430Y4966512D01*
X211531Y4970729D01*
X230886Y4973218D01*
X250748Y4974082D01*
X4749241Y4974082D01*
X4769967Y4973167D01*
X4789322Y4970576D01*
X4808423Y4966309D01*
X4827016Y4960366D01*
X4845050Y4952847D01*
X4862372Y4943805D01*
X4878832Y4933289D01*
X4894326Y4921351D01*
X4908702Y4908092D01*
X4921910Y4893665D01*
X4933746Y4878120D01*
X4944211Y4861610D01*
X4953203Y4844288D01*
X4960670Y4826203D01*
X4966512Y4807559D01*
X4970729Y4788458D01*
X4973218Y4769053D01*
X4974082Y4749241D01*
X4974082Y250748D01*
X4973116Y230022D01*
X4970526Y210667D01*
X4966258Y191566D01*
X4960366Y172923D01*
X4952847Y154889D01*
X4943805Y137566D01*
X4933238Y121107D01*
X4921351Y105613D01*
X4908092Y91236D01*
X4893665Y78079D01*
X4878120Y66192D01*
X4861610Y55727D01*
X4844288Y46736D01*
X4826203Y39319D01*
X4807559Y33477D01*
X4788458Y29260D01*
X4769053Y26771D01*
X4749241Y25908D01*
G37*

%LPC*%
G36*
X299974Y104495D02*
G01*
X319125Y105460D01*
X338124Y108254D01*
X356717Y112928D01*
X374802Y119380D01*
X392125Y127609D01*
X408584Y137464D01*
X423976Y148894D01*
X438200Y161747D01*
X451104Y175971D01*
X462534Y191414D01*
X472389Y207822D01*
X480568Y225196D01*
X487019Y243230D01*
X491693Y261874D01*
X494538Y280822D01*
X495452Y299974D01*
X494538Y319176D01*
X491693Y338124D01*
X487019Y356768D01*
X480568Y374802D01*
X472389Y392125D01*
X462534Y408584D01*
X451104Y424027D01*
X438200Y438251D01*
X423976Y451104D01*
X408584Y462534D01*
X392125Y472389D01*
X374802Y480618D01*
X356717Y487070D01*
X338124Y491743D01*
X319125Y494538D01*
X299974Y495503D01*
X280822Y494538D01*
X261823Y491743D01*
X243230Y487070D01*
X225145Y480618D01*
X207822Y472389D01*
X191363Y462534D01*
X175971Y451104D01*
X161747Y438251D01*
X148844Y424027D01*
X137414Y408584D01*
X127558Y392125D01*
X119380Y374802D01*
X112928Y356768D01*
X108254Y338124D01*
X105410Y319176D01*
X104495Y299974D01*
X105410Y280822D01*
X108254Y261874D01*
X112928Y243230D01*
X119380Y225196D01*
X127558Y207822D01*
X137414Y191414D01*
X148844Y175971D01*
X161747Y161747D01*
X175971Y148894D01*
X191363Y137464D01*
X207822Y127609D01*
X225145Y119380D01*
X243230Y112928D01*
X261823Y108254D01*
X280822Y105460D01*
G37*
G36*
X4699965Y104495D02*
G01*
X4719116Y105460D01*
X4738116Y108254D01*
X4756708Y112928D01*
X4774793Y119380D01*
X4792116Y127609D01*
X4808575Y137464D01*
X4823968Y148894D01*
X4838192Y161747D01*
X4851095Y175971D01*
X4862525Y191414D01*
X4872380Y207822D01*
X4880559Y225196D01*
X4887061Y243230D01*
X4891684Y261874D01*
X4894529Y280822D01*
X4895443Y299974D01*
X4894529Y319176D01*
X4891684Y338124D01*
X4887061Y356768D01*
X4880559Y374802D01*
X4872380Y392125D01*
X4862525Y408584D01*
X4851095Y424027D01*
X4838192Y438251D01*
X4823968Y451104D01*
X4808575Y462534D01*
X4792116Y472389D01*
X4774793Y480618D01*
X4756708Y487070D01*
X4738116Y491743D01*
X4719116Y494538D01*
X4699965Y495503D01*
X4680813Y494538D01*
X4661814Y491743D01*
X4643221Y487070D01*
X4625187Y480618D01*
X4607814Y472389D01*
X4591354Y462534D01*
X4575962Y451104D01*
X4561738Y438251D01*
X4548886Y424027D01*
X4537456Y408584D01*
X4527550Y392125D01*
X4519371Y374802D01*
X4512919Y356768D01*
X4508246Y338124D01*
X4505452Y319176D01*
X4504486Y299974D01*
X4505452Y280822D01*
X4508246Y261874D01*
X4512919Y243230D01*
X4519371Y225196D01*
X4527550Y207822D01*
X4537456Y191414D01*
X4548886Y175971D01*
X4561738Y161747D01*
X4575962Y148894D01*
X4591354Y137464D01*
X4607814Y127609D01*
X4625187Y119380D01*
X4643221Y112928D01*
X4661814Y108254D01*
X4680813Y105460D01*
G37*
G36*
X3672992Y194513D02*
G01*
X3686759Y195427D01*
X3700272Y198120D01*
X3713327Y202539D01*
X3725722Y208635D01*
X3737203Y216306D01*
X3747566Y225399D01*
X3756660Y235762D01*
X3764330Y247243D01*
X3770426Y259638D01*
X3774846Y272694D01*
X3777538Y286207D01*
X3778453Y299974D01*
X3777538Y313740D01*
X3774846Y327304D01*
X3770426Y340360D01*
X3764330Y352755D01*
X3762095Y356057D01*
X3760520Y360019D01*
X3760724Y364236D01*
X3762603Y368046D01*
X3765905Y370738D01*
X3769969Y371856D01*
X3774186Y371195D01*
X3777742Y368909D01*
X3820312Y326288D01*
X3822242Y323646D01*
X3823208Y320446D01*
X3823106Y317144D01*
X3822395Y313740D01*
X3821531Y299974D01*
X3822395Y286207D01*
X3825087Y272694D01*
X3829558Y259638D01*
X3835654Y247243D01*
X3843324Y235762D01*
X3852418Y225399D01*
X3862781Y216306D01*
X3874262Y208635D01*
X3886606Y202539D01*
X3899662Y198120D01*
X3913225Y195427D01*
X3926992Y194513D01*
X3940759Y195427D01*
X3954272Y198120D01*
X3967327Y202539D01*
X3979722Y208635D01*
X3991203Y216306D01*
X4001566Y225399D01*
X4010660Y235762D01*
X4018330Y247243D01*
X4024426Y259638D01*
X4028846Y272694D01*
X4031538Y286207D01*
X4032453Y299974D01*
X4031538Y313740D01*
X4028846Y327304D01*
X4024426Y340360D01*
X4018330Y352755D01*
X4010660Y364185D01*
X4001566Y374599D01*
X3991203Y383692D01*
X3979722Y391363D01*
X3967327Y397459D01*
X3954272Y401878D01*
X3940759Y404571D01*
X3926992Y405485D01*
X3913225Y404571D01*
X3899662Y401878D01*
X3886606Y397459D01*
X3874262Y391363D01*
X3862679Y383590D01*
X3859428Y381660D01*
X3855669Y381101D01*
X3851960Y381914D01*
X3848811Y384048D01*
X3216757Y1016355D01*
X3212947Y1019606D01*
X3207308Y1022858D01*
X3201263Y1024839D01*
X3194405Y1025550D01*
X2346858Y1025550D01*
X2342997Y1026363D01*
X2339695Y1028547D01*
X2184958Y1183081D01*
X2182926Y1185976D01*
X2182012Y1189431D01*
X2181148Y1199540D01*
X2178812Y1208278D01*
X2175002Y1216456D01*
X2169769Y1223873D01*
X2163368Y1230325D01*
X2155952Y1235506D01*
X2147773Y1239316D01*
X2138984Y1241653D01*
X2129536Y1242517D01*
X2006904Y1242517D01*
X1997456Y1241653D01*
X1988718Y1239316D01*
X1980488Y1235506D01*
X1973072Y1230325D01*
X1966671Y1223873D01*
X1961489Y1216456D01*
X1957679Y1208278D01*
X1955292Y1199540D01*
X1954530Y1190498D01*
X1955292Y1181455D01*
X1957679Y1172718D01*
X1961489Y1164539D01*
X1966671Y1157122D01*
X1973072Y1150670D01*
X1980488Y1145489D01*
X1988718Y1141679D01*
X1997456Y1139342D01*
X2006904Y1138478D01*
X2129536Y1138478D01*
X2137460Y1139190D01*
X2141829Y1138631D01*
X2145487Y1136243D01*
X2150567Y1131214D01*
X2152954Y1127506D01*
X2153513Y1123137D01*
X2152192Y1118920D01*
X2149246Y1115669D01*
X2145182Y1113993D01*
X2140762Y1114196D01*
X2138984Y1114653D01*
X2129536Y1115517D01*
X2006904Y1115517D01*
X1997456Y1114653D01*
X1988718Y1112316D01*
X1980488Y1108506D01*
X1976424Y1105662D01*
X1973224Y1104138D01*
X1969719Y1103833D01*
X1966315Y1104747D01*
X1963420Y1106779D01*
X1908454Y1161745D01*
X1906270Y1164996D01*
X1905507Y1168908D01*
X1905507Y1324965D01*
X1906168Y1328623D01*
X1908048Y1331772D01*
X1910994Y1334008D01*
X1918817Y1336598D01*
X1922729Y1339037D01*
X1925929Y1342237D01*
X1928368Y1346149D01*
X1929892Y1350467D01*
X1930450Y1355547D01*
X1930450Y1399082D01*
X1931263Y1402943D01*
X1933448Y1406245D01*
X1955241Y1428038D01*
X1960575Y1434541D01*
X1964283Y1441551D01*
X1966620Y1449120D01*
X1967433Y1457502D01*
X1967433Y1715262D01*
X1968144Y1718970D01*
X1970125Y1722120D01*
X1973122Y1724406D01*
X1979726Y1727657D01*
X1991207Y1735328D01*
X2001570Y1744421D01*
X2010664Y1754784D01*
X2018334Y1766265D01*
X2021636Y1773021D01*
X2023922Y1776018D01*
X2027072Y1778000D01*
X2030780Y1778660D01*
X3359962Y1779574D01*
X3363569Y1778914D01*
X3366719Y1776984D01*
X3369005Y1774088D01*
X3371596Y1766112D01*
X3374034Y1762252D01*
X3377234Y1759000D01*
X3381146Y1756613D01*
X3385058Y1755190D01*
X3388614Y1753057D01*
X3391001Y1749704D01*
X3391865Y1745640D01*
X3391865Y1340510D01*
X3392627Y1332585D01*
X3394811Y1325473D01*
X3398316Y1318920D01*
X3403346Y1312773D01*
X3736390Y979982D01*
X3742537Y974953D01*
X3749090Y971448D01*
X3756202Y969264D01*
X3764127Y968502D01*
X4618075Y968502D01*
X4621834Y967790D01*
X4625086Y965657D01*
X4627321Y962558D01*
X4628235Y958799D01*
X4627626Y954989D01*
X4625695Y951636D01*
X4618329Y943203D01*
X4610658Y931722D01*
X4604562Y919378D01*
X4600092Y906322D01*
X4597400Y892759D01*
X4596485Y878992D01*
X4597400Y865225D01*
X4600092Y851712D01*
X4604562Y838657D01*
X4609439Y828649D01*
X4610506Y824585D01*
X4609795Y820470D01*
X4607560Y816965D01*
X4198366Y407822D01*
X4194759Y405485D01*
X4190492Y404825D01*
X4180992Y405485D01*
X4167225Y404571D01*
X4153662Y401878D01*
X4140606Y397459D01*
X4128262Y391363D01*
X4116781Y383692D01*
X4106418Y374599D01*
X4097324Y364185D01*
X4089654Y352755D01*
X4083558Y340360D01*
X4079087Y327304D01*
X4076395Y313740D01*
X4075531Y299974D01*
X4076395Y286207D01*
X4079087Y272694D01*
X4083558Y259638D01*
X4089654Y247243D01*
X4097324Y235762D01*
X4106418Y225399D01*
X4116781Y216306D01*
X4128262Y208635D01*
X4140606Y202539D01*
X4153662Y198120D01*
X4167225Y195427D01*
X4180992Y194513D01*
X4194759Y195427D01*
X4208272Y198120D01*
X4221327Y202539D01*
X4233722Y208635D01*
X4245203Y216306D01*
X4255566Y225399D01*
X4264660Y235762D01*
X4272330Y247243D01*
X4278426Y259638D01*
X4282846Y272694D01*
X4285538Y286207D01*
X4286453Y299974D01*
X4285538Y313740D01*
X4282846Y327304D01*
X4278426Y340360D01*
X4275429Y346456D01*
X4274413Y350469D01*
X4275074Y354634D01*
X4277360Y358089D01*
X4690110Y770839D01*
X4693716Y773176D01*
X4697933Y773785D01*
X4701997Y773531D01*
X4715764Y774446D01*
X4729276Y777138D01*
X4742332Y781558D01*
X4754727Y787654D01*
X4766208Y795324D01*
X4776571Y804418D01*
X4785664Y814781D01*
X4793335Y826262D01*
X4799431Y838657D01*
X4803851Y851712D01*
X4806543Y865225D01*
X4807458Y878992D01*
X4806543Y892759D01*
X4803851Y906322D01*
X4799431Y919378D01*
X4793335Y931722D01*
X4785664Y943203D01*
X4776571Y953566D01*
X4766208Y962660D01*
X4750155Y973378D01*
X4748174Y976528D01*
X4747463Y980236D01*
X4747463Y1031748D01*
X4748174Y1035456D01*
X4750155Y1038606D01*
X4766208Y1049324D01*
X4776571Y1058418D01*
X4785664Y1068781D01*
X4793335Y1080262D01*
X4799431Y1092657D01*
X4803851Y1105712D01*
X4806543Y1119225D01*
X4807458Y1132992D01*
X4806543Y1146759D01*
X4803851Y1160322D01*
X4799431Y1173378D01*
X4793335Y1185722D01*
X4785664Y1197203D01*
X4776571Y1207566D01*
X4766208Y1216660D01*
X4754727Y1224330D01*
X4742332Y1230426D01*
X4729276Y1234897D01*
X4715764Y1237589D01*
X4701997Y1238453D01*
X4688230Y1237589D01*
X4674666Y1234897D01*
X4661611Y1230426D01*
X4649266Y1224330D01*
X4637786Y1216660D01*
X4627422Y1207566D01*
X4618329Y1197203D01*
X4610658Y1185722D01*
X4604562Y1173378D01*
X4600092Y1160322D01*
X4597400Y1146759D01*
X4596485Y1132992D01*
X4597400Y1119225D01*
X4600092Y1105712D01*
X4604562Y1092657D01*
X4610658Y1080262D01*
X4618329Y1068781D01*
X4624832Y1061364D01*
X4626762Y1058011D01*
X4627321Y1054201D01*
X4626457Y1050442D01*
X4624222Y1047343D01*
X4620971Y1045210D01*
X4617161Y1044498D01*
X4532782Y1044498D01*
X4529023Y1045210D01*
X4525772Y1047343D01*
X4523536Y1050442D01*
X4522622Y1054201D01*
X4523181Y1058011D01*
X4525162Y1061364D01*
X4531664Y1068781D01*
X4539335Y1080262D01*
X4545431Y1092657D01*
X4549851Y1105712D01*
X4552543Y1119225D01*
X4553458Y1132992D01*
X4552543Y1146759D01*
X4549851Y1160322D01*
X4545431Y1173378D01*
X4539335Y1185722D01*
X4531664Y1197203D01*
X4522571Y1207566D01*
X4512208Y1216660D01*
X4500727Y1224330D01*
X4488332Y1230426D01*
X4475276Y1234897D01*
X4461764Y1237589D01*
X4447997Y1238453D01*
X4434230Y1237589D01*
X4420666Y1234897D01*
X4407611Y1230426D01*
X4404766Y1229004D01*
X4400702Y1227988D01*
X4396587Y1228648D01*
X4393082Y1230934D01*
X4053382Y1570634D01*
X4051198Y1573936D01*
X4050385Y1577848D01*
X4050385Y1716836D01*
X4051198Y1720697D01*
X4053382Y1723999D01*
X4056684Y1726234D01*
X4060545Y1726996D01*
X4064457Y1726234D01*
X4067759Y1723999D01*
X4349953Y1441805D01*
X4352239Y1438300D01*
X4352950Y1434185D01*
X4351883Y1430121D01*
X4350562Y1427378D01*
X4346092Y1414322D01*
X4343400Y1400759D01*
X4342485Y1386992D01*
X4343400Y1373225D01*
X4346092Y1359712D01*
X4350562Y1346657D01*
X4356658Y1334262D01*
X4364329Y1322781D01*
X4373422Y1312418D01*
X4383786Y1303324D01*
X4395266Y1295654D01*
X4407611Y1289558D01*
X4420666Y1285138D01*
X4434230Y1282446D01*
X4447997Y1281531D01*
X4461764Y1282446D01*
X4475276Y1285138D01*
X4488332Y1289558D01*
X4500727Y1295654D01*
X4512208Y1303324D01*
X4522571Y1312418D01*
X4531664Y1322781D01*
X4539335Y1334262D01*
X4545431Y1346657D01*
X4549851Y1359712D01*
X4552543Y1373225D01*
X4553458Y1386992D01*
X4552543Y1400759D01*
X4549851Y1414322D01*
X4545431Y1427378D01*
X4539335Y1439722D01*
X4531664Y1451203D01*
X4522571Y1461566D01*
X4512208Y1470660D01*
X4500727Y1478330D01*
X4488332Y1484426D01*
X4475276Y1488897D01*
X4461764Y1491589D01*
X4447997Y1492453D01*
X4434230Y1491589D01*
X4420666Y1488897D01*
X4407611Y1484426D01*
X4404766Y1483004D01*
X4400702Y1481988D01*
X4396587Y1482648D01*
X4393082Y1484934D01*
X4103420Y1774596D01*
X4101236Y1777898D01*
X4100423Y1781810D01*
X4100423Y1920798D01*
X4101236Y1924659D01*
X4103420Y1927961D01*
X4106722Y1930196D01*
X4110583Y1930958D01*
X4114495Y1930196D01*
X4117797Y1927961D01*
X4349953Y1695805D01*
X4352239Y1692300D01*
X4352950Y1688185D01*
X4351883Y1684121D01*
X4350562Y1681378D01*
X4346092Y1668322D01*
X4343400Y1654759D01*
X4342485Y1640992D01*
X4343400Y1627225D01*
X4346092Y1613712D01*
X4350562Y1600657D01*
X4356658Y1588262D01*
X4364329Y1576781D01*
X4373422Y1566418D01*
X4383786Y1557324D01*
X4395266Y1549654D01*
X4407611Y1543558D01*
X4420666Y1539138D01*
X4434230Y1536446D01*
X4447997Y1535531D01*
X4461764Y1536446D01*
X4475276Y1539138D01*
X4488332Y1543558D01*
X4500727Y1549654D01*
X4512208Y1557324D01*
X4522571Y1566418D01*
X4531664Y1576781D01*
X4539335Y1588262D01*
X4545431Y1600657D01*
X4549851Y1613712D01*
X4552543Y1627225D01*
X4553458Y1640992D01*
X4552543Y1654759D01*
X4549851Y1668322D01*
X4545431Y1681378D01*
X4539335Y1693722D01*
X4531664Y1705203D01*
X4522571Y1715566D01*
X4512208Y1724660D01*
X4500727Y1732330D01*
X4488332Y1738426D01*
X4475276Y1742897D01*
X4461764Y1745589D01*
X4447997Y1746453D01*
X4434230Y1745589D01*
X4420666Y1742897D01*
X4407611Y1738426D01*
X4404766Y1737004D01*
X4400702Y1735988D01*
X4396587Y1736648D01*
X4393082Y1738934D01*
X4153458Y1978558D01*
X4151274Y1981860D01*
X4150461Y1985772D01*
X4150461Y2124964D01*
X4151274Y2128875D01*
X4153458Y2132177D01*
X4156760Y2134362D01*
X4160621Y2135124D01*
X4164533Y2134362D01*
X4167835Y2132177D01*
X4350004Y1949856D01*
X4352290Y1946351D01*
X4352950Y1942185D01*
X4351934Y1938172D01*
X4350562Y1935378D01*
X4346092Y1922322D01*
X4343400Y1908759D01*
X4342485Y1894992D01*
X4343400Y1881225D01*
X4346092Y1867712D01*
X4350562Y1854657D01*
X4356658Y1842262D01*
X4364329Y1830781D01*
X4373422Y1820418D01*
X4383786Y1811324D01*
X4395266Y1803654D01*
X4407611Y1797557D01*
X4420666Y1793138D01*
X4434230Y1790446D01*
X4447997Y1789531D01*
X4461764Y1790446D01*
X4475276Y1793138D01*
X4488332Y1797557D01*
X4500727Y1803654D01*
X4512208Y1811324D01*
X4522571Y1820418D01*
X4531664Y1830781D01*
X4539335Y1842262D01*
X4545431Y1854657D01*
X4549851Y1867712D01*
X4552543Y1881225D01*
X4553458Y1894992D01*
X4552543Y1908759D01*
X4549851Y1922322D01*
X4545431Y1935378D01*
X4539335Y1947722D01*
X4531664Y1959203D01*
X4522571Y1969566D01*
X4512208Y1978660D01*
X4500727Y1986330D01*
X4488332Y1992426D01*
X4475276Y1996897D01*
X4461764Y1999589D01*
X4447997Y2000453D01*
X4434230Y1999589D01*
X4420666Y1996897D01*
X4407611Y1992426D01*
X4404766Y1991055D01*
X4400753Y1989988D01*
X4396587Y1990699D01*
X4393082Y1992985D01*
X4203496Y2182774D01*
X4201312Y2186076D01*
X4200499Y2189937D01*
X4200499Y2328926D01*
X4201312Y2332837D01*
X4203496Y2336139D01*
X4206798Y2338324D01*
X4210659Y2339086D01*
X4214571Y2338324D01*
X4217873Y2336139D01*
X4350004Y2203856D01*
X4352290Y2200351D01*
X4352950Y2196236D01*
X4351934Y2192172D01*
X4350562Y2189378D01*
X4346092Y2176322D01*
X4343400Y2162759D01*
X4342485Y2148992D01*
X4343400Y2135225D01*
X4346092Y2121712D01*
X4350562Y2108657D01*
X4356658Y2096262D01*
X4364329Y2084781D01*
X4373422Y2074418D01*
X4383786Y2065324D01*
X4395266Y2057654D01*
X4407611Y2051557D01*
X4420666Y2047138D01*
X4434230Y2044446D01*
X4447997Y2043531D01*
X4461764Y2044446D01*
X4475276Y2047138D01*
X4488332Y2051557D01*
X4500727Y2057654D01*
X4512208Y2065324D01*
X4522571Y2074418D01*
X4531664Y2084781D01*
X4539335Y2096262D01*
X4545431Y2108657D01*
X4549851Y2121712D01*
X4552543Y2135225D01*
X4553458Y2148992D01*
X4552543Y2162759D01*
X4549851Y2176322D01*
X4545431Y2189378D01*
X4539335Y2201722D01*
X4531664Y2213203D01*
X4522571Y2223566D01*
X4512208Y2232660D01*
X4500727Y2240330D01*
X4488332Y2246426D01*
X4475276Y2250897D01*
X4461764Y2253589D01*
X4447997Y2254453D01*
X4434230Y2253589D01*
X4420666Y2250897D01*
X4407611Y2246426D01*
X4404817Y2245055D01*
X4400753Y2244039D01*
X4396638Y2244699D01*
X4393133Y2246985D01*
X4253534Y2386736D01*
X4251350Y2390038D01*
X4250537Y2393899D01*
X4250537Y2532888D01*
X4251350Y2536799D01*
X4253534Y2540101D01*
X4256836Y2542286D01*
X4260697Y2543048D01*
X4264609Y2542286D01*
X4267911Y2540101D01*
X4350004Y2457856D01*
X4352290Y2454351D01*
X4352950Y2450236D01*
X4351934Y2446172D01*
X4350562Y2443378D01*
X4346092Y2430322D01*
X4343400Y2416759D01*
X4342485Y2402992D01*
X4343400Y2389225D01*
X4346092Y2375712D01*
X4350562Y2362657D01*
X4356658Y2350262D01*
X4364329Y2338781D01*
X4373422Y2328418D01*
X4383786Y2319324D01*
X4395266Y2311654D01*
X4407611Y2305558D01*
X4420666Y2301138D01*
X4434230Y2298446D01*
X4447997Y2297531D01*
X4461764Y2298446D01*
X4475276Y2301138D01*
X4488332Y2305558D01*
X4500727Y2311654D01*
X4512208Y2319324D01*
X4522571Y2328418D01*
X4531664Y2338781D01*
X4539335Y2350262D01*
X4545431Y2362657D01*
X4549851Y2375712D01*
X4552543Y2389225D01*
X4553458Y2402992D01*
X4552543Y2416759D01*
X4549851Y2430322D01*
X4545431Y2443378D01*
X4539335Y2455722D01*
X4531664Y2467203D01*
X4522571Y2477566D01*
X4512208Y2486660D01*
X4500727Y2494330D01*
X4488332Y2500426D01*
X4475276Y2504897D01*
X4461764Y2507589D01*
X4447997Y2508453D01*
X4434230Y2507589D01*
X4420666Y2504897D01*
X4407611Y2500426D01*
X4404817Y2499055D01*
X4400753Y2498039D01*
X4396638Y2498699D01*
X4393133Y2500985D01*
X4303572Y2590698D01*
X4301388Y2594000D01*
X4300575Y2597861D01*
X4300575Y2736646D01*
X4301388Y2740507D01*
X4303572Y2743809D01*
X4306874Y2746044D01*
X4310735Y2746806D01*
X4314647Y2746044D01*
X4317949Y2743809D01*
X4349953Y2711805D01*
X4352239Y2708300D01*
X4352950Y2704185D01*
X4351883Y2700121D01*
X4350562Y2697378D01*
X4346092Y2684322D01*
X4343400Y2670759D01*
X4342485Y2656992D01*
X4343400Y2643225D01*
X4346092Y2629712D01*
X4350562Y2616657D01*
X4356658Y2604262D01*
X4364329Y2592781D01*
X4373422Y2582418D01*
X4383786Y2573324D01*
X4395266Y2565654D01*
X4407611Y2559558D01*
X4420666Y2555138D01*
X4434230Y2552446D01*
X4447997Y2551531D01*
X4461764Y2552446D01*
X4475276Y2555138D01*
X4488332Y2559558D01*
X4500727Y2565654D01*
X4512208Y2573324D01*
X4522571Y2582418D01*
X4531664Y2592781D01*
X4539335Y2604262D01*
X4545431Y2616657D01*
X4549851Y2629712D01*
X4552543Y2643225D01*
X4553458Y2656992D01*
X4552543Y2670759D01*
X4549851Y2684322D01*
X4545431Y2697378D01*
X4539335Y2709722D01*
X4531664Y2721203D01*
X4522571Y2731566D01*
X4512208Y2740660D01*
X4500727Y2748330D01*
X4488332Y2754426D01*
X4475276Y2758897D01*
X4461764Y2761589D01*
X4447997Y2762453D01*
X4434230Y2761589D01*
X4420666Y2758897D01*
X4407611Y2754426D01*
X4404766Y2753004D01*
X4400702Y2751988D01*
X4396587Y2752648D01*
X4393082Y2754934D01*
X4353356Y2794660D01*
X4351172Y2797962D01*
X4350359Y2801874D01*
X4350359Y2835656D01*
X4351172Y2839669D01*
X4353509Y2843022D01*
X4356963Y2845206D01*
X4360976Y2845816D01*
X4364939Y2844850D01*
X4368190Y2842361D01*
X4373422Y2836418D01*
X4383786Y2827324D01*
X4395266Y2819654D01*
X4407611Y2813558D01*
X4420666Y2809138D01*
X4434230Y2806446D01*
X4447997Y2805531D01*
X4461764Y2806446D01*
X4475276Y2809138D01*
X4488332Y2813558D01*
X4500727Y2819654D01*
X4512208Y2827324D01*
X4522571Y2836418D01*
X4531664Y2846781D01*
X4539335Y2858262D01*
X4545431Y2870657D01*
X4549851Y2883712D01*
X4552543Y2897225D01*
X4553458Y2910992D01*
X4552543Y2924759D01*
X4549851Y2938322D01*
X4545431Y2951378D01*
X4539335Y2963722D01*
X4531664Y2975203D01*
X4522571Y2985566D01*
X4512208Y2994660D01*
X4500727Y3002330D01*
X4488332Y3008426D01*
X4475276Y3012897D01*
X4461764Y3015589D01*
X4447997Y3016453D01*
X4434230Y3015589D01*
X4420666Y3012897D01*
X4407611Y3008426D01*
X4404817Y3007055D01*
X4400753Y3006039D01*
X4396638Y3006699D01*
X4393133Y3008985D01*
X4280814Y3121304D01*
X4277004Y3124555D01*
X4271365Y3127806D01*
X4265320Y3129788D01*
X4258462Y3130499D01*
X3991051Y3130499D01*
X3986987Y3131362D01*
X3983583Y3133750D01*
X3981450Y3137306D01*
X3980891Y3138881D01*
X3976166Y3146094D01*
X3975404Y3150006D01*
X3976166Y3153867D01*
X3980891Y3161131D01*
X3981450Y3162706D01*
X3983583Y3166262D01*
X3986987Y3168650D01*
X3991051Y3169513D01*
X4109567Y3169513D01*
X4114596Y3169920D01*
X4120896Y3171596D01*
X4126585Y3174492D01*
X4131919Y3178810D01*
X4469282Y3516172D01*
X4472533Y3519982D01*
X4475784Y3525621D01*
X4477766Y3531666D01*
X4478477Y3538524D01*
X4478477Y3574287D01*
X4479340Y3578351D01*
X4481728Y3581704D01*
X4498238Y3590391D01*
X4509008Y3598011D01*
X4518660Y3607003D01*
X4526991Y3617264D01*
X4533849Y3628491D01*
X4539081Y3640632D01*
X4542637Y3653332D01*
X4544415Y3666388D01*
X4544415Y3679596D01*
X4542637Y3692651D01*
X4539081Y3705351D01*
X4533849Y3717493D01*
X4526991Y3728720D01*
X4518660Y3738981D01*
X4509008Y3747973D01*
X4498238Y3755593D01*
X4486503Y3761638D01*
X4474057Y3766058D01*
X4461154Y3768750D01*
X4447997Y3769664D01*
X4434840Y3768750D01*
X4421886Y3766058D01*
X4409490Y3761638D01*
X4397756Y3755593D01*
X4386986Y3747973D01*
X4377334Y3738981D01*
X4369003Y3728720D01*
X4362145Y3717493D01*
X4356912Y3705351D01*
X4353356Y3692651D01*
X4351528Y3679596D01*
X4351528Y3666388D01*
X4353356Y3653332D01*
X4356912Y3640632D01*
X4362145Y3628491D01*
X4369003Y3617264D01*
X4377334Y3607003D01*
X4386986Y3598011D01*
X4397756Y3590391D01*
X4414266Y3581704D01*
X4416653Y3578351D01*
X4417517Y3574287D01*
X4417517Y3554831D01*
X4416704Y3550970D01*
X4414520Y3547668D01*
X4100322Y3233470D01*
X4097020Y3231286D01*
X4093159Y3230473D01*
X3991051Y3230473D01*
X3986987Y3231337D01*
X3983583Y3233724D01*
X3981450Y3237280D01*
X3980891Y3238855D01*
X3978452Y3242767D01*
X3975201Y3245967D01*
X3971340Y3248406D01*
X3967022Y3249930D01*
X3961892Y3250488D01*
X3838041Y3250488D01*
X3832961Y3249930D01*
X3828643Y3248406D01*
X3824732Y3245967D01*
X3821531Y3242767D01*
X3819093Y3238855D01*
X3817569Y3234537D01*
X3817010Y3229457D01*
X3817010Y3170580D01*
X3817569Y3165449D01*
X3819093Y3161131D01*
X3823766Y3153867D01*
X3824579Y3150006D01*
X3823766Y3146094D01*
X3819093Y3138881D01*
X3817569Y3134563D01*
X3817010Y3129432D01*
X3817010Y3070555D01*
X3817569Y3065424D01*
X3819093Y3061106D01*
X3823766Y3053892D01*
X3824579Y3049981D01*
X3823766Y3046120D01*
X3819093Y3038856D01*
X3817569Y3034538D01*
X3817010Y3029407D01*
X3817010Y2970580D01*
X3817569Y2965450D01*
X3819093Y2961132D01*
X3823766Y2953867D01*
X3824579Y2950006D01*
X3823766Y2946095D01*
X3819093Y2938881D01*
X3817569Y2934563D01*
X3817010Y2929432D01*
X3817010Y2870555D01*
X3817569Y2865424D01*
X3819093Y2861106D01*
X3823766Y2853893D01*
X3824579Y2849981D01*
X3823766Y2846120D01*
X3819093Y2838856D01*
X3817569Y2834538D01*
X3817010Y2829407D01*
X3817010Y2770581D01*
X3817569Y2765450D01*
X3819093Y2761132D01*
X3823766Y2753868D01*
X3824579Y2750007D01*
X3823766Y2746095D01*
X3819093Y2738882D01*
X3817569Y2734564D01*
X3817010Y2729433D01*
X3817010Y2670556D01*
X3817569Y2665425D01*
X3819093Y2661107D01*
X3823766Y2653893D01*
X3824579Y2649982D01*
X3823766Y2646121D01*
X3819093Y2638856D01*
X3817569Y2634538D01*
X3817010Y2629408D01*
X3817010Y2570581D01*
X3817569Y2565450D01*
X3819093Y2561132D01*
X3823766Y2553868D01*
X3824579Y2550007D01*
X3823766Y2546096D01*
X3819093Y2538882D01*
X3817569Y2534564D01*
X3817010Y2529433D01*
X3817010Y2470556D01*
X3817569Y2465425D01*
X3819093Y2461107D01*
X3823766Y2453894D01*
X3824579Y2449982D01*
X3823766Y2446121D01*
X3819093Y2438857D01*
X3817569Y2434539D01*
X3817010Y2429408D01*
X3817010Y2370582D01*
X3817569Y2365451D01*
X3819093Y2361133D01*
X3821328Y2356154D01*
X3821328Y2352344D01*
X3819855Y2348788D01*
X3817213Y2346045D01*
X3813708Y2344470D01*
X3809898Y2344267D01*
X3802176Y2345385D01*
X3793540Y2344978D01*
X3785108Y2342946D01*
X3777284Y2339340D01*
X3770223Y2334361D01*
X3764279Y2328113D01*
X3759606Y2320798D01*
X3756406Y2312822D01*
X3754729Y2304338D01*
X3754729Y2295652D01*
X3756406Y2287168D01*
X3759606Y2279192D01*
X3764279Y2271877D01*
X3770223Y2265629D01*
X3777284Y2260650D01*
X3785108Y2257044D01*
X3793540Y2255012D01*
X3802176Y2254605D01*
X3810711Y2255824D01*
X3813810Y2256891D01*
X3817518Y2257450D01*
X3821176Y2256586D01*
X3824732Y2253996D01*
X3828643Y2251608D01*
X3832961Y2250084D01*
X3838041Y2249474D01*
X3961892Y2249474D01*
X3967022Y2250084D01*
X3971340Y2251608D01*
X3973829Y2253132D01*
X3977894Y2254605D01*
X3982161Y2254300D01*
X3985920Y2252218D01*
X3988511Y2248763D01*
X3989425Y2244547D01*
X3989425Y1561388D01*
X3989781Y1556359D01*
X3991508Y1550060D01*
X3994353Y1544421D01*
X3998722Y1539036D01*
X4349953Y1187805D01*
X4352239Y1184300D01*
X4352950Y1180185D01*
X4351883Y1176121D01*
X4350562Y1173378D01*
X4346092Y1160322D01*
X4343400Y1146759D01*
X4342485Y1132992D01*
X4343400Y1119225D01*
X4346092Y1105712D01*
X4350562Y1092657D01*
X4356658Y1080262D01*
X4364329Y1068781D01*
X4370832Y1061364D01*
X4372762Y1058011D01*
X4373321Y1054201D01*
X4372457Y1050442D01*
X4370222Y1047343D01*
X4366971Y1045210D01*
X4363161Y1044498D01*
X3783533Y1044498D01*
X3779672Y1045260D01*
X3776370Y1047496D01*
X3470859Y1352753D01*
X3468624Y1356055D01*
X3467862Y1359966D01*
X3467862Y1745538D01*
X3468725Y1749602D01*
X3471113Y1752955D01*
X3474669Y1755139D01*
X3478885Y1756613D01*
X3482746Y1759000D01*
X3485997Y1762252D01*
X3488385Y1766112D01*
X3489909Y1770430D01*
X3490518Y1775561D01*
X3490518Y1864410D01*
X3489909Y1869541D01*
X3488385Y1873859D01*
X3485997Y1877720D01*
X3482746Y1880971D01*
X3478885Y1883410D01*
X3474567Y1884934D01*
X3469436Y1885492D01*
X3450590Y1885492D01*
X3446678Y1886254D01*
X3443427Y1888489D01*
X3441192Y1891792D01*
X3440429Y1895652D01*
X3440429Y2013813D01*
X3441344Y2018030D01*
X3443935Y2021484D01*
X3447745Y2023567D01*
X3452063Y2023872D01*
X3456076Y2022348D01*
X3461156Y2019046D01*
X3465423Y2017572D01*
X3470554Y2017014D01*
X3529431Y2017014D01*
X3534511Y2017572D01*
X3538829Y2019096D01*
X3546094Y2023821D01*
X3550005Y2024583D01*
X3553866Y2023821D01*
X3561130Y2019096D01*
X3565448Y2017572D01*
X3570528Y2017014D01*
X3629406Y2017014D01*
X3634536Y2017572D01*
X3638854Y2019096D01*
X3646119Y2023821D01*
X3649979Y2024583D01*
X3653891Y2023821D01*
X3661105Y2019096D01*
X3665423Y2017572D01*
X3670554Y2017014D01*
X3729431Y2017014D01*
X3734511Y2017572D01*
X3738829Y2019096D01*
X3742740Y2021535D01*
X3745941Y2024735D01*
X3748379Y2028647D01*
X3749903Y2032965D01*
X3750462Y2038045D01*
X3750462Y2161946D01*
X3749903Y2167026D01*
X3748379Y2171344D01*
X3743451Y2178659D01*
X3742588Y2182114D01*
X3742944Y2185720D01*
X3744620Y2191410D01*
X3745433Y2199995D01*
X3744620Y2208580D01*
X3742182Y2216912D01*
X3738219Y2224582D01*
X3732885Y2231339D01*
X3726332Y2237028D01*
X3718864Y2241346D01*
X3710686Y2244191D01*
X3702151Y2245410D01*
X3693515Y2245004D01*
X3685133Y2242972D01*
X3677259Y2239365D01*
X3670249Y2234336D01*
X3664254Y2228088D01*
X3657295Y2217013D01*
X3654145Y2214778D01*
X3650437Y2213864D01*
X3646627Y2214422D01*
X3643274Y2216353D01*
X3640886Y2219401D01*
X3638245Y2224582D01*
X3632911Y2231339D01*
X3626358Y2237028D01*
X3618890Y2241346D01*
X3610711Y2244191D01*
X3602177Y2245410D01*
X3593541Y2245004D01*
X3585108Y2242972D01*
X3577285Y2239365D01*
X3570224Y2234336D01*
X3564280Y2228088D01*
X3557270Y2217013D01*
X3554171Y2214778D01*
X3550412Y2213864D01*
X3546601Y2214422D01*
X3543300Y2216353D01*
X3540912Y2219401D01*
X3538220Y2224582D01*
X3532886Y2231339D01*
X3526383Y2237028D01*
X3518865Y2241346D01*
X3510686Y2244191D01*
X3502151Y2245410D01*
X3493515Y2245004D01*
X3485134Y2242972D01*
X3477260Y2239365D01*
X3470249Y2234336D01*
X3464255Y2228088D01*
X3459581Y2220823D01*
X3457498Y2215540D01*
X3455314Y2212238D01*
X3452012Y2209952D01*
X3448100Y2209190D01*
X3444189Y2209901D01*
X3440887Y2212136D01*
X3438651Y2215438D01*
X3437890Y2219350D01*
X3437890Y2860040D01*
X3438651Y2863951D01*
X3440887Y2867253D01*
X3651453Y3077819D01*
X3656482Y3083966D01*
X3659987Y3090519D01*
X3662172Y3097631D01*
X3662934Y3105556D01*
X3662934Y3390137D01*
X3663696Y3394049D01*
X3665931Y3397351D01*
X4086555Y3817721D01*
X4091584Y3823868D01*
X4095089Y3830421D01*
X4097274Y3837533D01*
X4098036Y3845458D01*
X4098036Y4607407D01*
X4098747Y4611116D01*
X4100728Y4614316D01*
X4103776Y4616551D01*
X4107434Y4617567D01*
X4111193Y4617110D01*
X4114546Y4615383D01*
X4125772Y4606391D01*
X4137863Y4599076D01*
X4150817Y4593336D01*
X4164380Y4589272D01*
X4178401Y4587036D01*
X4192524Y4586579D01*
X4206595Y4587951D01*
X4220413Y4591100D01*
X4233722Y4595977D01*
X4246270Y4602530D01*
X4257852Y4610608D01*
X4268368Y4620158D01*
X4277512Y4630928D01*
X4285234Y4642764D01*
X4291380Y4655566D01*
X4295851Y4668977D01*
X4298543Y4682896D01*
X4299458Y4697018D01*
X4298543Y4711141D01*
X4295851Y4725009D01*
X4291380Y4738471D01*
X4285234Y4751222D01*
X4277512Y4763058D01*
X4268368Y4773879D01*
X4257852Y4783378D01*
X4246270Y4791456D01*
X4233722Y4798009D01*
X4220413Y4802886D01*
X4206595Y4806086D01*
X4192524Y4807407D01*
X4178401Y4806950D01*
X4164380Y4804714D01*
X4150817Y4800701D01*
X4137863Y4794961D01*
X4125772Y4787595D01*
X4114698Y4778806D01*
X4104843Y4768596D01*
X4096410Y4757267D01*
X4089450Y4744923D01*
X4087977Y4741367D01*
X4085793Y4738014D01*
X4082491Y4735779D01*
X4078579Y4735017D01*
X4045458Y4735017D01*
X4041749Y4735677D01*
X4038549Y4737709D01*
X4036263Y4740757D01*
X4031234Y4751222D01*
X4023512Y4763058D01*
X4014368Y4773879D01*
X4003852Y4783378D01*
X3992270Y4791456D01*
X3979722Y4798009D01*
X3966413Y4802886D01*
X3952595Y4806086D01*
X3938524Y4807407D01*
X3924401Y4806950D01*
X3910380Y4804714D01*
X3896817Y4800701D01*
X3883863Y4794961D01*
X3871772Y4787595D01*
X3860698Y4778806D01*
X3850843Y4768596D01*
X3842410Y4757267D01*
X3835450Y4744923D01*
X3830116Y4731816D01*
X3826560Y4718100D01*
X3824732Y4704080D01*
X3824732Y4689906D01*
X3826560Y4675886D01*
X3830116Y4662170D01*
X3835450Y4649063D01*
X3842410Y4636719D01*
X3850843Y4625390D01*
X3860698Y4615230D01*
X3871772Y4606391D01*
X3883863Y4599076D01*
X3896817Y4593336D01*
X3910380Y4589272D01*
X3924401Y4587036D01*
X3938524Y4586579D01*
X3952595Y4587951D01*
X3966413Y4591100D01*
X3979722Y4595977D01*
X3992270Y4602530D01*
X4008374Y4613706D01*
X4012184Y4614316D01*
X4015994Y4613452D01*
X4019194Y4611268D01*
X4021277Y4607966D01*
X4022039Y4604156D01*
X4022039Y4535830D01*
X4021277Y4532020D01*
X4019194Y4528769D01*
X4015994Y4526534D01*
X4012184Y4525670D01*
X4008374Y4526280D01*
X3992270Y4537456D01*
X3979722Y4544009D01*
X3966413Y4548886D01*
X3952595Y4552086D01*
X3938524Y4553407D01*
X3924401Y4552950D01*
X3910380Y4550714D01*
X3896817Y4546701D01*
X3883863Y4540961D01*
X3871772Y4533595D01*
X3860698Y4524806D01*
X3850843Y4514596D01*
X3842410Y4503267D01*
X3835450Y4490923D01*
X3830116Y4477816D01*
X3826560Y4464100D01*
X3824732Y4450080D01*
X3824732Y4435906D01*
X3826560Y4421886D01*
X3830116Y4408170D01*
X3835349Y4395266D01*
X3836111Y4391406D01*
X3835349Y4387545D01*
X3833114Y4384294D01*
X3678732Y4229862D01*
X3675481Y4226052D01*
X3672230Y4220413D01*
X3670249Y4214368D01*
X3669537Y4207510D01*
X3669537Y3791051D01*
X3668674Y3786987D01*
X3666286Y3783584D01*
X3662730Y3781450D01*
X3661156Y3780891D01*
X3653891Y3776218D01*
X3650030Y3775405D01*
X3646119Y3776218D01*
X3638854Y3780891D01*
X3637330Y3781450D01*
X3633774Y3783584D01*
X3631387Y3786987D01*
X3630523Y3791051D01*
X3630523Y4329379D01*
X3631234Y4333036D01*
X3633215Y4336237D01*
X3636213Y4338472D01*
X3639820Y4339488D01*
X3643579Y4339082D01*
X3656380Y4335272D01*
X3670401Y4333036D01*
X3684524Y4332579D01*
X3698595Y4333951D01*
X3712413Y4337100D01*
X3725722Y4341977D01*
X3738270Y4348530D01*
X3749852Y4356608D01*
X3760368Y4366158D01*
X3769512Y4376928D01*
X3777234Y4388764D01*
X3783380Y4401566D01*
X3787851Y4414977D01*
X3790543Y4428896D01*
X3791458Y4443018D01*
X3790543Y4457141D01*
X3787851Y4471009D01*
X3783380Y4484471D01*
X3777234Y4497222D01*
X3769512Y4509058D01*
X3760368Y4519879D01*
X3749852Y4529378D01*
X3738270Y4537456D01*
X3725722Y4544009D01*
X3712413Y4548886D01*
X3698595Y4552086D01*
X3684524Y4553407D01*
X3670401Y4552950D01*
X3656380Y4550714D01*
X3642817Y4546701D01*
X3629863Y4540961D01*
X3617772Y4533595D01*
X3606698Y4524806D01*
X3596843Y4514596D01*
X3588410Y4503267D01*
X3581450Y4490923D01*
X3576116Y4477816D01*
X3572560Y4464100D01*
X3570732Y4450080D01*
X3570732Y4435906D01*
X3572560Y4421886D01*
X3576116Y4408170D01*
X3581349Y4395266D01*
X3582111Y4391609D01*
X3581501Y4387951D01*
X3579622Y4384802D01*
X3575405Y4379976D01*
X3572205Y4374388D01*
X3570224Y4368342D01*
X3569512Y4361484D01*
X3569512Y3791051D01*
X3568649Y3786987D01*
X3566261Y3783584D01*
X3562705Y3781450D01*
X3561130Y3780891D01*
X3553917Y3776218D01*
X3550005Y3775405D01*
X3546144Y3776218D01*
X3538880Y3780891D01*
X3537305Y3781450D01*
X3533749Y3783584D01*
X3531362Y3786987D01*
X3530498Y3791051D01*
X3530498Y4369562D01*
X3530142Y4374591D01*
X3528415Y4380890D01*
X3526078Y4385462D01*
X3525113Y4388408D01*
X3525113Y4391507D01*
X3525977Y4394504D01*
X3529380Y4401566D01*
X3533851Y4414977D01*
X3536543Y4428896D01*
X3537458Y4443018D01*
X3536543Y4457141D01*
X3533851Y4471009D01*
X3529380Y4484471D01*
X3523234Y4497222D01*
X3515512Y4509058D01*
X3506368Y4519879D01*
X3495852Y4529378D01*
X3484270Y4537456D01*
X3471722Y4544009D01*
X3458413Y4548886D01*
X3444595Y4552086D01*
X3430524Y4553407D01*
X3416401Y4552950D01*
X3402380Y4550714D01*
X3388817Y4546701D01*
X3375863Y4540961D01*
X3363772Y4533595D01*
X3352698Y4524806D01*
X3342843Y4514596D01*
X3334410Y4503267D01*
X3327450Y4490923D01*
X3322116Y4477816D01*
X3318560Y4464100D01*
X3316732Y4450080D01*
X3316732Y4435906D01*
X3318560Y4421886D01*
X3322116Y4408170D01*
X3327450Y4395063D01*
X3334410Y4382719D01*
X3342843Y4371390D01*
X3352698Y4361230D01*
X3363772Y4352391D01*
X3375863Y4345076D01*
X3388817Y4339336D01*
X3402380Y4335272D01*
X3416401Y4333036D01*
X3430524Y4332579D01*
X3444595Y4333951D01*
X3457092Y4336796D01*
X3460699Y4336948D01*
X3464153Y4335830D01*
X3466998Y4333544D01*
X3468878Y4330446D01*
X3469538Y4326890D01*
X3469538Y3791051D01*
X3468674Y3786987D01*
X3466287Y3783584D01*
X3462731Y3781450D01*
X3461156Y3780891D01*
X3453892Y3776218D01*
X3450031Y3775405D01*
X3446119Y3776218D01*
X3438855Y3780891D01*
X3437280Y3781450D01*
X3433724Y3783584D01*
X3431336Y3786987D01*
X3430473Y3791051D01*
X3430473Y4215587D01*
X3430117Y4220616D01*
X3428390Y4226915D01*
X3425545Y4232554D01*
X3421176Y4237939D01*
X3274720Y4384446D01*
X3272434Y4387900D01*
X3271723Y4391964D01*
X3272739Y4396028D01*
X3275380Y4401566D01*
X3279851Y4414977D01*
X3282543Y4428896D01*
X3283458Y4443018D01*
X3282543Y4457141D01*
X3279851Y4471009D01*
X3275380Y4484471D01*
X3269234Y4497222D01*
X3261512Y4509058D01*
X3252368Y4519879D01*
X3241852Y4529378D01*
X3230270Y4537456D01*
X3217722Y4544009D01*
X3204413Y4548886D01*
X3190595Y4552086D01*
X3176524Y4553407D01*
X3162401Y4552950D01*
X3148380Y4550714D01*
X3134817Y4546701D01*
X3121863Y4540961D01*
X3109772Y4533595D01*
X3098698Y4524806D01*
X3088843Y4514596D01*
X3080410Y4503267D01*
X3073450Y4490923D01*
X3068116Y4477816D01*
X3064560Y4464100D01*
X3062732Y4450080D01*
X3062732Y4435906D01*
X3064560Y4421886D01*
X3068116Y4408170D01*
X3073450Y4395063D01*
X3080410Y4382719D01*
X3088843Y4371390D01*
X3098698Y4361230D01*
X3109772Y4352391D01*
X3121863Y4345076D01*
X3134817Y4339336D01*
X3148380Y4335272D01*
X3162401Y4333036D01*
X3176524Y4332579D01*
X3190595Y4333951D01*
X3204413Y4337100D01*
X3217722Y4341977D01*
X3219754Y4343044D01*
X3223869Y4344162D01*
X3228086Y4343552D01*
X3231642Y4341215D01*
X3366515Y4206341D01*
X3368700Y4203039D01*
X3369513Y4199178D01*
X3369513Y3791051D01*
X3368649Y3786987D01*
X3366262Y3783584D01*
X3362706Y3781450D01*
X3361131Y3780891D01*
X3353917Y3776218D01*
X3350006Y3775405D01*
X3346145Y3776218D01*
X3338880Y3780891D01*
X3337306Y3781450D01*
X3333750Y3783584D01*
X3331362Y3786987D01*
X3330498Y3791051D01*
X3330498Y4061612D01*
X3330092Y4066641D01*
X3328415Y4072890D01*
X3325520Y4078579D01*
X3321202Y4083913D01*
X3020720Y4384446D01*
X3018434Y4387900D01*
X3017723Y4391964D01*
X3018739Y4396028D01*
X3021380Y4401566D01*
X3025851Y4414977D01*
X3028543Y4428896D01*
X3029458Y4443018D01*
X3028543Y4457141D01*
X3025851Y4471009D01*
X3021380Y4484471D01*
X3015234Y4497222D01*
X3007512Y4509058D01*
X2998368Y4519879D01*
X2987852Y4529378D01*
X2976270Y4537456D01*
X2963722Y4544009D01*
X2950413Y4548886D01*
X2936595Y4552086D01*
X2922524Y4553407D01*
X2908401Y4552950D01*
X2894380Y4550714D01*
X2880817Y4546701D01*
X2867863Y4540961D01*
X2855772Y4533595D01*
X2844698Y4524806D01*
X2834843Y4514596D01*
X2826410Y4503267D01*
X2819450Y4490923D01*
X2814116Y4477816D01*
X2810560Y4464100D01*
X2808732Y4450080D01*
X2808732Y4435906D01*
X2810560Y4421886D01*
X2814116Y4408170D01*
X2819450Y4395063D01*
X2826410Y4382719D01*
X2834843Y4371390D01*
X2844698Y4361230D01*
X2855772Y4352391D01*
X2867863Y4345076D01*
X2880817Y4339336D01*
X2894380Y4335272D01*
X2908401Y4333036D01*
X2922524Y4332579D01*
X2936595Y4333951D01*
X2950413Y4337100D01*
X2963722Y4341977D01*
X2965754Y4343044D01*
X2969869Y4344162D01*
X2974086Y4343552D01*
X2977642Y4341215D01*
X3266541Y4052315D01*
X3268726Y4049064D01*
X3269488Y4045153D01*
X3269488Y3791051D01*
X3268624Y3786987D01*
X3266236Y3783584D01*
X3262680Y3781450D01*
X3261156Y3780891D01*
X3253892Y3776218D01*
X3250031Y3775405D01*
X3246120Y3776218D01*
X3238855Y3780891D01*
X3237280Y3781450D01*
X3233724Y3783584D01*
X3231337Y3786987D01*
X3230473Y3791051D01*
X3230473Y3907586D01*
X3230118Y3912615D01*
X3228390Y3918915D01*
X3225546Y3924554D01*
X3221177Y3929938D01*
X2766720Y4384446D01*
X2764434Y4387900D01*
X2763723Y4391964D01*
X2764739Y4396028D01*
X2767380Y4401566D01*
X2771851Y4414977D01*
X2774543Y4428896D01*
X2775458Y4443018D01*
X2774543Y4457141D01*
X2771851Y4471009D01*
X2767380Y4484471D01*
X2761234Y4497222D01*
X2753512Y4509058D01*
X2744368Y4519879D01*
X2733852Y4529378D01*
X2722270Y4537456D01*
X2709722Y4544009D01*
X2696413Y4548886D01*
X2682595Y4552086D01*
X2668524Y4553407D01*
X2654401Y4552950D01*
X2640380Y4550714D01*
X2626817Y4546701D01*
X2613863Y4540961D01*
X2601772Y4533595D01*
X2590698Y4524806D01*
X2580843Y4514596D01*
X2572410Y4503267D01*
X2565450Y4490923D01*
X2560116Y4477816D01*
X2556560Y4464100D01*
X2554732Y4450080D01*
X2554732Y4435906D01*
X2556560Y4421886D01*
X2560116Y4408170D01*
X2565450Y4395063D01*
X2572410Y4382719D01*
X2580843Y4371390D01*
X2590698Y4361230D01*
X2601772Y4352391D01*
X2613863Y4345076D01*
X2626817Y4339336D01*
X2640380Y4335272D01*
X2654401Y4333036D01*
X2668524Y4332579D01*
X2682595Y4333951D01*
X2696413Y4337100D01*
X2709722Y4341977D01*
X2711754Y4343044D01*
X2715869Y4344162D01*
X2720086Y4343552D01*
X2723642Y4341215D01*
X3166516Y3898341D01*
X3168700Y3895039D01*
X3169513Y3891178D01*
X3169513Y3791051D01*
X3168650Y3786987D01*
X3166262Y3783584D01*
X3162706Y3781450D01*
X3161131Y3780891D01*
X3157270Y3778504D01*
X3154019Y3775252D01*
X3151581Y3771392D01*
X3150108Y3767074D01*
X3149498Y3761943D01*
X3149498Y3638092D01*
X3150108Y3632962D01*
X3151581Y3628644D01*
X3154019Y3624783D01*
X3157270Y3621532D01*
X3161131Y3619093D01*
X3165449Y3617569D01*
X3170580Y3617010D01*
X3229457Y3617010D01*
X3234537Y3617569D01*
X3238855Y3619093D01*
X3246120Y3623818D01*
X3250031Y3624579D01*
X3253892Y3623818D01*
X3261156Y3619093D01*
X3265474Y3617569D01*
X3270605Y3617010D01*
X3329432Y3617010D01*
X3334562Y3617569D01*
X3338880Y3619093D01*
X3346145Y3623818D01*
X3350006Y3624579D01*
X3353917Y3623818D01*
X3361131Y3619093D01*
X3365449Y3617569D01*
X3370579Y3617010D01*
X3429457Y3617010D01*
X3434537Y3617569D01*
X3438855Y3619093D01*
X3446119Y3623818D01*
X3450031Y3624579D01*
X3453892Y3623818D01*
X3461156Y3619093D01*
X3465474Y3617569D01*
X3470605Y3617010D01*
X3529431Y3617010D01*
X3534562Y3617569D01*
X3538880Y3619093D01*
X3546144Y3623818D01*
X3550005Y3624579D01*
X3553917Y3623818D01*
X3561130Y3619093D01*
X3565448Y3617569D01*
X3570579Y3617010D01*
X3629456Y3617010D01*
X3634536Y3617569D01*
X3638854Y3619093D01*
X3646119Y3623818D01*
X3650030Y3624579D01*
X3653891Y3623818D01*
X3661156Y3619093D01*
X3665474Y3617569D01*
X3670604Y3617010D01*
X3729431Y3617010D01*
X3734562Y3617569D01*
X3738879Y3619093D01*
X3742740Y3621532D01*
X3745992Y3624783D01*
X3748430Y3628644D01*
X3749954Y3632962D01*
X3750513Y3638092D01*
X3750513Y3761943D01*
X3749954Y3767074D01*
X3748430Y3771392D01*
X3745992Y3775252D01*
X3742740Y3778504D01*
X3738879Y3780891D01*
X3737305Y3781450D01*
X3733749Y3783584D01*
X3731361Y3786987D01*
X3730498Y3791051D01*
X3730498Y4191203D01*
X3731310Y4195064D01*
X3733495Y4198366D01*
X3876395Y4341266D01*
X3879748Y4343501D01*
X3883710Y4344263D01*
X3887673Y4343349D01*
X3896817Y4339336D01*
X3910380Y4335272D01*
X3924401Y4333036D01*
X3938524Y4332579D01*
X3952595Y4333951D01*
X3966413Y4337100D01*
X3979722Y4341977D01*
X3992270Y4348530D01*
X4008374Y4359706D01*
X4012184Y4360316D01*
X4015994Y4359452D01*
X4019194Y4357268D01*
X4021277Y4353966D01*
X4022039Y4350156D01*
X4022039Y3864914D01*
X4021277Y3861003D01*
X4019042Y3857701D01*
X3598418Y3437331D01*
X3593388Y3431184D01*
X3589883Y3424631D01*
X3587699Y3417519D01*
X3586937Y3409594D01*
X3586937Y3125012D01*
X3586175Y3121101D01*
X3583940Y3117799D01*
X3373374Y2907233D01*
X3368344Y2901086D01*
X3364839Y2894533D01*
X3362655Y2887421D01*
X3361893Y2879496D01*
X3361893Y2186990D01*
X3361334Y2183688D01*
X3359708Y2180742D01*
X3354019Y2175256D01*
X3351580Y2171344D01*
X3350056Y2167026D01*
X3349498Y2161946D01*
X3349498Y2038045D01*
X3350056Y2032965D01*
X3351580Y2028647D01*
X3354019Y2024735D01*
X3356559Y2022195D01*
X3358743Y2018893D01*
X3359556Y2015032D01*
X3359556Y1870608D01*
X3358743Y1866747D01*
X3356559Y1863445D01*
X3353257Y1861210D01*
X3349396Y1860448D01*
X2030679Y1859584D01*
X2026970Y1860245D01*
X2023770Y1862226D01*
X2021535Y1865223D01*
X2018334Y1871725D01*
X2010664Y1883206D01*
X2001570Y1893570D01*
X1991207Y1902663D01*
X1979726Y1910334D01*
X1973122Y1913585D01*
X1970125Y1915871D01*
X1968144Y1919020D01*
X1967433Y1922729D01*
X1967433Y1969262D01*
X1968144Y1972970D01*
X1970125Y1976120D01*
X1973122Y1978406D01*
X1979726Y1981657D01*
X1991207Y1989328D01*
X2001570Y1998421D01*
X2010664Y2008784D01*
X2018334Y2020265D01*
X2024430Y2032609D01*
X2028850Y2045716D01*
X2031542Y2059228D01*
X2032457Y2072995D01*
X2031542Y2086762D01*
X2028850Y2100275D01*
X2024430Y2113381D01*
X2018334Y2125726D01*
X2010664Y2137206D01*
X2001570Y2147570D01*
X1991207Y2156663D01*
X1979726Y2164334D01*
X1967331Y2170430D01*
X1954275Y2174900D01*
X1940763Y2177592D01*
X1926996Y2178456D01*
X1913229Y2177592D01*
X1894332Y2173782D01*
X1890674Y2174646D01*
X1887575Y2176729D01*
X1848459Y2215845D01*
X1846275Y2219147D01*
X1845462Y2223058D01*
X1845462Y2490063D01*
X1846224Y2493822D01*
X1848307Y2497074D01*
X1851456Y2499309D01*
X1855216Y2500223D01*
X1859025Y2499664D01*
X1874266Y2489657D01*
X1886610Y2483561D01*
X1899666Y2479090D01*
X1913229Y2476449D01*
X1926996Y2475534D01*
X1940763Y2476449D01*
X1954275Y2479090D01*
X1967331Y2483561D01*
X1970176Y2484932D01*
X1974189Y2485999D01*
X1978355Y2485288D01*
X1981860Y2483002D01*
X2076500Y2388362D01*
X2078736Y2385060D01*
X2079498Y2381148D01*
X2079498Y2160422D01*
X2079904Y2155342D01*
X2081580Y2149094D01*
X2084476Y2143404D01*
X2088794Y2138070D01*
X2148128Y2078736D01*
X2151989Y2075434D01*
X2157577Y2072182D01*
X2163673Y2070201D01*
X2170531Y2069490D01*
X2439314Y2069490D01*
X2443226Y2068728D01*
X2446528Y2066543D01*
X2448712Y2063242D01*
X2449474Y2059330D01*
X2449474Y2038096D01*
X2450084Y2032965D01*
X2451557Y2028647D01*
X2453995Y2024786D01*
X2457246Y2021535D01*
X2461107Y2019096D01*
X2465425Y2017572D01*
X2470556Y2017014D01*
X2529433Y2017014D01*
X2534513Y2017572D01*
X2538831Y2019096D01*
X2542743Y2021535D01*
X2545943Y2024786D01*
X2548382Y2028647D01*
X2549906Y2032965D01*
X2550464Y2038096D01*
X2550464Y2161946D01*
X2549906Y2167077D01*
X2548382Y2171395D01*
X2545943Y2175256D01*
X2542743Y2178507D01*
X2538831Y2180894D01*
X2534513Y2182418D01*
X2529433Y2183028D01*
X2470556Y2183028D01*
X2465425Y2182418D01*
X2461107Y2180894D01*
X2457246Y2178507D01*
X2453995Y2175256D01*
X2451557Y2171395D01*
X2450084Y2167077D01*
X2449474Y2161946D01*
X2449474Y2140661D01*
X2448712Y2136749D01*
X2446528Y2133498D01*
X2443226Y2131263D01*
X2439314Y2130501D01*
X2186838Y2130501D01*
X2182926Y2131263D01*
X2179624Y2133498D01*
X2143455Y2169668D01*
X2141270Y2172970D01*
X2140508Y2176830D01*
X2140508Y2374290D01*
X2141423Y2378506D01*
X2144014Y2381961D01*
X2147773Y2384044D01*
X2152091Y2384348D01*
X2156155Y2382875D01*
X2159203Y2379776D01*
X2164283Y2371902D01*
X2170226Y2365654D01*
X2177288Y2360625D01*
X2185111Y2357018D01*
X2193544Y2354986D01*
X2202180Y2354580D01*
X2210714Y2355799D01*
X2213813Y2356866D01*
X2217521Y2357424D01*
X2221179Y2356612D01*
X2224735Y2354021D01*
X2228646Y2351582D01*
X2232964Y2350058D01*
X2238044Y2349500D01*
X2361895Y2349500D01*
X2367026Y2350058D01*
X2371344Y2351582D01*
X2375204Y2354021D01*
X2378456Y2357272D01*
X2380894Y2361133D01*
X2382418Y2365451D01*
X2382977Y2370582D01*
X2382977Y2429459D01*
X2382418Y2434539D01*
X2380894Y2438857D01*
X2376170Y2446121D01*
X2375408Y2449982D01*
X2376170Y2453894D01*
X2380894Y2461158D01*
X2382418Y2465476D01*
X2382977Y2470556D01*
X2382977Y2519324D01*
X2383739Y2523236D01*
X2385974Y2526538D01*
X2389276Y2528722D01*
X2393137Y2529484D01*
X2397048Y2528722D01*
X2400350Y2526538D01*
X2568143Y2358694D01*
X2572004Y2355443D01*
X2577642Y2352192D01*
X2583688Y2350211D01*
X2590546Y2349500D01*
X2872181Y2349500D01*
X2876194Y2348636D01*
X2887268Y2340610D01*
X2895092Y2337003D01*
X2903524Y2334971D01*
X2912160Y2334564D01*
X2920695Y2335784D01*
X2928874Y2338628D01*
X2936341Y2342946D01*
X2942894Y2348636D01*
X2948228Y2355392D01*
X2952191Y2363063D01*
X2954629Y2371394D01*
X2955442Y2379980D01*
X2954629Y2388565D01*
X2952191Y2396896D01*
X2948228Y2404567D01*
X2942894Y2411323D01*
X2936341Y2417013D01*
X2928874Y2421331D01*
X2920695Y2424176D01*
X2912160Y2425395D01*
X2903524Y2424988D01*
X2895092Y2422956D01*
X2887268Y2419350D01*
X2876194Y2411272D01*
X2872181Y2410460D01*
X2606852Y2410460D01*
X2602941Y2411272D01*
X2599639Y2413457D01*
X2560167Y2452979D01*
X2557881Y2456434D01*
X2557170Y2460498D01*
X2558186Y2464511D01*
X2560675Y2467813D01*
X2564282Y2469845D01*
X2568397Y2470251D01*
X2575509Y2469489D01*
X2987192Y2469489D01*
X2991205Y2468676D01*
X3002280Y2460650D01*
X3010103Y2457043D01*
X3018536Y2455011D01*
X3027172Y2454605D01*
X3035706Y2455824D01*
X3043885Y2458669D01*
X3051352Y2462987D01*
X3055975Y2466035D01*
X3059785Y2466594D01*
X3063544Y2465679D01*
X3066694Y2463444D01*
X3068777Y2460193D01*
X3069488Y2456434D01*
X3069488Y2191054D01*
X3068624Y2186990D01*
X3066237Y2183587D01*
X3062681Y2181453D01*
X3061106Y2180894D01*
X3053892Y2176221D01*
X3049981Y2175408D01*
X3046120Y2176221D01*
X3038856Y2180894D01*
X3034538Y2182418D01*
X3029407Y2183028D01*
X2970580Y2183028D01*
X2965450Y2182418D01*
X2961132Y2180894D01*
X2953867Y2176221D01*
X2950006Y2175408D01*
X2946095Y2176221D01*
X2938830Y2180894D01*
X2934512Y2182418D01*
X2929432Y2183028D01*
X2870555Y2183028D01*
X2865424Y2182418D01*
X2861106Y2180894D01*
X2854147Y2176322D01*
X2850591Y2175459D01*
X2846933Y2175916D01*
X2843682Y2177643D01*
X2841650Y2179218D01*
X2839364Y2181809D01*
X2838043Y2185060D01*
X2837891Y2188514D01*
X2838958Y2191816D01*
X2842158Y2198065D01*
X2844596Y2206396D01*
X2845409Y2214981D01*
X2844596Y2223566D01*
X2842158Y2231898D01*
X2838196Y2239568D01*
X2832862Y2246325D01*
X2826359Y2252014D01*
X2818841Y2256332D01*
X2810662Y2259177D01*
X2802128Y2260396D01*
X2793492Y2259990D01*
X2785110Y2257958D01*
X2777236Y2254351D01*
X2770225Y2249322D01*
X2764231Y2243074D01*
X2757220Y2231948D01*
X2754122Y2229713D01*
X2750362Y2228799D01*
X2746552Y2229358D01*
X2743200Y2231237D01*
X2740863Y2234285D01*
X2738120Y2239619D01*
X2732786Y2246376D01*
X2726232Y2252065D01*
X2718765Y2256383D01*
X2710586Y2259228D01*
X2702052Y2260447D01*
X2693416Y2260041D01*
X2684983Y2258009D01*
X2677160Y2254402D01*
X2670098Y2249373D01*
X2664155Y2243124D01*
X2659481Y2235860D01*
X2656281Y2227834D01*
X2654604Y2219350D01*
X2654604Y2210714D01*
X2656281Y2202230D01*
X2659481Y2194204D01*
X2660497Y2192629D01*
X2661920Y2188921D01*
X2661869Y2184908D01*
X2660243Y2181301D01*
X2653995Y2175256D01*
X2651556Y2171395D01*
X2650083Y2167077D01*
X2649474Y2161946D01*
X2649474Y2038096D01*
X2650083Y2032965D01*
X2651556Y2028647D01*
X2653995Y2024786D01*
X2657246Y2021535D01*
X2661107Y2019096D01*
X2665425Y2017572D01*
X2670556Y2017014D01*
X2729433Y2017014D01*
X2734513Y2017572D01*
X2738831Y2019096D01*
X2746095Y2023821D01*
X2750007Y2024583D01*
X2753868Y2023821D01*
X2761132Y2019096D01*
X2765450Y2017572D01*
X2770581Y2017014D01*
X2829407Y2017014D01*
X2834538Y2017572D01*
X2838856Y2019096D01*
X2845816Y2023668D01*
X2849422Y2024583D01*
X2853029Y2024125D01*
X2856280Y2022398D01*
X2858312Y2020773D01*
X2860751Y2017979D01*
X2862021Y2014474D01*
X2861970Y2010765D01*
X2859582Y2005787D01*
X2856382Y1997811D01*
X2854706Y1989328D01*
X2854706Y1980641D01*
X2856382Y1972157D01*
X2859582Y1964182D01*
X2864256Y1956866D01*
X2870200Y1950618D01*
X2877261Y1945639D01*
X2885084Y1942033D01*
X2893517Y1940001D01*
X2902153Y1939594D01*
X2910687Y1940814D01*
X2918866Y1943658D01*
X2926334Y1947976D01*
X2932887Y1953615D01*
X2938221Y1960422D01*
X2940913Y1965706D01*
X2943301Y1968703D01*
X2946654Y1970633D01*
X2950464Y1971192D01*
X2954172Y1970278D01*
X2957322Y1968042D01*
X2964383Y1956816D01*
X2970326Y1950567D01*
X2977388Y1945538D01*
X2985211Y1941931D01*
X2993644Y1939899D01*
X3002280Y1939493D01*
X3010814Y1940712D01*
X3018993Y1943557D01*
X3026460Y1947875D01*
X3033014Y1953564D01*
X3038348Y1960321D01*
X3042310Y1967992D01*
X3044748Y1976323D01*
X3045561Y1984908D01*
X3044748Y1993493D01*
X3042310Y2001824D01*
X3039008Y2008225D01*
X3037941Y2011527D01*
X3038094Y2014982D01*
X3039364Y2018233D01*
X3041700Y2020824D01*
X3043682Y2022348D01*
X3046933Y2024125D01*
X3050540Y2024583D01*
X3054146Y2023668D01*
X3061106Y2019096D01*
X3065424Y2017572D01*
X3070555Y2017014D01*
X3129432Y2017014D01*
X3134512Y2017572D01*
X3138830Y2019096D01*
X3146094Y2023821D01*
X3150006Y2024583D01*
X3153867Y2023821D01*
X3161131Y2019096D01*
X3165449Y2017572D01*
X3170580Y2017014D01*
X3229457Y2017014D01*
X3234537Y2017572D01*
X3238855Y2019096D01*
X3242767Y2021535D01*
X3245967Y2024786D01*
X3248406Y2028647D01*
X3249930Y2032965D01*
X3250488Y2038096D01*
X3250488Y2161946D01*
X3249930Y2167077D01*
X3248406Y2171395D01*
X3245967Y2175256D01*
X3242767Y2178507D01*
X3238855Y2180894D01*
X3237280Y2181453D01*
X3233775Y2183587D01*
X3231337Y2186990D01*
X3230524Y2191054D01*
X3230524Y2973171D01*
X3231286Y2977032D01*
X3233470Y2980334D01*
X3394760Y3141624D01*
X3398113Y3143859D01*
X3410712Y3145790D01*
X3418890Y3148634D01*
X3426358Y3152952D01*
X3432911Y3158642D01*
X3438245Y3165398D01*
X3442208Y3173069D01*
X3444646Y3181400D01*
X3445459Y3189986D01*
X3444646Y3198571D01*
X3442208Y3206902D01*
X3438245Y3214573D01*
X3432911Y3221329D01*
X3426358Y3227019D01*
X3418890Y3231337D01*
X3410712Y3234182D01*
X3402177Y3235401D01*
X3393541Y3234994D01*
X3385108Y3232962D01*
X3377285Y3229356D01*
X3370224Y3224326D01*
X3364280Y3218078D01*
X3359607Y3210814D01*
X3356406Y3202787D01*
X3354730Y3194304D01*
X3354730Y3192068D01*
X3353968Y3188208D01*
X3351784Y3184906D01*
X3178708Y3011830D01*
X3175457Y3008020D01*
X3172206Y3002381D01*
X3170224Y2996336D01*
X3169513Y2989478D01*
X3169513Y2191054D01*
X3168650Y2186990D01*
X3166262Y2183587D01*
X3162706Y2181453D01*
X3161131Y2180894D01*
X3153867Y2176170D01*
X3150006Y2175408D01*
X3146094Y2176170D01*
X3138830Y2180894D01*
X3137306Y2181453D01*
X3133750Y2183587D01*
X3131312Y2186990D01*
X3130499Y2191054D01*
X3130499Y3023158D01*
X3131261Y3027019D01*
X3133445Y3030321D01*
X3244748Y3141624D01*
X3248101Y3143859D01*
X3260699Y3145790D01*
X3268878Y3148634D01*
X3276346Y3152952D01*
X3282899Y3158642D01*
X3288233Y3165398D01*
X3292195Y3173069D01*
X3294634Y3181400D01*
X3295446Y3189986D01*
X3294634Y3198571D01*
X3292195Y3206902D01*
X3288233Y3214573D01*
X3282899Y3221329D01*
X3276346Y3227019D01*
X3268878Y3231337D01*
X3260699Y3234182D01*
X3252165Y3235401D01*
X3243529Y3234994D01*
X3235096Y3232962D01*
X3227273Y3229356D01*
X3220212Y3224326D01*
X3214268Y3218078D01*
X3209594Y3210814D01*
X3206394Y3202787D01*
X3204718Y3194304D01*
X3204718Y3192068D01*
X3203956Y3188208D01*
X3201771Y3184906D01*
X3078683Y3061817D01*
X3075432Y3058007D01*
X3072180Y3052368D01*
X3070199Y3046323D01*
X3069488Y3039465D01*
X3069488Y2543556D01*
X3068777Y2539796D01*
X3066694Y2536545D01*
X3063544Y2534310D01*
X3059785Y2533396D01*
X3055975Y2533954D01*
X3051352Y2537002D01*
X3043885Y2541320D01*
X3035706Y2544165D01*
X3027172Y2545384D01*
X3018536Y2544978D01*
X3010103Y2542946D01*
X3002280Y2539339D01*
X2991205Y2531313D01*
X2987192Y2530500D01*
X2591816Y2530500D01*
X2587955Y2531262D01*
X2584653Y2533446D01*
X2540762Y2577338D01*
X2538476Y2580843D01*
X2537764Y2584907D01*
X2538730Y2588920D01*
X2541270Y2592222D01*
X2544876Y2594254D01*
X2548991Y2594660D01*
X2550515Y2594508D01*
X2872181Y2594508D01*
X2876194Y2593644D01*
X2887268Y2585618D01*
X2895092Y2582011D01*
X2903524Y2579979D01*
X2912160Y2579573D01*
X2920695Y2580792D01*
X2928874Y2583637D01*
X2936341Y2587955D01*
X2942894Y2593644D01*
X2948228Y2600401D01*
X2952191Y2608072D01*
X2954629Y2616403D01*
X2955442Y2624988D01*
X2954629Y2633573D01*
X2952191Y2641904D01*
X2948228Y2649575D01*
X2942894Y2656332D01*
X2936341Y2662021D01*
X2928874Y2666339D01*
X2920695Y2669184D01*
X2912160Y2670403D01*
X2903524Y2669997D01*
X2895092Y2667965D01*
X2887268Y2664358D01*
X2876194Y2656281D01*
X2872181Y2655468D01*
X2566822Y2655468D01*
X2562961Y2656281D01*
X2559659Y2658465D01*
X2396845Y2821279D01*
X2392984Y2824581D01*
X2387295Y2827832D01*
X2384552Y2830169D01*
X2382774Y2833319D01*
X2380894Y2838907D01*
X2378456Y2842768D01*
X2375204Y2845968D01*
X2371344Y2848406D01*
X2367026Y2849930D01*
X2361895Y2850489D01*
X2238044Y2850489D01*
X2232964Y2849930D01*
X2228646Y2848406D01*
X2224735Y2845968D01*
X2221534Y2842768D01*
X2219096Y2838856D01*
X2217572Y2834538D01*
X2217013Y2829458D01*
X2217013Y2770581D01*
X2217572Y2765450D01*
X2219096Y2761132D01*
X2223770Y2753868D01*
X2224582Y2750007D01*
X2223770Y2746095D01*
X2219096Y2738882D01*
X2218537Y2737307D01*
X2216404Y2733751D01*
X2213000Y2731363D01*
X2208936Y2730500D01*
X2172157Y2730500D01*
X2168296Y2731262D01*
X2164994Y2733497D01*
X1939086Y2959354D01*
X1936902Y2962656D01*
X1936140Y2966516D01*
X1936140Y3022650D01*
X1935530Y3027730D01*
X1934057Y3032048D01*
X1931619Y3035960D01*
X1928368Y3039160D01*
X1924507Y3041599D01*
X1920189Y3043123D01*
X1915058Y3043682D01*
X1835556Y3043682D01*
X1830425Y3043123D01*
X1826107Y3041599D01*
X1822246Y3039160D01*
X1818995Y3035960D01*
X1816557Y3032048D01*
X1815084Y3027730D01*
X1814474Y3022650D01*
X1814474Y2937357D01*
X1815084Y2932226D01*
X1816557Y2927908D01*
X1818995Y2924048D01*
X1822246Y2920847D01*
X1826107Y2918409D01*
X1830425Y2916885D01*
X1835556Y2916275D01*
X1891690Y2916275D01*
X1895551Y2915513D01*
X1898853Y2913329D01*
X1911146Y2901035D01*
X1913331Y2897733D01*
X1914143Y2893872D01*
X1913331Y2889961D01*
X1911146Y2886659D01*
X1907844Y2884474D01*
X1903984Y2883712D01*
X1835556Y2883712D01*
X1830425Y2883103D01*
X1826107Y2881630D01*
X1822246Y2879191D01*
X1818995Y2875940D01*
X1816557Y2872079D01*
X1815084Y2867761D01*
X1814474Y2862630D01*
X1814474Y2819044D01*
X1813712Y2815132D01*
X1811528Y2811830D01*
X1808225Y2809646D01*
X1804314Y2808884D01*
X1800453Y2809646D01*
X1797151Y2811830D01*
X1788464Y2820517D01*
X1786280Y2823819D01*
X1785467Y2827731D01*
X1785467Y2862630D01*
X1784908Y2867761D01*
X1783384Y2872079D01*
X1780946Y2875940D01*
X1777746Y2879191D01*
X1774901Y2880969D01*
X1772361Y2883204D01*
X1770735Y2886202D01*
X1770125Y2889554D01*
X1770125Y2910433D01*
X1770735Y2913786D01*
X1772361Y2916783D01*
X1774901Y2919069D01*
X1777746Y2920847D01*
X1780946Y2924048D01*
X1783384Y2927908D01*
X1784908Y2932226D01*
X1785467Y2937357D01*
X1785467Y3022650D01*
X1784908Y3027730D01*
X1783384Y3032048D01*
X1780946Y3035960D01*
X1777746Y3039160D01*
X1774901Y3040938D01*
X1772361Y3043224D01*
X1770735Y3046171D01*
X1770125Y3049574D01*
X1770125Y3166872D01*
X1769516Y3173425D01*
X1770024Y3177692D01*
X1774850Y3191713D01*
X1777542Y3205226D01*
X1778457Y3218992D01*
X1777542Y3232759D01*
X1774850Y3246272D01*
X1770430Y3259378D01*
X1764334Y3271723D01*
X1756664Y3283204D01*
X1747570Y3293567D01*
X1737207Y3302660D01*
X1725726Y3310331D01*
X1713331Y3316427D01*
X1700275Y3320897D01*
X1686763Y3323590D01*
X1672996Y3324453D01*
X1659229Y3323590D01*
X1645666Y3320897D01*
X1632610Y3316427D01*
X1620266Y3310331D01*
X1608785Y3302660D01*
X1598422Y3293567D01*
X1589328Y3283204D01*
X1581658Y3271723D01*
X1575562Y3259378D01*
X1573225Y3255111D01*
X1569923Y3252673D01*
X1565960Y3251758D01*
X1561896Y3252470D01*
X1558493Y3254756D01*
X1418386Y3394608D01*
X1416202Y3397910D01*
X1415389Y3401822D01*
X1415389Y4289806D01*
X1415034Y4294835D01*
X1413357Y4301083D01*
X1410462Y4306773D01*
X1406093Y4312158D01*
X1239113Y4479340D01*
X1236878Y4482642D01*
X1236116Y4486554D01*
X1236116Y4542637D01*
X1235557Y4547768D01*
X1234033Y4552086D01*
X1231595Y4555947D01*
X1228394Y4559198D01*
X1224483Y4561586D01*
X1220165Y4563110D01*
X1215085Y4563719D01*
X1135532Y4563719D01*
X1130452Y4563110D01*
X1126134Y4561586D01*
X1122222Y4559198D01*
X1119022Y4555947D01*
X1116584Y4552086D01*
X1115060Y4547768D01*
X1114501Y4542637D01*
X1114501Y4457344D01*
X1115060Y4452264D01*
X1116584Y4447946D01*
X1119022Y4444034D01*
X1122222Y4440834D01*
X1126134Y4438396D01*
X1130452Y4436872D01*
X1135532Y4436313D01*
X1191666Y4436313D01*
X1195578Y4435551D01*
X1198880Y4433316D01*
X1351432Y4280560D01*
X1353616Y4277258D01*
X1354429Y4273397D01*
X1354429Y3898595D01*
X1353667Y3894836D01*
X1351584Y3891584D01*
X1348486Y3889349D01*
X1344726Y3888435D01*
X1340916Y3888994D01*
X1336344Y3891991D01*
X1328877Y3896309D01*
X1320698Y3899154D01*
X1312164Y3900373D01*
X1303528Y3899966D01*
X1295095Y3897934D01*
X1287272Y3894328D01*
X1280210Y3889349D01*
X1274267Y3883101D01*
X1269593Y3875786D01*
X1266393Y3867810D01*
X1264716Y3859326D01*
X1264716Y3850640D01*
X1266393Y3842156D01*
X1269593Y3834180D01*
X1271574Y3830320D01*
X1271981Y3827424D01*
X1271981Y2834944D01*
X1271219Y2831033D01*
X1268984Y2827731D01*
X1138428Y2697175D01*
X1133398Y2691028D01*
X1129893Y2684475D01*
X1127709Y2677363D01*
X1126947Y2669438D01*
X1126947Y2574391D01*
X1126083Y2570327D01*
X1123696Y2566924D01*
X1120140Y2564790D01*
X1116126Y2563418D01*
X1112266Y2560980D01*
X1109014Y2557729D01*
X1106576Y2553868D01*
X1105052Y2549550D01*
X1104493Y2544419D01*
X1104493Y2455570D01*
X1105052Y2450439D01*
X1106576Y2446121D01*
X1109014Y2442260D01*
X1112266Y2439009D01*
X1116126Y2436571D01*
X1124000Y2433980D01*
X1126896Y2431745D01*
X1128826Y2428595D01*
X1129487Y2424988D01*
X1129487Y2410663D01*
X1128725Y2406751D01*
X1126490Y2403500D01*
X1123188Y2401265D01*
X1119327Y2400503D01*
X1110589Y2400503D01*
X1105458Y2399944D01*
X1101140Y2398420D01*
X1097280Y2395982D01*
X1094028Y2392730D01*
X1091590Y2388870D01*
X1090066Y2384552D01*
X1089507Y2379421D01*
X1089507Y2280564D01*
X1090066Y2275433D01*
X1091590Y2271115D01*
X1094028Y2267254D01*
X1097280Y2264054D01*
X1101140Y2261616D01*
X1105458Y2260092D01*
X1110589Y2259482D01*
X1169416Y2259482D01*
X1174546Y2260092D01*
X1178864Y2261616D01*
X1182725Y2264054D01*
X1185976Y2267254D01*
X1188415Y2271115D01*
X1189939Y2275433D01*
X1190498Y2280564D01*
X1190498Y2326741D01*
X1191056Y2330043D01*
X1192631Y2332990D01*
X1194663Y2335580D01*
X1198067Y2342286D01*
X1199997Y2349601D01*
X1200454Y2355392D01*
X1200454Y2424988D01*
X1201166Y2428595D01*
X1203045Y2431745D01*
X1205992Y2433980D01*
X1213866Y2436571D01*
X1217726Y2439009D01*
X1220978Y2442260D01*
X1223416Y2446121D01*
X1224940Y2450439D01*
X1225499Y2455570D01*
X1225499Y2544419D01*
X1224940Y2549550D01*
X1223416Y2553868D01*
X1220978Y2557729D01*
X1217726Y2560980D01*
X1213866Y2563418D01*
X1209751Y2564841D01*
X1206195Y2566974D01*
X1203807Y2570378D01*
X1202944Y2574442D01*
X1202944Y2649982D01*
X1203706Y2653893D01*
X1205941Y2657195D01*
X1336497Y2787751D01*
X1341526Y2793898D01*
X1345031Y2800451D01*
X1347216Y2807563D01*
X1347978Y2815488D01*
X1347978Y3354222D01*
X1348740Y3358134D01*
X1350975Y3361436D01*
X1354226Y3363620D01*
X1358138Y3364382D01*
X1361998Y3363620D01*
X1365300Y3361436D01*
X1529181Y3197809D01*
X1532991Y3194558D01*
X1538630Y3191306D01*
X1544675Y3189325D01*
X1551533Y3188614D01*
X1564894Y3188614D01*
X1568958Y3187750D01*
X1572361Y3185312D01*
X1574495Y3181705D01*
X1575562Y3178657D01*
X1581658Y3166262D01*
X1589328Y3154781D01*
X1598422Y3144418D01*
X1608785Y3135325D01*
X1620266Y3127654D01*
X1632610Y3121558D01*
X1645666Y3117138D01*
X1659229Y3114446D01*
X1669643Y3113735D01*
X1673352Y3112770D01*
X1676400Y3110534D01*
X1678432Y3107334D01*
X1679143Y3103626D01*
X1679143Y3049524D01*
X1678584Y3046171D01*
X1676958Y3043224D01*
X1674418Y3040938D01*
X1671574Y3039160D01*
X1668373Y3035960D01*
X1665935Y3032048D01*
X1664411Y3027730D01*
X1663852Y3022650D01*
X1663852Y2937357D01*
X1664411Y2932226D01*
X1665935Y2927908D01*
X1668373Y2924048D01*
X1671574Y2920847D01*
X1674418Y2919069D01*
X1676958Y2916783D01*
X1678584Y2913837D01*
X1679143Y2910484D01*
X1679143Y2889554D01*
X1678584Y2886202D01*
X1676958Y2883204D01*
X1674418Y2880918D01*
X1671574Y2879191D01*
X1668373Y2875940D01*
X1665935Y2872079D01*
X1664411Y2867761D01*
X1663852Y2862630D01*
X1663852Y2777388D01*
X1664411Y2772257D01*
X1665935Y2767939D01*
X1668373Y2764078D01*
X1671574Y2760827D01*
X1675485Y2758389D01*
X1679803Y2756865D01*
X1684934Y2756306D01*
X1719783Y2756306D01*
X1723694Y2755544D01*
X1726996Y2753309D01*
X1751533Y2728772D01*
X1753717Y2725521D01*
X1754479Y2721610D01*
X1754479Y2696667D01*
X1753717Y2692755D01*
X1751533Y2689453D01*
X1748231Y2687269D01*
X1744319Y2686507D01*
X1588566Y2686507D01*
X1583436Y2685897D01*
X1579118Y2684424D01*
X1575257Y2681986D01*
X1572006Y2678734D01*
X1569567Y2674874D01*
X1568043Y2670556D01*
X1567484Y2665425D01*
X1567484Y2496566D01*
X1568043Y2491435D01*
X1569567Y2487117D01*
X1572006Y2483256D01*
X1575257Y2480005D01*
X1579118Y2477566D01*
X1583436Y2476093D01*
X1588566Y2475484D01*
X1744319Y2475484D01*
X1748231Y2474722D01*
X1751533Y2472537D01*
X1753717Y2469235D01*
X1754479Y2465324D01*
X1754479Y2417927D01*
X1753768Y2414168D01*
X1751685Y2410917D01*
X1748536Y2408682D01*
X1744776Y2407767D01*
X1740966Y2408326D01*
X1725726Y2418334D01*
X1713331Y2424430D01*
X1700275Y2428900D01*
X1686763Y2431592D01*
X1672996Y2432456D01*
X1659229Y2431592D01*
X1645666Y2428900D01*
X1632610Y2424430D01*
X1620266Y2418334D01*
X1608785Y2410663D01*
X1598422Y2401570D01*
X1589328Y2391206D01*
X1581658Y2379726D01*
X1575562Y2367381D01*
X1574139Y2363266D01*
X1572412Y2360117D01*
X1569669Y2357780D01*
X1566062Y2355646D01*
X1561592Y2351836D01*
X1376172Y2166366D01*
X1373174Y2164334D01*
X1369669Y2163419D01*
X1366012Y2163876D01*
X1362811Y2165553D01*
X1360373Y2168245D01*
X1358747Y2170836D01*
X1354886Y2175408D01*
X1315669Y2214626D01*
X1309471Y2219604D01*
X1302867Y2222957D01*
X1295603Y2224938D01*
X1289761Y2225395D01*
X975715Y2225395D01*
X967841Y2224532D01*
X960780Y2222246D01*
X954278Y2218486D01*
X949807Y2214727D01*
X923594Y2188464D01*
X920292Y2186279D01*
X916432Y2185517D01*
X867359Y2185517D01*
X862228Y2184908D01*
X857910Y2183384D01*
X854049Y2180996D01*
X850798Y2177745D01*
X848360Y2173884D01*
X846886Y2169566D01*
X846277Y2164435D01*
X846277Y2084933D01*
X846886Y2079802D01*
X848360Y2075484D01*
X850798Y2071624D01*
X854049Y2068372D01*
X857910Y2065934D01*
X862228Y2064410D01*
X867359Y2063851D01*
X952601Y2063851D01*
X957732Y2064410D01*
X962050Y2065934D01*
X965911Y2068372D01*
X969162Y2071624D01*
X971600Y2075484D01*
X973124Y2079802D01*
X973683Y2084933D01*
X973683Y2133955D01*
X974445Y2137816D01*
X976680Y2141118D01*
X986942Y2151430D01*
X990244Y2153615D01*
X994105Y2154377D01*
X1091285Y2154377D01*
X1095197Y2153615D01*
X1098499Y2151380D01*
X1100683Y2148027D01*
X1101445Y2144115D01*
X1100632Y2140204D01*
X1098346Y2136952D01*
X1093978Y2132685D01*
X1091590Y2128875D01*
X1090066Y2124557D01*
X1089507Y2119426D01*
X1089507Y2020570D01*
X1090066Y2015439D01*
X1091590Y2011121D01*
X1094028Y2007260D01*
X1097229Y2004009D01*
X1101140Y2001570D01*
X1105458Y2000097D01*
X1110538Y1999488D01*
X1119327Y1999488D01*
X1123188Y1998725D01*
X1126490Y1996541D01*
X1128725Y1993239D01*
X1129487Y1989328D01*
X1129487Y1975002D01*
X1128826Y1971395D01*
X1126896Y1968246D01*
X1124000Y1966010D01*
X1116126Y1963420D01*
X1112266Y1960981D01*
X1109014Y1957730D01*
X1106576Y1953869D01*
X1105052Y1949551D01*
X1104493Y1944420D01*
X1104493Y1855571D01*
X1105052Y1850440D01*
X1106576Y1846122D01*
X1109014Y1842262D01*
X1112266Y1839010D01*
X1116126Y1836572D01*
X1123950Y1833981D01*
X1126845Y1831746D01*
X1128776Y1828596D01*
X1129436Y1824989D01*
X1129436Y1785518D01*
X1130300Y1777644D01*
X1132586Y1770583D01*
X1136345Y1764080D01*
X1140104Y1759610D01*
X1236980Y1662734D01*
X1243177Y1657756D01*
X1249781Y1654403D01*
X1257046Y1652422D01*
X1262888Y1651965D01*
X1876399Y1651965D01*
X1880260Y1651203D01*
X1883562Y1649018D01*
X1885746Y1645716D01*
X1886559Y1641805D01*
X1886559Y1477975D01*
X1885746Y1474063D01*
X1883562Y1470761D01*
X1881276Y1468475D01*
X1877974Y1466291D01*
X1874062Y1465478D01*
X1830527Y1465478D01*
X1825447Y1464919D01*
X1821129Y1463395D01*
X1817217Y1460957D01*
X1814017Y1457756D01*
X1811578Y1453845D01*
X1810054Y1449527D01*
X1809496Y1444447D01*
X1809496Y1355547D01*
X1810054Y1350467D01*
X1811578Y1346149D01*
X1814017Y1342237D01*
X1817217Y1339037D01*
X1821129Y1336598D01*
X1829003Y1334008D01*
X1831898Y1331722D01*
X1833829Y1328623D01*
X1834489Y1324965D01*
X1834489Y1150518D01*
X1835302Y1142644D01*
X1837588Y1135583D01*
X1841398Y1129030D01*
X1845157Y1124610D01*
X1931009Y1038758D01*
X1937207Y1033780D01*
X1943760Y1030427D01*
X1951075Y1028446D01*
X1956866Y1027988D01*
X1964588Y1027988D01*
X1968449Y1027226D01*
X1971751Y1025042D01*
X1973072Y1023670D01*
X1980488Y1018489D01*
X1988718Y1014679D01*
X1997456Y1012342D01*
X2006904Y1011478D01*
X2129536Y1011478D01*
X2138984Y1012342D01*
X2147773Y1014679D01*
X2155952Y1018489D01*
X2163368Y1023670D01*
X2169769Y1030122D01*
X2175002Y1037539D01*
X2178812Y1045718D01*
X2181148Y1054455D01*
X2181961Y1063498D01*
X2181148Y1072540D01*
X2180640Y1074369D01*
X2180488Y1078788D01*
X2182164Y1082802D01*
X2185365Y1085799D01*
X2189581Y1087120D01*
X2193950Y1086561D01*
X2197658Y1084173D01*
X2297734Y984250D01*
X2299919Y980948D01*
X2300732Y977036D01*
X2299919Y973175D01*
X2297734Y969873D01*
X2294432Y967689D01*
X2290572Y966876D01*
X2176983Y966876D01*
X2173122Y967689D01*
X2169820Y969873D01*
X2163368Y976325D01*
X2155952Y981506D01*
X2147773Y985316D01*
X2138984Y987653D01*
X2129536Y988517D01*
X2006904Y988517D01*
X1997456Y987653D01*
X1988718Y985316D01*
X1980488Y981506D01*
X1973072Y976325D01*
X1966671Y969873D01*
X1961489Y962456D01*
X1957679Y954278D01*
X1955292Y945540D01*
X1954530Y936498D01*
X1955292Y927455D01*
X1957679Y918718D01*
X1961489Y910539D01*
X1966671Y903122D01*
X1973072Y896670D01*
X1980488Y891489D01*
X1988718Y887679D01*
X1997456Y885342D01*
X2006904Y884478D01*
X2129536Y884478D01*
X2138984Y885342D01*
X2147773Y887679D01*
X2155952Y891489D01*
X2163368Y896670D01*
X2169617Y902919D01*
X2172919Y905103D01*
X2176780Y905916D01*
X3156712Y905916D01*
X3160623Y905103D01*
X3163925Y902919D01*
X3639464Y427380D01*
X3641648Y424078D01*
X3642461Y420166D01*
X3642461Y408076D01*
X3641598Y403961D01*
X3639159Y400558D01*
X3635552Y398424D01*
X3632606Y397459D01*
X3620262Y391363D01*
X3608781Y383692D01*
X3598418Y374599D01*
X3589324Y364185D01*
X3581654Y352755D01*
X3575558Y340360D01*
X3571087Y327304D01*
X3568395Y313740D01*
X3567531Y299974D01*
X3568395Y286207D01*
X3571087Y272694D01*
X3575558Y259638D01*
X3581654Y247243D01*
X3589324Y235762D01*
X3598418Y225399D01*
X3608781Y216306D01*
X3620262Y208635D01*
X3632606Y202539D01*
X3645662Y198120D01*
X3659225Y195427D01*
G37*
G36*
X2057552Y204520D02*
G01*
X2179421Y204520D01*
X2184552Y205079D01*
X2188870Y206603D01*
X2192731Y209042D01*
X2195982Y212242D01*
X2198420Y216154D01*
X2199894Y220471D01*
X2200503Y225552D01*
X2200503Y245160D01*
X2201164Y248716D01*
X2203043Y251866D01*
X2205888Y254152D01*
X2209393Y255219D01*
X2222246Y254457D01*
X2230780Y255676D01*
X2238959Y258521D01*
X2246426Y262839D01*
X2252980Y268528D01*
X2258314Y275285D01*
X2262276Y282956D01*
X2264714Y291287D01*
X2265527Y299872D01*
X2264714Y308457D01*
X2262276Y316788D01*
X2258314Y324459D01*
X2252980Y331216D01*
X2246426Y336905D01*
X2238959Y341223D01*
X2230780Y344068D01*
X2222246Y345287D01*
X2209393Y344525D01*
X2205888Y345592D01*
X2203043Y347878D01*
X2201164Y351028D01*
X2200503Y354584D01*
X2200503Y374446D01*
X2199894Y379526D01*
X2198420Y383844D01*
X2195982Y387756D01*
X2192731Y390956D01*
X2188870Y393395D01*
X2184552Y394919D01*
X2179421Y395478D01*
X2057552Y395478D01*
X2052421Y394919D01*
X2048103Y393395D01*
X2044242Y390956D01*
X2040991Y387756D01*
X2038553Y383844D01*
X2037080Y379526D01*
X2036470Y374446D01*
X2036470Y225552D01*
X2037080Y220471D01*
X2038553Y216154D01*
X2040991Y212242D01*
X2044242Y209042D01*
X2048103Y206603D01*
X2052421Y205079D01*
G37*
G36*
X1257554Y204520D02*
G01*
X1379423Y204520D01*
X1384554Y205079D01*
X1388872Y206603D01*
X1392732Y209042D01*
X1395984Y212242D01*
X1398371Y216154D01*
X1399895Y220471D01*
X1400505Y225552D01*
X1400505Y256438D01*
X1401419Y260756D01*
X1404162Y264210D01*
X1408074Y266242D01*
X1412494Y266446D01*
X1416558Y264718D01*
X1422247Y260654D01*
X1430121Y257048D01*
X1438503Y255016D01*
X1447139Y254609D01*
X1455674Y255828D01*
X1463852Y258673D01*
X1471371Y262991D01*
X1477873Y268630D01*
X1483207Y275437D01*
X1487170Y283108D01*
X1489608Y291388D01*
X1490421Y299974D01*
X1489608Y308610D01*
X1487170Y316890D01*
X1483207Y324561D01*
X1477873Y331368D01*
X1471371Y337007D01*
X1463852Y341325D01*
X1455674Y344170D01*
X1447139Y345389D01*
X1438503Y344982D01*
X1430121Y342950D01*
X1422247Y339344D01*
X1416558Y335280D01*
X1412494Y333552D01*
X1408074Y333756D01*
X1404162Y335788D01*
X1401419Y339242D01*
X1400505Y343560D01*
X1400505Y374446D01*
X1399895Y379526D01*
X1398371Y383844D01*
X1395984Y387756D01*
X1392732Y390956D01*
X1388872Y393395D01*
X1384554Y394919D01*
X1379423Y395478D01*
X1257554Y395478D01*
X1252423Y394919D01*
X1248105Y393395D01*
X1244244Y390956D01*
X1240993Y387756D01*
X1238554Y383844D01*
X1237081Y379526D01*
X1236472Y374446D01*
X1236472Y225552D01*
X1237081Y220471D01*
X1238554Y216154D01*
X1240993Y212242D01*
X1244244Y209042D01*
X1248105Y206603D01*
X1252423Y205079D01*
G37*
G36*
X2857550Y204520D02*
G01*
X2979420Y204520D01*
X2984550Y205079D01*
X2988868Y206603D01*
X2992729Y209042D01*
X2995980Y212242D01*
X2998419Y216154D01*
X2999892Y220471D01*
X3000502Y225552D01*
X3000502Y374446D01*
X2999892Y379526D01*
X2998419Y383844D01*
X2995980Y387756D01*
X2992729Y390956D01*
X2988868Y393395D01*
X2984550Y394919D01*
X2979420Y395478D01*
X2870301Y395478D01*
X2866440Y396290D01*
X2863138Y398475D01*
X2740304Y521309D01*
X2736443Y524560D01*
X2730804Y527812D01*
X2724759Y529793D01*
X2717901Y530504D01*
X2382723Y530504D01*
X2379167Y531164D01*
X2376068Y532993D01*
X2371394Y537057D01*
X2363927Y541375D01*
X2355748Y544220D01*
X2347214Y545439D01*
X2338578Y545033D01*
X2330145Y543001D01*
X2322322Y539394D01*
X2315260Y534365D01*
X2309317Y528116D01*
X2304643Y520852D01*
X2301443Y512826D01*
X2299766Y504342D01*
X2299766Y495706D01*
X2301443Y487222D01*
X2304643Y479196D01*
X2309317Y471932D01*
X2315260Y465683D01*
X2322322Y460654D01*
X2330145Y457047D01*
X2338578Y455015D01*
X2347214Y454609D01*
X2355748Y455828D01*
X2363927Y458673D01*
X2371394Y462991D01*
X2376068Y467055D01*
X2379167Y468884D01*
X2382723Y469544D01*
X2701594Y469544D01*
X2705506Y468731D01*
X2708808Y466547D01*
X2833522Y341833D01*
X2835706Y338531D01*
X2836468Y334670D01*
X2836468Y225552D01*
X2837078Y220471D01*
X2838551Y216154D01*
X2840990Y212242D01*
X2844241Y209042D01*
X2848102Y206603D01*
X2852420Y205079D01*
G37*
G36*
X524001Y652119D02*
G01*
X533755Y653338D01*
X543153Y656234D01*
X551942Y660654D01*
X559866Y666496D01*
X566674Y673608D01*
X572160Y681736D01*
X576224Y690676D01*
X579678Y703834D01*
X581964Y706831D01*
X585114Y708812D01*
X588822Y709472D01*
X712825Y709472D01*
X717956Y710082D01*
X722274Y711555D01*
X726998Y714095D01*
X729843Y714502D01*
X756920Y714552D01*
X765505Y715721D01*
X771601Y717651D01*
X773734Y718566D01*
X779068Y721410D01*
X781253Y722833D01*
X785723Y726490D01*
X787857Y728522D01*
X791362Y732637D01*
X793191Y735330D01*
X795731Y739800D01*
X797204Y743051D01*
X798728Y747572D01*
X799642Y751332D01*
X800303Y755802D01*
X800455Y759968D01*
X800303Y764184D01*
X799642Y768604D01*
X798728Y772414D01*
X797204Y776935D01*
X795731Y780186D01*
X794867Y784098D01*
X795578Y788060D01*
X797763Y791413D01*
X801065Y793699D01*
X805027Y794512D01*
X859231Y794512D01*
X864260Y794867D01*
X870559Y796594D01*
X876198Y799439D01*
X881583Y803808D01*
X889304Y811530D01*
X892606Y813714D01*
X896467Y814476D01*
X952601Y814476D01*
X957732Y815086D01*
X962050Y816610D01*
X965911Y818997D01*
X969162Y822248D01*
X971600Y826109D01*
X973124Y830427D01*
X973683Y835558D01*
X973683Y915060D01*
X973124Y920191D01*
X971600Y924509D01*
X969162Y928369D01*
X965911Y931621D01*
X962050Y934059D01*
X957732Y935583D01*
X952601Y936142D01*
X867359Y936142D01*
X862228Y935583D01*
X858418Y934212D01*
X854405Y933653D01*
X850493Y934719D01*
X847293Y937209D01*
X845362Y940765D01*
X844905Y944778D01*
X845362Y949096D01*
X846277Y952449D01*
X848258Y955294D01*
X881176Y988212D01*
X884428Y992022D01*
X887679Y997661D01*
X889660Y1003706D01*
X890371Y1010564D01*
X890371Y1079500D01*
X890016Y1084529D01*
X888288Y1090828D01*
X885444Y1096467D01*
X881075Y1101852D01*
X851763Y1131163D01*
X847953Y1134414D01*
X842314Y1137666D01*
X836269Y1139647D01*
X829411Y1140358D01*
X802944Y1140358D01*
X799084Y1141171D01*
X795782Y1143355D01*
X793546Y1146657D01*
X792784Y1150518D01*
X793597Y1154430D01*
X795782Y1157732D01*
X838098Y1199946D01*
X841400Y1202182D01*
X845261Y1202944D01*
X849172Y1202182D01*
X852474Y1199946D01*
X854049Y1198372D01*
X857910Y1195933D01*
X862228Y1194409D01*
X867359Y1193850D01*
X952601Y1193850D01*
X957732Y1194409D01*
X962050Y1195933D01*
X965911Y1198372D01*
X969162Y1201623D01*
X971600Y1205484D01*
X973124Y1209802D01*
X973683Y1214932D01*
X973683Y1294434D01*
X973124Y1299565D01*
X971600Y1303883D01*
X969162Y1307744D01*
X965911Y1310995D01*
X962050Y1313383D01*
X957732Y1314907D01*
X952601Y1315516D01*
X867359Y1315516D01*
X862228Y1314907D01*
X857910Y1313383D01*
X854049Y1310995D01*
X850798Y1307744D01*
X848360Y1303883D01*
X846886Y1299565D01*
X846277Y1292860D01*
X845362Y1288592D01*
X842721Y1285138D01*
X833170Y1280210D01*
X827786Y1275892D01*
X811072Y1259179D01*
X808024Y1257096D01*
X804418Y1256233D01*
X800709Y1256741D01*
X797458Y1258519D01*
X795070Y1261364D01*
X791362Y1267307D01*
X787857Y1271473D01*
X785723Y1273505D01*
X781253Y1277112D01*
X779068Y1278585D01*
X773734Y1281430D01*
X771601Y1282344D01*
X763676Y1284630D01*
X754532Y1285494D01*
X729792Y1285494D01*
X726998Y1285900D01*
X722274Y1288389D01*
X717956Y1289913D01*
X712825Y1290472D01*
X588822Y1290472D01*
X585114Y1291183D01*
X581964Y1293164D01*
X579678Y1296162D01*
X576224Y1309319D01*
X572160Y1318260D01*
X566674Y1326388D01*
X559866Y1333500D01*
X551942Y1339342D01*
X543153Y1343761D01*
X533755Y1346657D01*
X524001Y1347876D01*
X514197Y1347470D01*
X504596Y1345387D01*
X495452Y1341729D01*
X487121Y1336598D01*
X479704Y1330096D01*
X473557Y1322425D01*
X468731Y1313840D01*
X465480Y1304594D01*
X463804Y1294892D01*
X463804Y1285087D01*
X465480Y1275384D01*
X468731Y1266139D01*
X473557Y1257554D01*
X479704Y1249883D01*
X487121Y1243380D01*
X495452Y1238250D01*
X504596Y1234592D01*
X514197Y1232509D01*
X524001Y1232103D01*
X533755Y1233322D01*
X543153Y1236218D01*
X548182Y1238707D01*
X552145Y1239774D01*
X556209Y1239215D01*
X559714Y1237030D01*
X562051Y1233678D01*
X562914Y1229664D01*
X562914Y1210564D01*
X563473Y1205484D01*
X564794Y1199997D01*
X563473Y1194562D01*
X562914Y1189431D01*
X562914Y1160576D01*
X563473Y1155446D01*
X564794Y1150010D01*
X563473Y1144524D01*
X562914Y1139444D01*
X562914Y1110538D01*
X563473Y1105458D01*
X564794Y1099972D01*
X563473Y1094536D01*
X562914Y1089456D01*
X562914Y1064920D01*
X561949Y1060602D01*
X559257Y1057148D01*
X555396Y1055116D01*
X549097Y1053388D01*
X543407Y1050544D01*
X538022Y1046175D01*
X513689Y1021842D01*
X510438Y1017981D01*
X507187Y1012393D01*
X505206Y1006348D01*
X504494Y999439D01*
X504494Y950417D01*
X504901Y945387D01*
X506577Y939088D01*
X509473Y933399D01*
X513791Y928065D01*
X538124Y903732D01*
X541985Y900430D01*
X547624Y897178D01*
X557377Y894130D01*
X560273Y891895D01*
X562203Y888746D01*
X562914Y885088D01*
X562914Y860602D01*
X563473Y855471D01*
X564794Y849985D01*
X563473Y844550D01*
X562914Y839419D01*
X562914Y810564D01*
X563473Y805434D01*
X564794Y799998D01*
X563473Y794562D01*
X562914Y789432D01*
X562914Y770331D01*
X562051Y766318D01*
X559714Y762965D01*
X556209Y760780D01*
X552145Y760222D01*
X548182Y761288D01*
X543153Y763778D01*
X533755Y766673D01*
X524001Y767892D01*
X514197Y767486D01*
X504596Y765403D01*
X495452Y761746D01*
X487121Y756615D01*
X479704Y750112D01*
X473557Y742442D01*
X468731Y733856D01*
X465480Y724611D01*
X463804Y714908D01*
X463804Y705104D01*
X465480Y695401D01*
X468731Y686155D01*
X473557Y677570D01*
X479704Y669899D01*
X487121Y663397D01*
X495452Y658266D01*
X504596Y654608D01*
X514197Y652526D01*
G37*
G36*
X1260551Y674522D02*
G01*
X1339392Y674522D01*
X1344523Y675081D01*
X1348841Y676605D01*
X1352702Y679043D01*
X1355953Y682244D01*
X1358392Y686155D01*
X1359916Y690473D01*
X1360474Y695553D01*
X1360474Y746048D01*
X1361236Y749960D01*
X1363472Y753262D01*
X1381201Y771042D01*
X1384503Y773226D01*
X1388414Y773988D01*
X1428089Y773988D01*
X1431950Y773226D01*
X1435252Y771042D01*
X1436573Y769670D01*
X1443990Y764489D01*
X1452219Y760679D01*
X1460957Y758342D01*
X1470406Y757478D01*
X1593037Y757478D01*
X1602486Y758342D01*
X1611274Y760679D01*
X1619453Y764489D01*
X1626870Y769670D01*
X1633270Y776122D01*
X1638503Y783539D01*
X1642313Y791718D01*
X1644650Y800455D01*
X1645462Y809498D01*
X1644650Y818540D01*
X1642313Y827278D01*
X1638503Y835456D01*
X1633270Y842873D01*
X1626870Y849325D01*
X1619453Y854506D01*
X1611274Y858316D01*
X1602486Y860653D01*
X1593037Y861517D01*
X1470406Y861517D01*
X1460957Y860653D01*
X1452219Y858316D01*
X1443990Y854506D01*
X1436573Y849325D01*
X1435252Y847953D01*
X1431950Y845769D01*
X1428089Y845007D01*
X1370025Y845007D01*
X1362100Y844143D01*
X1355090Y841857D01*
X1348536Y838098D01*
X1344117Y834339D01*
X1318260Y808482D01*
X1314958Y806246D01*
X1311097Y805484D01*
X1260551Y805484D01*
X1255420Y804926D01*
X1251102Y803402D01*
X1247241Y800963D01*
X1243990Y797763D01*
X1241552Y793851D01*
X1240078Y789533D01*
X1239469Y784402D01*
X1239469Y695553D01*
X1240078Y690473D01*
X1241552Y686155D01*
X1243990Y682244D01*
X1247241Y679043D01*
X1251102Y676605D01*
X1255420Y675081D01*
G37*
G36*
X1470406Y884478D02*
G01*
X1593037Y884478D01*
X1602486Y885342D01*
X1611274Y887679D01*
X1619453Y891489D01*
X1626870Y896670D01*
X1633270Y903122D01*
X1638503Y910539D01*
X1642313Y918718D01*
X1644650Y927455D01*
X1645462Y936498D01*
X1644650Y945540D01*
X1642313Y954278D01*
X1638503Y962456D01*
X1633270Y969873D01*
X1626870Y976325D01*
X1619453Y981506D01*
X1611274Y985316D01*
X1602486Y987653D01*
X1593037Y988517D01*
X1470406Y988517D01*
X1460957Y987653D01*
X1452219Y985316D01*
X1443990Y981506D01*
X1436573Y976325D01*
X1435252Y974953D01*
X1431950Y972769D01*
X1428089Y972007D01*
X1312418Y972007D01*
X1308506Y972769D01*
X1305204Y974953D01*
X1228445Y1051712D01*
X1226261Y1055014D01*
X1225499Y1058926D01*
X1225499Y1109421D01*
X1224889Y1114552D01*
X1223416Y1118870D01*
X1220978Y1122730D01*
X1217726Y1125982D01*
X1213866Y1128420D01*
X1209548Y1129893D01*
X1204518Y1130452D01*
X1200962Y1131519D01*
X1198067Y1133805D01*
X1196136Y1136954D01*
X1195476Y1140561D01*
X1195476Y1172667D01*
X1196035Y1176020D01*
X1198219Y1179677D01*
X1202182Y1187348D01*
X1204061Y1193698D01*
X1205433Y1196543D01*
X1207617Y1198880D01*
X1210411Y1200404D01*
X1213866Y1201572D01*
X1217726Y1204010D01*
X1220978Y1207262D01*
X1223416Y1211122D01*
X1224889Y1215440D01*
X1225499Y1220571D01*
X1225499Y1299413D01*
X1224889Y1304544D01*
X1223416Y1308862D01*
X1220978Y1312722D01*
X1217726Y1315974D01*
X1213866Y1318412D01*
X1209548Y1319936D01*
X1204417Y1320495D01*
X1115568Y1320495D01*
X1110437Y1319936D01*
X1106119Y1318412D01*
X1102258Y1315974D01*
X1099007Y1312722D01*
X1096568Y1308862D01*
X1095044Y1304544D01*
X1094486Y1299413D01*
X1094486Y1220571D01*
X1095044Y1215440D01*
X1096568Y1211122D01*
X1099007Y1207262D01*
X1102258Y1204010D01*
X1106119Y1201572D01*
X1109522Y1200404D01*
X1112570Y1198676D01*
X1114856Y1196035D01*
X1116380Y1191463D01*
X1119581Y1183436D01*
X1122883Y1178306D01*
X1124051Y1175715D01*
X1124508Y1172819D01*
X1124508Y1140561D01*
X1123797Y1136954D01*
X1121918Y1133805D01*
X1118971Y1131519D01*
X1115466Y1130452D01*
X1110437Y1129893D01*
X1106119Y1128420D01*
X1102258Y1125982D01*
X1099007Y1122730D01*
X1096568Y1118870D01*
X1095044Y1114552D01*
X1094486Y1109421D01*
X1094486Y1030579D01*
X1095044Y1025448D01*
X1096568Y1021130D01*
X1099007Y1017269D01*
X1102258Y1014018D01*
X1106119Y1011580D01*
X1110437Y1010056D01*
X1115568Y1009497D01*
X1166063Y1009497D01*
X1169974Y1008735D01*
X1173276Y1006500D01*
X1268018Y911758D01*
X1274165Y906780D01*
X1280769Y903427D01*
X1288084Y901446D01*
X1293876Y900988D01*
X1428089Y900988D01*
X1431950Y900226D01*
X1435252Y898042D01*
X1436573Y896670D01*
X1443990Y891489D01*
X1452219Y887679D01*
X1460957Y885342D01*
G37*
G36*
X1470406Y1011478D02*
G01*
X1593037Y1011478D01*
X1602486Y1012342D01*
X1611274Y1014679D01*
X1619453Y1018489D01*
X1626870Y1023670D01*
X1633270Y1030122D01*
X1638503Y1037539D01*
X1642313Y1045718D01*
X1644650Y1054455D01*
X1645462Y1063498D01*
X1644650Y1072540D01*
X1642313Y1081278D01*
X1638503Y1089456D01*
X1633270Y1096873D01*
X1626870Y1103325D01*
X1619453Y1108506D01*
X1611274Y1112316D01*
X1602486Y1114653D01*
X1593037Y1115517D01*
X1470406Y1115517D01*
X1460957Y1114653D01*
X1452219Y1112316D01*
X1443990Y1108506D01*
X1436268Y1102969D01*
X1432560Y1100632D01*
X1428191Y1100023D01*
X1423974Y1101344D01*
X1418844Y1104341D01*
X1410665Y1107186D01*
X1402130Y1108405D01*
X1393494Y1107998D01*
X1385112Y1105966D01*
X1377238Y1102360D01*
X1370228Y1097330D01*
X1364234Y1091082D01*
X1359560Y1083818D01*
X1356360Y1075791D01*
X1354734Y1067308D01*
X1354734Y1058672D01*
X1356360Y1050188D01*
X1359560Y1042162D01*
X1364234Y1034897D01*
X1370228Y1028649D01*
X1377238Y1023619D01*
X1385112Y1020013D01*
X1393494Y1017981D01*
X1402130Y1017574D01*
X1410665Y1018794D01*
X1418844Y1021638D01*
X1424635Y1024991D01*
X1428292Y1026261D01*
X1432102Y1026058D01*
X1435608Y1024483D01*
X1444040Y1018489D01*
X1452219Y1014679D01*
X1460957Y1012342D01*
G37*
G36*
X1470406Y1138478D02*
G01*
X1593037Y1138478D01*
X1602486Y1139342D01*
X1611274Y1141679D01*
X1619453Y1145489D01*
X1626870Y1150670D01*
X1633270Y1157122D01*
X1638503Y1164539D01*
X1642313Y1172718D01*
X1644650Y1181455D01*
X1645462Y1190498D01*
X1644650Y1199540D01*
X1642313Y1208278D01*
X1638503Y1216456D01*
X1633270Y1223873D01*
X1626870Y1230325D01*
X1619453Y1235506D01*
X1611274Y1239316D01*
X1602486Y1241653D01*
X1593037Y1242517D01*
X1470406Y1242517D01*
X1460957Y1241653D01*
X1452219Y1239316D01*
X1443990Y1235506D01*
X1436268Y1229969D01*
X1432560Y1227632D01*
X1428191Y1227023D01*
X1423974Y1228344D01*
X1418844Y1231341D01*
X1410665Y1234186D01*
X1402130Y1235405D01*
X1393494Y1234998D01*
X1385112Y1232966D01*
X1377238Y1229360D01*
X1370228Y1224330D01*
X1364234Y1218082D01*
X1359560Y1210818D01*
X1356360Y1202791D01*
X1354734Y1194308D01*
X1354734Y1185672D01*
X1356360Y1177188D01*
X1359560Y1169162D01*
X1364234Y1161897D01*
X1370228Y1155649D01*
X1377238Y1150620D01*
X1385112Y1147013D01*
X1393494Y1144981D01*
X1402130Y1144574D01*
X1410665Y1145794D01*
X1418844Y1148638D01*
X1424635Y1151991D01*
X1428292Y1153261D01*
X1432102Y1153058D01*
X1435608Y1151483D01*
X1444040Y1145489D01*
X1452219Y1141679D01*
X1460957Y1139342D01*
G37*
G36*
X4701997Y1281531D02*
G01*
X4715764Y1282446D01*
X4729276Y1285138D01*
X4742332Y1289558D01*
X4754727Y1295654D01*
X4766208Y1303324D01*
X4776571Y1312418D01*
X4785664Y1322781D01*
X4793335Y1334262D01*
X4799431Y1346657D01*
X4803851Y1359712D01*
X4806543Y1373225D01*
X4807458Y1386992D01*
X4806543Y1400759D01*
X4803851Y1414322D01*
X4799431Y1427378D01*
X4793335Y1439722D01*
X4785664Y1451203D01*
X4776571Y1461566D01*
X4766208Y1470660D01*
X4754727Y1478330D01*
X4742332Y1484426D01*
X4729276Y1488897D01*
X4715764Y1491589D01*
X4701997Y1492453D01*
X4688230Y1491589D01*
X4674666Y1488897D01*
X4661611Y1484426D01*
X4649266Y1478330D01*
X4637786Y1470660D01*
X4627422Y1461566D01*
X4618329Y1451203D01*
X4610658Y1439722D01*
X4604562Y1427378D01*
X4600092Y1414322D01*
X4597400Y1400759D01*
X4596485Y1386992D01*
X4597400Y1373225D01*
X4600092Y1359712D01*
X4604562Y1346657D01*
X4610658Y1334262D01*
X4618329Y1322781D01*
X4627422Y1312418D01*
X4637786Y1303324D01*
X4649266Y1295654D01*
X4661611Y1289558D01*
X4674666Y1285138D01*
X4688230Y1282446D01*
G37*
G36*
X4701997Y1535531D02*
G01*
X4715764Y1536446D01*
X4729276Y1539138D01*
X4742332Y1543558D01*
X4754727Y1549654D01*
X4766208Y1557324D01*
X4776571Y1566418D01*
X4785664Y1576781D01*
X4793335Y1588262D01*
X4799431Y1600657D01*
X4803851Y1613712D01*
X4806543Y1627225D01*
X4807458Y1640992D01*
X4806543Y1654759D01*
X4803851Y1668322D01*
X4799431Y1681378D01*
X4793335Y1693722D01*
X4785664Y1705203D01*
X4776571Y1715566D01*
X4766208Y1724660D01*
X4754727Y1732330D01*
X4742332Y1738426D01*
X4729276Y1742897D01*
X4715764Y1745589D01*
X4701997Y1746453D01*
X4688230Y1745589D01*
X4674666Y1742897D01*
X4661611Y1738426D01*
X4649266Y1732330D01*
X4637786Y1724660D01*
X4627422Y1715566D01*
X4618329Y1705203D01*
X4610658Y1693722D01*
X4604562Y1681378D01*
X4600092Y1668322D01*
X4597400Y1654759D01*
X4596485Y1640992D01*
X4597400Y1627225D01*
X4600092Y1613712D01*
X4604562Y1600657D01*
X4610658Y1588262D01*
X4618329Y1576781D01*
X4627422Y1566418D01*
X4637786Y1557324D01*
X4649266Y1549654D01*
X4661611Y1543558D01*
X4674666Y1539138D01*
X4688230Y1536446D01*
G37*
G36*
X524001Y1852117D02*
G01*
X533755Y1853336D01*
X543153Y1856232D01*
X551942Y1860651D01*
X559866Y1866493D01*
X566674Y1873605D01*
X572160Y1881733D01*
X576224Y1890674D01*
X579678Y1903831D01*
X581964Y1906828D01*
X585114Y1908810D01*
X588822Y1909470D01*
X712825Y1909470D01*
X717956Y1910080D01*
X722274Y1911604D01*
X726998Y1914093D01*
X729792Y1914499D01*
X751890Y1914550D01*
X758545Y1915312D01*
X766572Y1917649D01*
X774090Y1921408D01*
X780745Y1926437D01*
X782828Y1928520D01*
X786333Y1932635D01*
X788212Y1935327D01*
X790752Y1939747D01*
X792175Y1943049D01*
X793750Y1947570D01*
X794664Y1951329D01*
X795274Y1955800D01*
X795477Y1959965D01*
X795274Y1964182D01*
X793953Y1971649D01*
X793851Y1976018D01*
X795629Y1979980D01*
X798880Y1982876D01*
X803046Y1984146D01*
X807364Y1983536D01*
X811022Y1981200D01*
X843330Y1948891D01*
X845515Y1945589D01*
X846277Y1941677D01*
X846277Y1885594D01*
X846886Y1880463D01*
X848360Y1876145D01*
X850798Y1872234D01*
X854049Y1869033D01*
X857910Y1866595D01*
X862228Y1865071D01*
X867359Y1864512D01*
X952601Y1864512D01*
X957732Y1865071D01*
X962050Y1866595D01*
X965911Y1869033D01*
X969162Y1872234D01*
X971600Y1876145D01*
X973124Y1880463D01*
X973683Y1885594D01*
X973683Y1965096D01*
X973124Y1970176D01*
X971600Y1974494D01*
X969162Y1978406D01*
X965911Y1981606D01*
X962050Y1984044D01*
X957732Y1985568D01*
X952601Y1986127D01*
X896518Y1986127D01*
X892606Y1986940D01*
X889355Y1989124D01*
X832154Y2046274D01*
X828344Y2049576D01*
X822706Y2052777D01*
X816660Y2054758D01*
X809802Y2055469D01*
X744067Y2055469D01*
X740156Y2056282D01*
X736854Y2058466D01*
X734669Y2061768D01*
X733907Y2065629D01*
X733907Y2089454D01*
X733298Y2094585D01*
X732028Y2100021D01*
X733298Y2105456D01*
X733907Y2110587D01*
X733907Y2134666D01*
X734618Y2138375D01*
X736600Y2141575D01*
X739648Y2143810D01*
X744626Y2144877D01*
X750925Y2146604D01*
X756564Y2149449D01*
X761949Y2153818D01*
X781253Y2173122D01*
X784555Y2176983D01*
X787806Y2182622D01*
X789736Y2188667D01*
X790498Y2195525D01*
X790498Y2254605D01*
X790092Y2259634D01*
X788416Y2265883D01*
X785520Y2271572D01*
X781151Y2276957D01*
X774700Y2283409D01*
X772363Y2287016D01*
X771753Y2291181D01*
X772871Y2295296D01*
X775614Y2298598D01*
X782320Y2303830D01*
X889355Y2410866D01*
X892606Y2413101D01*
X896518Y2413863D01*
X952601Y2413863D01*
X957732Y2414422D01*
X962050Y2415946D01*
X965911Y2418384D01*
X969162Y2421636D01*
X971600Y2425496D01*
X973124Y2429814D01*
X973683Y2434945D01*
X973683Y2514447D01*
X973124Y2519527D01*
X971600Y2523845D01*
X969162Y2527757D01*
X965911Y2530957D01*
X962050Y2533396D01*
X957732Y2534920D01*
X952601Y2535478D01*
X867359Y2535478D01*
X862228Y2534920D01*
X857910Y2533396D01*
X854049Y2530957D01*
X850798Y2527757D01*
X848360Y2523845D01*
X846886Y2519527D01*
X846277Y2514447D01*
X846277Y2458313D01*
X845515Y2454402D01*
X843330Y2451100D01*
X811022Y2418842D01*
X807364Y2416454D01*
X803046Y2415895D01*
X798880Y2417114D01*
X795629Y2420010D01*
X793851Y2423972D01*
X793953Y2428341D01*
X795274Y2435809D01*
X795477Y2439974D01*
X795274Y2444140D01*
X794664Y2448610D01*
X793750Y2452370D01*
X792175Y2456942D01*
X790752Y2460193D01*
X788212Y2464663D01*
X786333Y2467305D01*
X782828Y2471470D01*
X780745Y2473502D01*
X776274Y2477109D01*
X774090Y2478582D01*
X768756Y2481427D01*
X760526Y2484221D01*
X751992Y2485440D01*
X729843Y2485491D01*
X727049Y2485847D01*
X722274Y2488387D01*
X717956Y2489911D01*
X712825Y2490470D01*
X588822Y2490470D01*
X585114Y2491181D01*
X581964Y2493162D01*
X579678Y2496159D01*
X576224Y2509316D01*
X572160Y2518257D01*
X566674Y2526385D01*
X559866Y2533497D01*
X551942Y2539339D01*
X543153Y2543759D01*
X533755Y2546654D01*
X524001Y2547874D01*
X514197Y2547467D01*
X504596Y2545384D01*
X495452Y2541727D01*
X487121Y2536596D01*
X479704Y2530094D01*
X473557Y2522423D01*
X468731Y2513838D01*
X465480Y2504592D01*
X463804Y2494889D01*
X463804Y2485085D01*
X465480Y2475382D01*
X468731Y2466136D01*
X473557Y2457551D01*
X479704Y2449880D01*
X487121Y2443378D01*
X495452Y2438247D01*
X504596Y2434590D01*
X514197Y2432507D01*
X524001Y2432100D01*
X533755Y2433320D01*
X543153Y2436215D01*
X548182Y2438704D01*
X552145Y2439771D01*
X556209Y2439212D01*
X559714Y2437028D01*
X562051Y2433675D01*
X562914Y2429662D01*
X562914Y2410561D01*
X563473Y2405481D01*
X564794Y2399995D01*
X563473Y2394559D01*
X562914Y2389428D01*
X562914Y2360574D01*
X563473Y2355443D01*
X564794Y2350008D01*
X563473Y2344521D01*
X562914Y2339441D01*
X562914Y2310587D01*
X563473Y2305456D01*
X564794Y2299970D01*
X563473Y2294534D01*
X562914Y2289454D01*
X562914Y2265578D01*
X562152Y2261717D01*
X559917Y2258415D01*
X556615Y2256231D01*
X552754Y2255418D01*
X524103Y2255418D01*
X520496Y2256129D01*
X517347Y2258009D01*
X515112Y2260955D01*
X513232Y2264562D01*
X507898Y2271369D01*
X501345Y2277008D01*
X493877Y2281326D01*
X485698Y2284171D01*
X477164Y2285390D01*
X468528Y2284984D01*
X461619Y2283307D01*
X458216Y2283104D01*
X454863Y2284018D01*
X452069Y2286000D01*
X388416Y2349652D01*
X386232Y2352954D01*
X385419Y2356866D01*
X385419Y3063036D01*
X386232Y3066948D01*
X388416Y3070250D01*
X854557Y3536391D01*
X857859Y3538575D01*
X861771Y3539388D01*
X1023619Y3539388D01*
X1027937Y3538372D01*
X1031494Y3535679D01*
X1033475Y3531666D01*
X1033576Y3527247D01*
X1030884Y3513785D01*
X1030020Y3500018D01*
X1030884Y3486251D01*
X1033576Y3472687D01*
X1038047Y3459632D01*
X1044143Y3447237D01*
X1051814Y3435807D01*
X1060907Y3425393D01*
X1071270Y3416300D01*
X1082751Y3408629D01*
X1095095Y3402533D01*
X1108202Y3398113D01*
X1121714Y3395421D01*
X1135481Y3394506D01*
X1149248Y3395421D01*
X1162761Y3398113D01*
X1175816Y3402533D01*
X1188212Y3408629D01*
X1199692Y3416300D01*
X1210056Y3425393D01*
X1219149Y3435807D01*
X1226820Y3447237D01*
X1232916Y3459632D01*
X1237335Y3472687D01*
X1240028Y3486251D01*
X1240942Y3500018D01*
X1240028Y3513785D01*
X1237335Y3527298D01*
X1232916Y3540353D01*
X1226820Y3552748D01*
X1219149Y3564229D01*
X1210056Y3574592D01*
X1199692Y3583686D01*
X1187907Y3591560D01*
X1185113Y3594354D01*
X1183589Y3598011D01*
X1183589Y3601974D01*
X1185113Y3605631D01*
X1187907Y3608425D01*
X1199692Y3616299D01*
X1210056Y3625392D01*
X1219149Y3635806D01*
X1226820Y3647236D01*
X1232916Y3659632D01*
X1237335Y3672687D01*
X1240028Y3686251D01*
X1240942Y3700018D01*
X1240028Y3713784D01*
X1237335Y3727297D01*
X1232916Y3740353D01*
X1226820Y3752748D01*
X1219149Y3764229D01*
X1210056Y3774592D01*
X1199692Y3783685D01*
X1188212Y3791356D01*
X1175816Y3797452D01*
X1162761Y3801872D01*
X1149248Y3804564D01*
X1135481Y3805478D01*
X1121714Y3804564D01*
X1108202Y3801872D01*
X1095095Y3797452D01*
X1082751Y3791356D01*
X1071270Y3783685D01*
X1060907Y3774592D01*
X1051814Y3764229D01*
X1044143Y3752748D01*
X1038047Y3740353D01*
X1033576Y3727297D01*
X1030884Y3713784D01*
X1030020Y3700018D01*
X1030884Y3686251D01*
X1033576Y3672687D01*
X1034897Y3668928D01*
X1035405Y3665118D01*
X1034491Y3661410D01*
X1032256Y3658260D01*
X1029004Y3656228D01*
X1025245Y3655466D01*
X825500Y3655466D01*
X820470Y3655110D01*
X814171Y3653383D01*
X808532Y3650538D01*
X803148Y3646170D01*
X283616Y3126892D01*
X280365Y3123082D01*
X277114Y3117443D01*
X275132Y3111398D01*
X274421Y3104540D01*
X274421Y2315514D01*
X274777Y2310485D01*
X276453Y2304237D01*
X279349Y2298547D01*
X283718Y2293162D01*
X392582Y2184146D01*
X394716Y2180894D01*
X395528Y2177084D01*
X394817Y2173274D01*
X392734Y2169972D01*
X389585Y2167686D01*
X382270Y2164334D01*
X375208Y2159355D01*
X369265Y2153107D01*
X364591Y2145792D01*
X361391Y2137816D01*
X359714Y2129332D01*
X359714Y2120646D01*
X361391Y2112162D01*
X364591Y2104186D01*
X369265Y2096871D01*
X375208Y2090623D01*
X382270Y2085644D01*
X390093Y2082038D01*
X398526Y2080006D01*
X407162Y2079599D01*
X415696Y2080818D01*
X423875Y2083663D01*
X431342Y2087981D01*
X436016Y2091994D01*
X439115Y2093874D01*
X442671Y2094484D01*
X552754Y2094484D01*
X556615Y2093722D01*
X559917Y2091537D01*
X562152Y2088235D01*
X562914Y2084324D01*
X562914Y2060600D01*
X563473Y2055469D01*
X564794Y2050034D01*
X563473Y2044547D01*
X562914Y2039416D01*
X562914Y2010562D01*
X563473Y2005431D01*
X564794Y1999996D01*
X563473Y1994560D01*
X562914Y1989429D01*
X562914Y1970328D01*
X562051Y1966315D01*
X559714Y1962962D01*
X556209Y1960778D01*
X552145Y1960219D01*
X548182Y1961286D01*
X543153Y1963775D01*
X533755Y1966671D01*
X524001Y1967890D01*
X514197Y1967484D01*
X504596Y1965401D01*
X495452Y1961743D01*
X487121Y1956612D01*
X479704Y1950110D01*
X473557Y1942439D01*
X468731Y1933854D01*
X465480Y1924608D01*
X463804Y1914906D01*
X463804Y1905101D01*
X465480Y1895398D01*
X468731Y1886153D01*
X473557Y1877568D01*
X479704Y1869897D01*
X487121Y1863394D01*
X495452Y1858264D01*
X504596Y1854606D01*
X514197Y1852523D01*
G37*
G36*
X4701997Y2043531D02*
G01*
X4715764Y2044446D01*
X4729276Y2047138D01*
X4742332Y2051557D01*
X4754727Y2057654D01*
X4766208Y2065324D01*
X4776571Y2074418D01*
X4785664Y2084781D01*
X4793335Y2096262D01*
X4799431Y2108657D01*
X4803851Y2121712D01*
X4806543Y2135225D01*
X4807458Y2148992D01*
X4806543Y2162759D01*
X4803851Y2176322D01*
X4799431Y2189378D01*
X4793335Y2201722D01*
X4785664Y2213203D01*
X4776571Y2223566D01*
X4766208Y2232660D01*
X4754727Y2240330D01*
X4742332Y2246426D01*
X4729276Y2250897D01*
X4715764Y2253589D01*
X4701997Y2254453D01*
X4688230Y2253589D01*
X4674666Y2250897D01*
X4661611Y2246426D01*
X4649266Y2240330D01*
X4637786Y2232660D01*
X4627422Y2223566D01*
X4618329Y2213203D01*
X4610658Y2201722D01*
X4604562Y2189378D01*
X4600092Y2176322D01*
X4597400Y2162759D01*
X4596485Y2148992D01*
X4597400Y2135225D01*
X4600092Y2121712D01*
X4604562Y2108657D01*
X4610658Y2096262D01*
X4618329Y2084781D01*
X4627422Y2074418D01*
X4637786Y2065324D01*
X4649266Y2057654D01*
X4661611Y2051557D01*
X4674666Y2047138D01*
X4688230Y2044446D01*
G37*
G36*
X1300581Y2259482D02*
G01*
X1359408Y2259482D01*
X1364538Y2260092D01*
X1368856Y2261565D01*
X1372717Y2264003D01*
X1375968Y2267254D01*
X1378407Y2271115D01*
X1379931Y2275433D01*
X1380490Y2280564D01*
X1380490Y2379421D01*
X1379931Y2384552D01*
X1378407Y2388870D01*
X1375968Y2392730D01*
X1372717Y2395982D01*
X1368856Y2398420D01*
X1364538Y2399893D01*
X1359408Y2400503D01*
X1300581Y2400503D01*
X1295450Y2399893D01*
X1291132Y2398420D01*
X1287272Y2395982D01*
X1284020Y2392730D01*
X1281582Y2388870D01*
X1280058Y2384552D01*
X1279499Y2379421D01*
X1279499Y2280564D01*
X1280058Y2275433D01*
X1281582Y2271115D01*
X1284020Y2267254D01*
X1287272Y2264003D01*
X1291132Y2261565D01*
X1295450Y2260092D01*
G37*
G36*
X4701997Y2297531D02*
G01*
X4715764Y2298446D01*
X4729276Y2301138D01*
X4742332Y2305558D01*
X4754727Y2311654D01*
X4766208Y2319324D01*
X4776571Y2328418D01*
X4785664Y2338781D01*
X4793335Y2350262D01*
X4799431Y2362657D01*
X4803851Y2375712D01*
X4806543Y2389225D01*
X4807458Y2402992D01*
X4806543Y2416759D01*
X4803851Y2430322D01*
X4799431Y2443378D01*
X4793335Y2455722D01*
X4785664Y2467203D01*
X4776571Y2477566D01*
X4766208Y2486660D01*
X4754727Y2494330D01*
X4742332Y2500426D01*
X4729276Y2504897D01*
X4715764Y2507589D01*
X4701997Y2508453D01*
X4688230Y2507589D01*
X4674666Y2504897D01*
X4661611Y2500426D01*
X4649266Y2494330D01*
X4637786Y2486660D01*
X4627422Y2477566D01*
X4618329Y2467203D01*
X4610658Y2455722D01*
X4604562Y2443378D01*
X4600092Y2430322D01*
X4597400Y2416759D01*
X4596485Y2402992D01*
X4597400Y2389225D01*
X4600092Y2375712D01*
X4604562Y2362657D01*
X4610658Y2350262D01*
X4618329Y2338781D01*
X4627422Y2328418D01*
X4637786Y2319324D01*
X4649266Y2311654D01*
X4661611Y2305558D01*
X4674666Y2301138D01*
X4688230Y2298446D01*
G37*
G36*
X4701997Y2551531D02*
G01*
X4715764Y2552446D01*
X4729276Y2555138D01*
X4742332Y2559558D01*
X4754727Y2565654D01*
X4766208Y2573324D01*
X4776571Y2582418D01*
X4785664Y2592781D01*
X4793335Y2604262D01*
X4799431Y2616657D01*
X4803851Y2629712D01*
X4806543Y2643225D01*
X4807458Y2656992D01*
X4806543Y2670759D01*
X4803851Y2684322D01*
X4799431Y2697378D01*
X4793335Y2709722D01*
X4785664Y2721203D01*
X4776571Y2731566D01*
X4766208Y2740660D01*
X4754727Y2748330D01*
X4742332Y2754426D01*
X4729276Y2758897D01*
X4715764Y2761589D01*
X4701997Y2762453D01*
X4688230Y2761589D01*
X4674666Y2758897D01*
X4661611Y2754426D01*
X4649266Y2748330D01*
X4637786Y2740660D01*
X4627422Y2731566D01*
X4618329Y2721203D01*
X4610658Y2709722D01*
X4604562Y2697378D01*
X4600092Y2684322D01*
X4597400Y2670759D01*
X4596485Y2656992D01*
X4597400Y2643225D01*
X4600092Y2629712D01*
X4604562Y2616657D01*
X4610658Y2604262D01*
X4618329Y2592781D01*
X4627422Y2582418D01*
X4637786Y2573324D01*
X4649266Y2565654D01*
X4661611Y2559558D01*
X4674666Y2555138D01*
X4688230Y2552446D01*
G37*
G36*
X2602128Y2744571D02*
G01*
X2610662Y2745790D01*
X2618841Y2748635D01*
X2626309Y2752953D01*
X2632862Y2758643D01*
X2638196Y2765399D01*
X2642158Y2773070D01*
X2644597Y2781401D01*
X2645410Y2789986D01*
X2644597Y2798572D01*
X2642158Y2806903D01*
X2638196Y2814574D01*
X2632659Y2821635D01*
X2631033Y2824581D01*
X2630474Y2827883D01*
X2630474Y3608933D01*
X2631338Y3612997D01*
X2633726Y3616401D01*
X2637282Y3618534D01*
X2638856Y3619093D01*
X2646121Y3623818D01*
X2649982Y3624579D01*
X2653893Y3623818D01*
X2661107Y3619093D01*
X2662682Y3618534D01*
X2666238Y3616401D01*
X2668625Y3612997D01*
X2669489Y3608933D01*
X2669489Y2885389D01*
X2669895Y2880360D01*
X2671572Y2874111D01*
X2674467Y2868422D01*
X2678785Y2863037D01*
X2746756Y2795066D01*
X2748991Y2791764D01*
X2749753Y2787904D01*
X2749753Y2785668D01*
X2751378Y2777185D01*
X2754579Y2769158D01*
X2759252Y2761894D01*
X2765247Y2755646D01*
X2772257Y2750616D01*
X2780131Y2747010D01*
X2788513Y2744978D01*
X2797149Y2744571D01*
X2805684Y2745790D01*
X2813862Y2748635D01*
X2821381Y2752953D01*
X2827883Y2758643D01*
X2833217Y2765399D01*
X2837180Y2773070D01*
X2839618Y2781401D01*
X2840431Y2789986D01*
X2839618Y2798572D01*
X2837180Y2806903D01*
X2833217Y2814574D01*
X2827883Y2821330D01*
X2821381Y2827020D01*
X2813862Y2831338D01*
X2805684Y2834182D01*
X2793136Y2836113D01*
X2789732Y2838348D01*
X2733446Y2894634D01*
X2731262Y2897936D01*
X2730500Y2901848D01*
X2730500Y3608933D01*
X2731312Y3612997D01*
X2733751Y3616401D01*
X2737256Y3618534D01*
X2738831Y3619093D01*
X2746095Y3623818D01*
X2750007Y3624579D01*
X2753868Y3623818D01*
X2761132Y3619093D01*
X2765450Y3617569D01*
X2770581Y3617010D01*
X2829407Y3617010D01*
X2834538Y3617569D01*
X2838856Y3619093D01*
X2846120Y3623818D01*
X2849981Y3624579D01*
X2853893Y3623818D01*
X2861106Y3619093D01*
X2862681Y3618534D01*
X2866237Y3616401D01*
X2868625Y3612997D01*
X2869488Y3608933D01*
X2869488Y3527653D01*
X2868777Y3523894D01*
X2866694Y3520643D01*
X2864256Y3518103D01*
X2859582Y3510787D01*
X2856382Y3502812D01*
X2854706Y3494328D01*
X2854706Y3485642D01*
X2856382Y3477158D01*
X2859582Y3469182D01*
X2864256Y3461867D01*
X2870200Y3455619D01*
X2877261Y3450640D01*
X2885084Y3447034D01*
X2893517Y3445001D01*
X2902153Y3444595D01*
X2910687Y3445814D01*
X2918866Y3448659D01*
X2926334Y3452977D01*
X2932887Y3458616D01*
X2938221Y3465423D01*
X2942183Y3473094D01*
X2944622Y3481374D01*
X2945434Y3489960D01*
X2944622Y3498596D01*
X2942183Y3506876D01*
X2938221Y3514547D01*
X2932633Y3521608D01*
X2931058Y3524605D01*
X2930499Y3527907D01*
X2930499Y3608933D01*
X2931312Y3612997D01*
X2933750Y3616401D01*
X2937256Y3618534D01*
X2938830Y3619093D01*
X2946095Y3623818D01*
X2950006Y3624579D01*
X2953867Y3623818D01*
X2961132Y3619093D01*
X2962808Y3618534D01*
X2966364Y3616350D01*
X2968752Y3612997D01*
X2969615Y3608933D01*
X2969615Y3327755D01*
X2968853Y3323996D01*
X2966770Y3320745D01*
X2964230Y3318103D01*
X2959557Y3310788D01*
X2956356Y3302812D01*
X2954731Y3294329D01*
X2954731Y3285642D01*
X2956356Y3277158D01*
X2959557Y3269183D01*
X2964230Y3261867D01*
X2970225Y3255619D01*
X2977235Y3250641D01*
X2985109Y3247034D01*
X2993491Y3245002D01*
X3002127Y3244596D01*
X3010662Y3245815D01*
X3018840Y3248660D01*
X3026359Y3252978D01*
X3032861Y3258616D01*
X3038195Y3265424D01*
X3042158Y3273094D01*
X3044596Y3281375D01*
X3045409Y3289960D01*
X3044596Y3298596D01*
X3042158Y3306876D01*
X3038195Y3314547D01*
X3032760Y3321456D01*
X3031134Y3324453D01*
X3030575Y3327755D01*
X3030575Y3608984D01*
X3031439Y3613048D01*
X3033826Y3616451D01*
X3037382Y3618585D01*
X3038856Y3619093D01*
X3042767Y3621532D01*
X3045968Y3624783D01*
X3048406Y3628644D01*
X3049930Y3632962D01*
X3050489Y3638092D01*
X3050489Y3761943D01*
X3049930Y3767074D01*
X3048406Y3771392D01*
X3045968Y3775252D01*
X3042767Y3778504D01*
X3038856Y3780891D01*
X3034538Y3782415D01*
X3029458Y3783025D01*
X2970580Y3783025D01*
X2965450Y3782415D01*
X2961132Y3780891D01*
X2953867Y3776167D01*
X2950006Y3775405D01*
X2946095Y3776167D01*
X2938830Y3780891D01*
X2934512Y3782415D01*
X2929432Y3783025D01*
X2870555Y3783025D01*
X2865424Y3782415D01*
X2861106Y3780891D01*
X2853893Y3776218D01*
X2849981Y3775405D01*
X2846120Y3776218D01*
X2838856Y3780891D01*
X2837281Y3781450D01*
X2833725Y3783584D01*
X2831338Y3786987D01*
X2830474Y3791051D01*
X2830474Y3814673D01*
X2831033Y3817975D01*
X2832658Y3820922D01*
X2838246Y3828034D01*
X2842209Y3835704D01*
X2844647Y3843985D01*
X2845460Y3852570D01*
X2844647Y3861206D01*
X2844088Y3862933D01*
X2843733Y3866743D01*
X2844800Y3870451D01*
X2847187Y3873449D01*
X2852064Y3875938D01*
X2855925Y3878376D01*
X2859176Y3881628D01*
X2861614Y3885488D01*
X2863088Y3889806D01*
X2863697Y3894937D01*
X2863697Y3974439D01*
X2863088Y3979570D01*
X2861614Y3983888D01*
X2859176Y3987749D01*
X2855925Y3991000D01*
X2852064Y3993387D01*
X2847746Y3994912D01*
X2842615Y3995521D01*
X2757373Y3995521D01*
X2752242Y3994912D01*
X2747924Y3993387D01*
X2744063Y3991000D01*
X2740812Y3987749D01*
X2738374Y3983888D01*
X2736850Y3979570D01*
X2736291Y3974439D01*
X2736291Y3894937D01*
X2736850Y3889806D01*
X2738374Y3885488D01*
X2740812Y3881628D01*
X2744063Y3878376D01*
X2747924Y3875938D01*
X2752598Y3873652D01*
X2754934Y3870858D01*
X2756154Y3867505D01*
X2756103Y3863898D01*
X2754731Y3856939D01*
X2754731Y3848252D01*
X2756408Y3839768D01*
X2759608Y3831793D01*
X2764282Y3824478D01*
X2766669Y3821988D01*
X2768752Y3818737D01*
X2769463Y3814978D01*
X2769463Y3791051D01*
X2768650Y3786987D01*
X2766212Y3783584D01*
X2762656Y3781450D01*
X2761132Y3780891D01*
X2753868Y3776218D01*
X2750007Y3775405D01*
X2746095Y3776218D01*
X2738831Y3780891D01*
X2734513Y3782415D01*
X2729433Y3783025D01*
X2670556Y3783025D01*
X2665425Y3782415D01*
X2661107Y3780891D01*
X2653893Y3776218D01*
X2649982Y3775405D01*
X2646121Y3776218D01*
X2638856Y3780891D01*
X2634538Y3782415D01*
X2629408Y3783025D01*
X2570581Y3783025D01*
X2565450Y3782415D01*
X2561132Y3780891D01*
X2557272Y3778504D01*
X2554020Y3775252D01*
X2551582Y3771392D01*
X2550058Y3767074D01*
X2549499Y3761943D01*
X2549499Y3638092D01*
X2550058Y3632962D01*
X2551582Y3628644D01*
X2554020Y3624783D01*
X2557272Y3621532D01*
X2561132Y3619093D01*
X2562656Y3618534D01*
X2566212Y3616401D01*
X2568651Y3612997D01*
X2569464Y3608933D01*
X2569464Y2827629D01*
X2568752Y2823870D01*
X2566670Y2820619D01*
X2564231Y2818079D01*
X2559558Y2810814D01*
X2556357Y2802788D01*
X2554732Y2794304D01*
X2554732Y2785668D01*
X2556357Y2777185D01*
X2559558Y2769158D01*
X2564231Y2761894D01*
X2570226Y2755646D01*
X2577236Y2750616D01*
X2585110Y2747010D01*
X2593492Y2744978D01*
G37*
G36*
X4701997Y2805531D02*
G01*
X4715764Y2806446D01*
X4729276Y2809138D01*
X4742332Y2813558D01*
X4754727Y2819654D01*
X4766208Y2827324D01*
X4776571Y2836418D01*
X4785664Y2846781D01*
X4793335Y2858262D01*
X4799431Y2870657D01*
X4803851Y2883712D01*
X4806543Y2897225D01*
X4807458Y2910992D01*
X4806543Y2924759D01*
X4803851Y2938322D01*
X4799431Y2951378D01*
X4793335Y2963722D01*
X4785664Y2975203D01*
X4776571Y2985566D01*
X4766208Y2994660D01*
X4754727Y3002330D01*
X4742332Y3008426D01*
X4729276Y3012897D01*
X4715764Y3015589D01*
X4701997Y3016453D01*
X4688230Y3015589D01*
X4674666Y3012897D01*
X4661611Y3008426D01*
X4649266Y3002330D01*
X4637786Y2994660D01*
X4627422Y2985566D01*
X4618329Y2975203D01*
X4610658Y2963722D01*
X4604562Y2951378D01*
X4600092Y2938322D01*
X4597400Y2924759D01*
X4596485Y2910992D01*
X4597400Y2897225D01*
X4600092Y2883712D01*
X4604562Y2870657D01*
X4610658Y2858262D01*
X4618329Y2846781D01*
X4627422Y2836418D01*
X4637786Y2827324D01*
X4649266Y2819654D01*
X4661611Y2813558D01*
X4674666Y2809138D01*
X4688230Y2806446D01*
G37*
G36*
X2238044Y2949498D02*
G01*
X2361895Y2949498D01*
X2367026Y2950057D01*
X2371344Y2951581D01*
X2375204Y2954020D01*
X2378456Y2957271D01*
X2380894Y2961132D01*
X2382418Y2965450D01*
X2382977Y2970580D01*
X2382977Y3029458D01*
X2382418Y3034538D01*
X2380894Y3038856D01*
X2376170Y3046120D01*
X2375408Y3050032D01*
X2376170Y3053892D01*
X2380894Y3061157D01*
X2382418Y3065475D01*
X2382977Y3070606D01*
X2382977Y3129483D01*
X2382418Y3134563D01*
X2380894Y3138881D01*
X2376170Y3146145D01*
X2375408Y3150006D01*
X2376170Y3153918D01*
X2380894Y3161182D01*
X2382418Y3165500D01*
X2382977Y3170580D01*
X2382977Y3229457D01*
X2382418Y3234588D01*
X2380894Y3238906D01*
X2376170Y3246120D01*
X2375408Y3250031D01*
X2376170Y3253892D01*
X2380894Y3261156D01*
X2382418Y3265474D01*
X2382977Y3270605D01*
X2382977Y3329482D01*
X2382418Y3334562D01*
X2380894Y3338880D01*
X2376170Y3346145D01*
X2375408Y3350006D01*
X2376170Y3353917D01*
X2380894Y3361182D01*
X2382062Y3364534D01*
X2383637Y3367430D01*
X2386025Y3369614D01*
X2391156Y3371596D01*
X2396845Y3374542D01*
X2402179Y3378911D01*
X2421229Y3398215D01*
X2425547Y3403600D01*
X2428392Y3409289D01*
X2430018Y3415588D01*
X2430373Y3420414D01*
X2430373Y4119626D01*
X2430018Y4124655D01*
X2428290Y4130954D01*
X2425446Y4136593D01*
X2421077Y4141978D01*
X2308402Y4254652D01*
X2306218Y4257954D01*
X2305405Y4261866D01*
X2305405Y4544110D01*
X2306218Y4548022D01*
X2308402Y4551324D01*
X2352344Y4595266D01*
X2355748Y4597501D01*
X2359710Y4598263D01*
X2363673Y4597400D01*
X2372817Y4593336D01*
X2386380Y4589272D01*
X2400401Y4587036D01*
X2414524Y4586579D01*
X2428595Y4587951D01*
X2442413Y4591100D01*
X2455722Y4595977D01*
X2468270Y4602530D01*
X2479852Y4610608D01*
X2490368Y4620158D01*
X2499512Y4630928D01*
X2507234Y4642764D01*
X2513380Y4655566D01*
X2517851Y4668977D01*
X2520543Y4682896D01*
X2521458Y4697018D01*
X2520543Y4711141D01*
X2517851Y4725009D01*
X2513380Y4738471D01*
X2507234Y4751222D01*
X2499512Y4763058D01*
X2490368Y4773879D01*
X2487218Y4776724D01*
X2484831Y4779975D01*
X2483866Y4783886D01*
X2484577Y4787900D01*
X2486761Y4791303D01*
X2490063Y4793589D01*
X2494026Y4794402D01*
X2520238Y4794402D01*
X2524099Y4793589D01*
X2527401Y4791405D01*
X2563114Y4755743D01*
X2565349Y4752492D01*
X2566111Y4748631D01*
X2565400Y4744770D01*
X2560116Y4731816D01*
X2556560Y4718100D01*
X2554732Y4704080D01*
X2554732Y4689906D01*
X2556560Y4675886D01*
X2560116Y4662170D01*
X2565450Y4649063D01*
X2572410Y4636719D01*
X2580843Y4625390D01*
X2590698Y4615230D01*
X2601772Y4606391D01*
X2613863Y4599076D01*
X2626817Y4593336D01*
X2640380Y4589272D01*
X2654401Y4587036D01*
X2668524Y4586579D01*
X2682595Y4587951D01*
X2696413Y4591100D01*
X2709722Y4595977D01*
X2722270Y4602530D01*
X2733852Y4610608D01*
X2744368Y4620158D01*
X2753512Y4630928D01*
X2761234Y4642764D01*
X2767380Y4655566D01*
X2771851Y4668977D01*
X2774543Y4682896D01*
X2775458Y4697018D01*
X2774543Y4711141D01*
X2771851Y4725009D01*
X2767380Y4738471D01*
X2761234Y4751222D01*
X2753512Y4763058D01*
X2744368Y4773879D01*
X2733852Y4783378D01*
X2722270Y4791456D01*
X2709722Y4798009D01*
X2696413Y4802886D01*
X2682595Y4806086D01*
X2668524Y4807407D01*
X2654401Y4806950D01*
X2640380Y4804714D01*
X2626817Y4800701D01*
X2617724Y4796637D01*
X2613761Y4795774D01*
X2609799Y4796536D01*
X2606395Y4798720D01*
X2567432Y4837633D01*
X2565247Y4840935D01*
X2564485Y4844846D01*
X2565247Y4848707D01*
X2567432Y4852009D01*
X2570734Y4854194D01*
X2574645Y4855006D01*
X4259224Y4855006D01*
X4263085Y4854194D01*
X4266387Y4852009D01*
X4405020Y4713376D01*
X4407204Y4710074D01*
X4408017Y4706213D01*
X4408017Y4033824D01*
X4407204Y4029964D01*
X4405020Y4026662D01*
X4401718Y4024477D01*
X4397857Y4023664D01*
X4372356Y4023664D01*
X4367225Y4023106D01*
X4362907Y4021582D01*
X4359046Y4019143D01*
X4355795Y4015943D01*
X4353407Y4012082D01*
X4351883Y4007764D01*
X4351274Y4002633D01*
X4351274Y3977589D01*
X4350512Y3973728D01*
X4348327Y3970426D01*
X4345025Y3968191D01*
X4341114Y3967429D01*
X4287367Y3967429D01*
X4278985Y3966616D01*
X4271416Y3964330D01*
X4264406Y3960571D01*
X4257903Y3955237D01*
X4181652Y3878986D01*
X4176318Y3872484D01*
X4172559Y3865473D01*
X4170273Y3857904D01*
X4169460Y3849522D01*
X4169460Y3570986D01*
X4168698Y3567125D01*
X4166463Y3563823D01*
X4046220Y3443376D01*
X4042918Y3441141D01*
X4039057Y3440379D01*
X3985056Y3440379D01*
X3981145Y3441141D01*
X3977843Y3443376D01*
X3975201Y3446018D01*
X3971340Y3448456D01*
X3967022Y3449929D01*
X3961892Y3450539D01*
X3838041Y3450539D01*
X3832961Y3449929D01*
X3828643Y3448456D01*
X3824732Y3446018D01*
X3821531Y3442766D01*
X3819093Y3438906D01*
X3817569Y3434587D01*
X3817010Y3429457D01*
X3817010Y3370579D01*
X3817569Y3365500D01*
X3819093Y3361182D01*
X3821531Y3357270D01*
X3824732Y3354070D01*
X3828643Y3351631D01*
X3832961Y3350107D01*
X3838041Y3349548D01*
X3961892Y3349548D01*
X3967022Y3350107D01*
X3971340Y3351631D01*
X3975201Y3354070D01*
X3977690Y3356508D01*
X3980992Y3358743D01*
X3984853Y3359505D01*
X4059529Y3359505D01*
X4067911Y3360318D01*
X4075480Y3362604D01*
X4082491Y3366363D01*
X4088993Y3371697D01*
X4238193Y3521151D01*
X4243476Y3527602D01*
X4247235Y3534613D01*
X4249521Y3542182D01*
X4250334Y3550564D01*
X4250334Y3829050D01*
X4251096Y3832961D01*
X4253331Y3836263D01*
X4300626Y3883558D01*
X4303928Y3885793D01*
X4307840Y3886555D01*
X4341114Y3886555D01*
X4345025Y3885793D01*
X4348327Y3883558D01*
X4350512Y3880256D01*
X4351274Y3876395D01*
X4351274Y3851351D01*
X4351883Y3846220D01*
X4353407Y3841902D01*
X4355795Y3838041D01*
X4359046Y3834841D01*
X4362907Y3832402D01*
X4367225Y3830878D01*
X4372356Y3830269D01*
X4523638Y3830269D01*
X4528718Y3830878D01*
X4533036Y3832402D01*
X4536948Y3834841D01*
X4540148Y3838041D01*
X4542586Y3841902D01*
X4544110Y3846220D01*
X4544669Y3851351D01*
X4544669Y3876395D01*
X4545482Y3880256D01*
X4547666Y3883558D01*
X4550968Y3885793D01*
X4554829Y3886555D01*
X4608017Y3886555D01*
X4611420Y3885946D01*
X4614418Y3884269D01*
X4616653Y3881678D01*
X4623003Y3871264D01*
X4631334Y3861003D01*
X4640986Y3852011D01*
X4651756Y3844391D01*
X4663490Y3838346D01*
X4675886Y3833926D01*
X4688840Y3831234D01*
X4701997Y3830320D01*
X4715154Y3831234D01*
X4728057Y3833926D01*
X4740503Y3838346D01*
X4752238Y3844391D01*
X4763008Y3852011D01*
X4772660Y3861003D01*
X4780991Y3871264D01*
X4787849Y3882491D01*
X4793081Y3894632D01*
X4796637Y3907332D01*
X4798415Y3920388D01*
X4798415Y3933596D01*
X4796637Y3946651D01*
X4793081Y3959351D01*
X4787849Y3971493D01*
X4780991Y3982720D01*
X4772660Y3992981D01*
X4763008Y4001973D01*
X4752238Y4009593D01*
X4740503Y4015638D01*
X4728057Y4020058D01*
X4715154Y4022750D01*
X4701997Y4023664D01*
X4688840Y4022750D01*
X4675886Y4020058D01*
X4663490Y4015638D01*
X4651756Y4009593D01*
X4640986Y4001973D01*
X4631334Y3992981D01*
X4623003Y3982720D01*
X4616653Y3972306D01*
X4614418Y3969715D01*
X4611420Y3968038D01*
X4608017Y3967429D01*
X4554829Y3967429D01*
X4550968Y3968191D01*
X4547666Y3970426D01*
X4545482Y3973728D01*
X4544669Y3977589D01*
X4544669Y4002633D01*
X4544110Y4007764D01*
X4542586Y4012082D01*
X4540148Y4015943D01*
X4536948Y4019143D01*
X4533036Y4021582D01*
X4528718Y4023106D01*
X4523638Y4023664D01*
X4498136Y4023664D01*
X4494276Y4024477D01*
X4490974Y4026662D01*
X4488738Y4029964D01*
X4487976Y4033824D01*
X4487976Y4264355D01*
X4488738Y4268216D01*
X4490974Y4271518D01*
X4494276Y4273702D01*
X4498136Y4274515D01*
X4544415Y4274515D01*
X4549546Y4275074D01*
X4553864Y4276598D01*
X4557725Y4279036D01*
X4560976Y4282236D01*
X4563414Y4286097D01*
X4564888Y4290466D01*
X4565497Y4295546D01*
X4565497Y4384395D01*
X4564888Y4389526D01*
X4563414Y4393844D01*
X4560976Y4397705D01*
X4557725Y4400956D01*
X4553864Y4403394D01*
X4549546Y4404918D01*
X4544415Y4405477D01*
X4498136Y4405477D01*
X4494276Y4406239D01*
X4490974Y4408474D01*
X4488738Y4411776D01*
X4487976Y4415637D01*
X4487976Y4660696D01*
X4488891Y4664913D01*
X4491482Y4668367D01*
X4495292Y4670399D01*
X4499559Y4670755D01*
X4503623Y4669231D01*
X4506671Y4666183D01*
X4508246Y4661865D01*
X4512919Y4643272D01*
X4519371Y4625187D01*
X4527550Y4607864D01*
X4537456Y4591405D01*
X4548886Y4576013D01*
X4561738Y4561789D01*
X4575962Y4548886D01*
X4591354Y4537456D01*
X4607814Y4527600D01*
X4625187Y4519422D01*
X4643221Y4512919D01*
X4661814Y4508296D01*
X4680813Y4505452D01*
X4699965Y4504537D01*
X4719116Y4505452D01*
X4738116Y4508296D01*
X4756708Y4512919D01*
X4774793Y4519422D01*
X4792116Y4527600D01*
X4808575Y4537456D01*
X4823968Y4548886D01*
X4838192Y4561789D01*
X4851095Y4576013D01*
X4862525Y4591405D01*
X4872380Y4607864D01*
X4880559Y4625187D01*
X4887061Y4643272D01*
X4891684Y4661865D01*
X4894529Y4680864D01*
X4895443Y4700016D01*
X4894529Y4719167D01*
X4891684Y4738116D01*
X4887061Y4756759D01*
X4880559Y4774793D01*
X4872380Y4792167D01*
X4862525Y4808626D01*
X4851095Y4824018D01*
X4838192Y4838242D01*
X4823968Y4851095D01*
X4808575Y4862525D01*
X4792116Y4872380D01*
X4774793Y4880610D01*
X4756708Y4887061D01*
X4738116Y4891735D01*
X4719116Y4894529D01*
X4699965Y4895494D01*
X4680813Y4894529D01*
X4661814Y4891735D01*
X4643221Y4887061D01*
X4625187Y4880610D01*
X4607814Y4872380D01*
X4591354Y4862525D01*
X4575962Y4851095D01*
X4561738Y4838242D01*
X4548886Y4824018D01*
X4537456Y4808626D01*
X4527550Y4792167D01*
X4519371Y4774793D01*
X4512919Y4756759D01*
X4508246Y4738116D01*
X4507484Y4732934D01*
X4506010Y4728972D01*
X4503115Y4725974D01*
X4499254Y4724400D01*
X4495088Y4724501D01*
X4491329Y4726279D01*
X4488535Y4729429D01*
X4487164Y4734763D01*
X4484878Y4742281D01*
X4481220Y4749190D01*
X4475937Y4755591D01*
X4308602Y4922926D01*
X4302150Y4928209D01*
X4295241Y4931918D01*
X4287774Y4934153D01*
X4279493Y4934966D01*
X790498Y4934966D01*
X782167Y4934153D01*
X774700Y4931918D01*
X767791Y4928209D01*
X761339Y4922926D01*
X612038Y4773625D01*
X606755Y4767173D01*
X603097Y4760264D01*
X600811Y4752797D01*
X599998Y4744466D01*
X599998Y4050487D01*
X600811Y4042206D01*
X603097Y4034688D01*
X606755Y4027779D01*
X612038Y4021378D01*
X711301Y3922064D01*
X717753Y3916781D01*
X724662Y3913124D01*
X732180Y3910837D01*
X740460Y3910025D01*
X1031544Y3910025D01*
X1035202Y3909314D01*
X1038402Y3907332D01*
X1040637Y3904335D01*
X1044143Y3897274D01*
X1051814Y3885793D01*
X1060907Y3875430D01*
X1071270Y3866337D01*
X1082751Y3858666D01*
X1095095Y3852570D01*
X1108202Y3848100D01*
X1121714Y3845407D01*
X1135481Y3844544D01*
X1149248Y3845407D01*
X1162761Y3848100D01*
X1175816Y3852570D01*
X1188212Y3858666D01*
X1199692Y3866337D01*
X1210056Y3875430D01*
X1219149Y3885793D01*
X1226820Y3897274D01*
X1232916Y3909618D01*
X1237335Y3922674D01*
X1240028Y3936237D01*
X1240942Y3950004D01*
X1240028Y3963771D01*
X1237335Y3977284D01*
X1232916Y3990340D01*
X1226820Y4002735D01*
X1219149Y4014215D01*
X1210056Y4024579D01*
X1199692Y4033672D01*
X1188212Y4041343D01*
X1175816Y4047439D01*
X1162761Y4051858D01*
X1149248Y4054551D01*
X1135481Y4055465D01*
X1121714Y4054551D01*
X1108202Y4051858D01*
X1095095Y4047439D01*
X1082751Y4041343D01*
X1071270Y4033672D01*
X1060907Y4024579D01*
X1051814Y4014215D01*
X1044143Y4002735D01*
X1040637Y3995674D01*
X1038402Y3992676D01*
X1035202Y3990695D01*
X1031544Y3990035D01*
X760730Y3990035D01*
X756869Y3990797D01*
X753567Y3992981D01*
X682955Y4063593D01*
X680770Y4066895D01*
X679958Y4070756D01*
X679958Y4724196D01*
X680770Y4728108D01*
X682955Y4731410D01*
X803554Y4852009D01*
X806856Y4854194D01*
X810768Y4855006D01*
X2287422Y4855006D01*
X2291283Y4854194D01*
X2294585Y4852009D01*
X2296820Y4848707D01*
X2297582Y4844846D01*
X2296820Y4840935D01*
X2294585Y4837633D01*
X2208682Y4751730D01*
X2205431Y4747920D01*
X2202180Y4742281D01*
X2200198Y4736236D01*
X2199487Y4729378D01*
X2199487Y4225340D01*
X2199843Y4220311D01*
X2201570Y4214012D01*
X2204415Y4208373D01*
X2208784Y4202988D01*
X2321458Y4090314D01*
X2323642Y4087012D01*
X2324455Y4083100D01*
X2324455Y3560673D01*
X2323642Y3556812D01*
X2321458Y3553510D01*
X2318156Y3551275D01*
X2314295Y3550513D01*
X2238044Y3550513D01*
X2232964Y3549954D01*
X2228646Y3548430D01*
X2224735Y3545992D01*
X2221534Y3542792D01*
X2219299Y3539236D01*
X2216251Y3536137D01*
X2212187Y3534562D01*
X2207869Y3534867D01*
X2204059Y3536950D01*
X2201468Y3540404D01*
X2200503Y3544620D01*
X2200503Y3737610D01*
X2200148Y3742639D01*
X2198420Y3748938D01*
X2195576Y3754577D01*
X2191207Y3759962D01*
X2024989Y3926179D01*
X2022703Y3929684D01*
X2022043Y3933799D01*
X2023059Y3937863D01*
X2024430Y3940657D01*
X2028850Y3953713D01*
X2031542Y3967226D01*
X2032457Y3980992D01*
X2031542Y3994759D01*
X2028850Y4008272D01*
X2024430Y4021378D01*
X2018334Y4033723D01*
X2010664Y4045204D01*
X2001570Y4055567D01*
X1991207Y4064660D01*
X1979726Y4072331D01*
X1967331Y4078427D01*
X1954275Y4082897D01*
X1940763Y4085590D01*
X1926996Y4086453D01*
X1913229Y4085590D01*
X1899666Y4082897D01*
X1886610Y4078427D01*
X1874266Y4072331D01*
X1862785Y4064660D01*
X1852371Y4055567D01*
X1849069Y4053636D01*
X1845259Y4053027D01*
X1841500Y4053941D01*
X1838350Y4056176D01*
X1836267Y4059428D01*
X1835505Y4063187D01*
X1835505Y4212894D01*
X1836318Y4216806D01*
X1838502Y4220108D01*
X2051710Y4433316D01*
X2055012Y4435551D01*
X2058924Y4436313D01*
X2115058Y4436313D01*
X2120188Y4436872D01*
X2124506Y4438396D01*
X2128367Y4440834D01*
X2131618Y4444034D01*
X2134057Y4447946D01*
X2135530Y4452264D01*
X2136140Y4457344D01*
X2136140Y4542637D01*
X2135530Y4547768D01*
X2134057Y4552086D01*
X2131618Y4555947D01*
X2128367Y4559198D01*
X2124506Y4561586D01*
X2120188Y4563110D01*
X2115058Y4563719D01*
X2035556Y4563719D01*
X2030425Y4563110D01*
X2026107Y4561586D01*
X2022246Y4559198D01*
X2018995Y4555947D01*
X2016556Y4552086D01*
X2015083Y4547768D01*
X2014474Y4542637D01*
X2014474Y4486554D01*
X2013712Y4482693D01*
X2011527Y4479391D01*
X2002840Y4470704D01*
X1999538Y4468469D01*
X1995627Y4467707D01*
X1991766Y4468469D01*
X1988464Y4470704D01*
X1986280Y4474006D01*
X1985467Y4477867D01*
X1985467Y4542637D01*
X1984908Y4547768D01*
X1983384Y4552086D01*
X1980946Y4555947D01*
X1977745Y4559198D01*
X1973834Y4561586D01*
X1969516Y4563110D01*
X1964182Y4563719D01*
X1960625Y4564786D01*
X1957730Y4567072D01*
X1955800Y4570222D01*
X1955139Y4573828D01*
X1955139Y4620514D01*
X1955546Y4623358D01*
X1958390Y4628642D01*
X1959914Y4632960D01*
X1960473Y4638090D01*
X1960473Y4761941D01*
X1959914Y4767021D01*
X1958390Y4771339D01*
X1955952Y4775250D01*
X1952752Y4778451D01*
X1948840Y4780889D01*
X1944522Y4782413D01*
X1939442Y4782972D01*
X1840585Y4782972D01*
X1835454Y4782413D01*
X1831136Y4780889D01*
X1827275Y4778451D01*
X1824024Y4775250D01*
X1821586Y4771339D01*
X1820062Y4767021D01*
X1819503Y4761941D01*
X1819503Y4638090D01*
X1820062Y4632960D01*
X1821586Y4628642D01*
X1824024Y4624781D01*
X1827275Y4621530D01*
X1831136Y4619091D01*
X1835454Y4617567D01*
X1840585Y4617008D01*
X1883968Y4617008D01*
X1887880Y4616246D01*
X1891182Y4614011D01*
X1893366Y4610709D01*
X1894128Y4606848D01*
X1894128Y4573828D01*
X1893468Y4570171D01*
X1891588Y4567072D01*
X1888642Y4564786D01*
X1885137Y4563719D01*
X1879803Y4563110D01*
X1875485Y4561586D01*
X1871573Y4559198D01*
X1868373Y4555947D01*
X1865934Y4552086D01*
X1864410Y4547768D01*
X1863852Y4542637D01*
X1863852Y4457344D01*
X1864410Y4452264D01*
X1865934Y4447946D01*
X1868373Y4444034D01*
X1871573Y4440834D01*
X1875485Y4438396D01*
X1879803Y4436872D01*
X1884934Y4436313D01*
X1943912Y4436313D01*
X1947773Y4435551D01*
X1951075Y4433316D01*
X1953310Y4430014D01*
X1954072Y4426153D01*
X1953310Y4422241D01*
X1951075Y4418939D01*
X1783740Y4251604D01*
X1780489Y4247794D01*
X1777238Y4242155D01*
X1775256Y4236110D01*
X1774545Y4229252D01*
X1774545Y3797808D01*
X1773732Y3793845D01*
X1771396Y3790492D01*
X1767941Y3788308D01*
X1763928Y3787698D01*
X1759966Y3788664D01*
X1756714Y3791153D01*
X1747570Y3801567D01*
X1737207Y3810660D01*
X1725726Y3818331D01*
X1713331Y3824427D01*
X1700275Y3828897D01*
X1686763Y3831590D01*
X1672996Y3832453D01*
X1659229Y3831590D01*
X1645666Y3828897D01*
X1632610Y3824427D01*
X1620266Y3818331D01*
X1608785Y3810660D01*
X1598422Y3801567D01*
X1589328Y3791204D01*
X1581658Y3779723D01*
X1575562Y3767378D01*
X1571091Y3754272D01*
X1568399Y3740759D01*
X1567484Y3726992D01*
X1568399Y3713226D01*
X1571091Y3699713D01*
X1575562Y3686657D01*
X1581658Y3674262D01*
X1589328Y3662781D01*
X1598422Y3652418D01*
X1608785Y3643325D01*
X1620266Y3635654D01*
X1632610Y3629558D01*
X1645666Y3625138D01*
X1659229Y3622446D01*
X1672996Y3621532D01*
X1686763Y3622446D01*
X1700275Y3625138D01*
X1713331Y3629558D01*
X1725726Y3635654D01*
X1737207Y3643325D01*
X1747570Y3652418D01*
X1756714Y3662883D01*
X1759966Y3665321D01*
X1763928Y3666337D01*
X1767941Y3665677D01*
X1771396Y3663492D01*
X1773732Y3660140D01*
X1774545Y3656177D01*
X1774545Y3621786D01*
X1773732Y3617874D01*
X1771548Y3614572D01*
X1727860Y3570986D01*
X1724355Y3568700D01*
X1720240Y3568039D01*
X1716176Y3569055D01*
X1713331Y3570427D01*
X1700275Y3574897D01*
X1686763Y3577590D01*
X1672996Y3578453D01*
X1659229Y3577590D01*
X1645666Y3574897D01*
X1632610Y3570427D01*
X1620266Y3564331D01*
X1608785Y3556660D01*
X1598422Y3547567D01*
X1589328Y3537204D01*
X1581658Y3525723D01*
X1575562Y3513378D01*
X1571091Y3500272D01*
X1568399Y3486759D01*
X1567484Y3472992D01*
X1568399Y3459226D01*
X1571091Y3445713D01*
X1575562Y3432657D01*
X1581658Y3420262D01*
X1589328Y3408781D01*
X1598422Y3398418D01*
X1608785Y3389325D01*
X1620266Y3381654D01*
X1632610Y3375558D01*
X1645666Y3371138D01*
X1659229Y3368446D01*
X1672996Y3367532D01*
X1686763Y3368446D01*
X1700275Y3371138D01*
X1713331Y3375558D01*
X1725726Y3381654D01*
X1737207Y3389325D01*
X1747570Y3398418D01*
X1756664Y3408781D01*
X1764334Y3420262D01*
X1770430Y3432657D01*
X1774850Y3445713D01*
X1777542Y3459226D01*
X1778457Y3472992D01*
X1777542Y3486759D01*
X1774850Y3500272D01*
X1770430Y3513378D01*
X1769059Y3516172D01*
X1767992Y3520236D01*
X1768703Y3524351D01*
X1770989Y3527856D01*
X1826310Y3583025D01*
X1829612Y3586937D01*
X1832813Y3592525D01*
X1834794Y3598570D01*
X1835505Y3605428D01*
X1835505Y3644798D01*
X1836267Y3648557D01*
X1838350Y3651808D01*
X1841500Y3654044D01*
X1845259Y3654958D01*
X1849069Y3654399D01*
X1852371Y3652418D01*
X1862785Y3643325D01*
X1874266Y3635654D01*
X1886610Y3629558D01*
X1899666Y3625138D01*
X1913229Y3622446D01*
X1926996Y3621532D01*
X1940763Y3622446D01*
X1954275Y3625138D01*
X1967331Y3629558D01*
X1970176Y3630980D01*
X1974240Y3631996D01*
X1978355Y3631336D01*
X1981860Y3629050D01*
X2076602Y3534308D01*
X2078786Y3531006D01*
X2079599Y3527094D01*
X2079599Y3387902D01*
X2078786Y3383991D01*
X2076602Y3380689D01*
X2073300Y3378504D01*
X2069439Y3377742D01*
X2065528Y3378504D01*
X2062225Y3380689D01*
X2024938Y3418078D01*
X2022652Y3421583D01*
X2021992Y3425698D01*
X2023008Y3429762D01*
X2024430Y3432657D01*
X2028850Y3445713D01*
X2031542Y3459226D01*
X2032457Y3472992D01*
X2031542Y3486759D01*
X2028850Y3500272D01*
X2024430Y3513378D01*
X2018334Y3525723D01*
X2010664Y3537204D01*
X2001570Y3547567D01*
X1991207Y3556660D01*
X1979726Y3564331D01*
X1967331Y3570427D01*
X1954275Y3574897D01*
X1940763Y3577590D01*
X1926996Y3578453D01*
X1913229Y3577590D01*
X1899666Y3574897D01*
X1886610Y3570427D01*
X1874266Y3564331D01*
X1862785Y3556660D01*
X1852422Y3547567D01*
X1843328Y3537204D01*
X1835657Y3525723D01*
X1829562Y3513378D01*
X1825091Y3500272D01*
X1822399Y3486759D01*
X1821484Y3472992D01*
X1822399Y3459226D01*
X1825091Y3445713D01*
X1829562Y3432657D01*
X1835657Y3420262D01*
X1843328Y3408781D01*
X1852422Y3398418D01*
X1862785Y3389325D01*
X1874266Y3381654D01*
X1886610Y3375558D01*
X1899666Y3371138D01*
X1913229Y3368446D01*
X1926996Y3367532D01*
X1940763Y3368446D01*
X1954275Y3371138D01*
X1967331Y3375558D01*
X1970074Y3376929D01*
X1974138Y3377946D01*
X1978253Y3377285D01*
X1981758Y3374948D01*
X2016404Y3340252D01*
X2018588Y3336950D01*
X2019401Y3333089D01*
X2019401Y3300272D01*
X2018588Y3296259D01*
X2016252Y3292906D01*
X2012797Y3290773D01*
X2008784Y3290112D01*
X2004822Y3291078D01*
X2001570Y3293567D01*
X1991207Y3302660D01*
X1979726Y3310331D01*
X1967331Y3316427D01*
X1954275Y3320897D01*
X1940763Y3323590D01*
X1926996Y3324453D01*
X1913229Y3323590D01*
X1899666Y3320897D01*
X1886610Y3316427D01*
X1874266Y3310331D01*
X1862785Y3302660D01*
X1852422Y3293567D01*
X1843328Y3283204D01*
X1835657Y3271723D01*
X1829562Y3259378D01*
X1825091Y3246272D01*
X1822399Y3232759D01*
X1821484Y3218992D01*
X1822399Y3205226D01*
X1825091Y3191713D01*
X1829562Y3178657D01*
X1835657Y3166262D01*
X1843328Y3154781D01*
X1852422Y3144418D01*
X1862785Y3135325D01*
X1874266Y3127654D01*
X1886610Y3121558D01*
X1899666Y3117138D01*
X1913229Y3114446D01*
X1926996Y3113532D01*
X1940763Y3114446D01*
X1954275Y3117138D01*
X1967331Y3121558D01*
X1970176Y3122930D01*
X1974189Y3123996D01*
X1978355Y3123285D01*
X1981860Y3120999D01*
X2124151Y2978708D01*
X2127961Y2975457D01*
X2133600Y2972206D01*
X2139645Y2970225D01*
X2146503Y2969514D01*
X2208936Y2969514D01*
X2213000Y2968650D01*
X2216404Y2966262D01*
X2218537Y2962706D01*
X2219096Y2961132D01*
X2221534Y2957271D01*
X2224735Y2954020D01*
X2228646Y2951581D01*
X2232964Y2950057D01*
G37*
G36*
X984910Y4436313D02*
G01*
X1064412Y4436313D01*
X1069543Y4436872D01*
X1073861Y4438396D01*
X1077722Y4440834D01*
X1080973Y4444034D01*
X1083411Y4447946D01*
X1084884Y4452264D01*
X1085494Y4457344D01*
X1085494Y4542637D01*
X1084884Y4547768D01*
X1083411Y4552086D01*
X1080973Y4555947D01*
X1077722Y4559198D01*
X1073861Y4561586D01*
X1069543Y4563110D01*
X1064158Y4563719D01*
X1060653Y4564786D01*
X1057706Y4567072D01*
X1055827Y4570222D01*
X1055166Y4573828D01*
X1055166Y4620514D01*
X1055522Y4623358D01*
X1058418Y4628642D01*
X1059891Y4632960D01*
X1060500Y4638090D01*
X1060500Y4761941D01*
X1059891Y4767021D01*
X1058418Y4771339D01*
X1055979Y4775250D01*
X1052728Y4778451D01*
X1048867Y4780889D01*
X1044549Y4782413D01*
X1039418Y4782972D01*
X940562Y4782972D01*
X935431Y4782413D01*
X931113Y4780889D01*
X927252Y4778451D01*
X924001Y4775250D01*
X921562Y4771339D01*
X920089Y4767021D01*
X919480Y4761941D01*
X919480Y4638090D01*
X920089Y4632960D01*
X921562Y4628642D01*
X924001Y4624781D01*
X927252Y4621530D01*
X931113Y4619091D01*
X935431Y4617567D01*
X940562Y4617008D01*
X983996Y4617008D01*
X987856Y4616246D01*
X991158Y4614011D01*
X993394Y4610709D01*
X994156Y4606848D01*
X994156Y4573828D01*
X993495Y4570171D01*
X991565Y4567072D01*
X988669Y4564786D01*
X985113Y4563719D01*
X979779Y4563110D01*
X975461Y4561586D01*
X971600Y4559198D01*
X968349Y4555947D01*
X965911Y4552086D01*
X964437Y4547768D01*
X963828Y4542637D01*
X963828Y4457344D01*
X964437Y4452264D01*
X965911Y4447946D01*
X968349Y4444034D01*
X971600Y4440834D01*
X975461Y4438396D01*
X979779Y4436872D01*
G37*
G36*
X299974Y4504537D02*
G01*
X319125Y4505452D01*
X338124Y4508296D01*
X356717Y4512919D01*
X374802Y4519422D01*
X392125Y4527600D01*
X408584Y4537456D01*
X423976Y4548886D01*
X438200Y4561789D01*
X451104Y4576013D01*
X462534Y4591405D01*
X472389Y4607864D01*
X480568Y4625187D01*
X487019Y4643272D01*
X491693Y4661865D01*
X494538Y4680864D01*
X495452Y4700016D01*
X494538Y4719167D01*
X491693Y4738116D01*
X487019Y4756759D01*
X480568Y4774793D01*
X472389Y4792167D01*
X462534Y4808626D01*
X451104Y4824018D01*
X438200Y4838242D01*
X423976Y4851095D01*
X408584Y4862525D01*
X392125Y4872380D01*
X374802Y4880610D01*
X356717Y4887061D01*
X338124Y4891735D01*
X319125Y4894529D01*
X299974Y4895494D01*
X280822Y4894529D01*
X261823Y4891735D01*
X243230Y4887061D01*
X225145Y4880610D01*
X207822Y4872380D01*
X191363Y4862525D01*
X175971Y4851095D01*
X161747Y4838242D01*
X148844Y4824018D01*
X137414Y4808626D01*
X127558Y4792167D01*
X119380Y4774793D01*
X112928Y4756759D01*
X108254Y4738116D01*
X105410Y4719167D01*
X104495Y4700016D01*
X105410Y4680864D01*
X108254Y4661865D01*
X112928Y4643272D01*
X119380Y4625187D01*
X127558Y4607864D01*
X137414Y4591405D01*
X148844Y4576013D01*
X161747Y4561789D01*
X175971Y4548886D01*
X191363Y4537456D01*
X207822Y4527600D01*
X225145Y4519422D01*
X243230Y4512919D01*
X261823Y4508296D01*
X280822Y4505452D01*
G37*
G36*
X3430524Y4586579D02*
G01*
X3444595Y4587951D01*
X3458413Y4591100D01*
X3471722Y4595977D01*
X3484270Y4602530D01*
X3495852Y4610608D01*
X3506368Y4620158D01*
X3515512Y4630928D01*
X3523234Y4642764D01*
X3529380Y4655566D01*
X3533851Y4668977D01*
X3536543Y4682896D01*
X3537458Y4697018D01*
X3536543Y4711141D01*
X3533851Y4725009D01*
X3529380Y4738471D01*
X3523234Y4751222D01*
X3515512Y4763058D01*
X3506368Y4773879D01*
X3495852Y4783378D01*
X3484270Y4791456D01*
X3471722Y4798009D01*
X3458413Y4802886D01*
X3444595Y4806086D01*
X3430524Y4807407D01*
X3416401Y4806950D01*
X3402380Y4804714D01*
X3388817Y4800701D01*
X3375863Y4794961D01*
X3363772Y4787595D01*
X3352698Y4778806D01*
X3342843Y4768596D01*
X3334410Y4757267D01*
X3327450Y4744923D01*
X3322116Y4731816D01*
X3318560Y4718100D01*
X3316732Y4704080D01*
X3316732Y4689906D01*
X3318560Y4675886D01*
X3322116Y4662170D01*
X3327450Y4649063D01*
X3334410Y4636719D01*
X3342843Y4625390D01*
X3352698Y4615230D01*
X3363772Y4606391D01*
X3375863Y4599076D01*
X3388817Y4593336D01*
X3402380Y4589272D01*
X3416401Y4587036D01*
G37*
G36*
X3176524Y4586579D02*
G01*
X3190595Y4587951D01*
X3204413Y4591100D01*
X3217722Y4595977D01*
X3230270Y4602530D01*
X3241852Y4610608D01*
X3252368Y4620158D01*
X3261512Y4630928D01*
X3269234Y4642764D01*
X3275380Y4655566D01*
X3279851Y4668977D01*
X3282543Y4682896D01*
X3283458Y4697018D01*
X3282543Y4711141D01*
X3279851Y4725009D01*
X3275380Y4738471D01*
X3269234Y4751222D01*
X3261512Y4763058D01*
X3252368Y4773879D01*
X3241852Y4783378D01*
X3230270Y4791456D01*
X3217722Y4798009D01*
X3204413Y4802886D01*
X3190595Y4806086D01*
X3176524Y4807407D01*
X3162401Y4806950D01*
X3148380Y4804714D01*
X3134817Y4800701D01*
X3121863Y4794961D01*
X3109772Y4787595D01*
X3098698Y4778806D01*
X3088843Y4768596D01*
X3080410Y4757267D01*
X3073450Y4744923D01*
X3068116Y4731816D01*
X3064560Y4718100D01*
X3062732Y4704080D01*
X3062732Y4689906D01*
X3064560Y4675886D01*
X3068116Y4662170D01*
X3073450Y4649063D01*
X3080410Y4636719D01*
X3088843Y4625390D01*
X3098698Y4615230D01*
X3109772Y4606391D01*
X3121863Y4599076D01*
X3134817Y4593336D01*
X3148380Y4589272D01*
X3162401Y4587036D01*
G37*

%LPD*%
G36*
X1281379Y1722983D02*
G01*
X1277518Y1723745D01*
X1274216Y1725930D01*
X1203401Y1796745D01*
X1201216Y1800047D01*
X1200454Y1803907D01*
X1200454Y1824989D01*
X1201115Y1828596D01*
X1203045Y1831746D01*
X1205941Y1833981D01*
X1213866Y1836572D01*
X1217726Y1839010D01*
X1220978Y1842262D01*
X1223416Y1846122D01*
X1224940Y1850440D01*
X1225499Y1855571D01*
X1225499Y1944420D01*
X1224940Y1949551D01*
X1223416Y1953869D01*
X1220978Y1957730D01*
X1217726Y1960981D01*
X1213866Y1963420D01*
X1205992Y1966010D01*
X1203045Y1968246D01*
X1201166Y1971395D01*
X1200454Y1975002D01*
X1200454Y2044446D01*
X1199642Y2052370D01*
X1197305Y2059533D01*
X1194765Y2064257D01*
X1192631Y2067001D01*
X1191056Y2069947D01*
X1190498Y2073249D01*
X1190498Y2119426D01*
X1189888Y2124557D01*
X1188415Y2128875D01*
X1185976Y2132685D01*
X1181608Y2136952D01*
X1179372Y2140204D01*
X1178560Y2144115D01*
X1179271Y2148027D01*
X1181455Y2151380D01*
X1184808Y2153615D01*
X1188720Y2154377D01*
X1271270Y2154377D01*
X1275130Y2153615D01*
X1278432Y2151430D01*
X1283360Y2146452D01*
X1285341Y2143658D01*
X1286306Y2140407D01*
X1286103Y2136952D01*
X1284732Y2133803D01*
X1281531Y2128824D01*
X1280058Y2124557D01*
X1279499Y2119426D01*
X1279499Y2020570D01*
X1280058Y2015439D01*
X1281582Y2011121D01*
X1284020Y2007260D01*
X1287221Y2004009D01*
X1291132Y2001570D01*
X1295450Y2000097D01*
X1300530Y1999488D01*
X1359408Y1999488D01*
X1364538Y2000097D01*
X1368856Y2001570D01*
X1372717Y2004009D01*
X1375968Y2007260D01*
X1378407Y2011121D01*
X1379880Y2015439D01*
X1380490Y2020570D01*
X1380490Y2066086D01*
X1381252Y2069947D01*
X1383436Y2073249D01*
X1574038Y2263800D01*
X1577441Y2266086D01*
X1581556Y2266797D01*
X1585569Y2265832D01*
X1588820Y2263343D01*
X1598422Y2252421D01*
X1608785Y2243328D01*
X1620266Y2235657D01*
X1632610Y2229561D01*
X1645666Y2225090D01*
X1659229Y2222449D01*
X1672996Y2221534D01*
X1686763Y2222449D01*
X1700275Y2225090D01*
X1713331Y2229561D01*
X1725726Y2235657D01*
X1737614Y2243683D01*
X1740966Y2245664D01*
X1744776Y2246223D01*
X1748536Y2245309D01*
X1751685Y2243074D01*
X1753768Y2239822D01*
X1754479Y2236063D01*
X1754530Y2198268D01*
X1755749Y2189581D01*
X1758391Y2181656D01*
X1762506Y2174290D01*
X1768144Y2167483D01*
X1823212Y2112416D01*
X1825345Y2109317D01*
X1826209Y2105660D01*
X1822399Y2086762D01*
X1821484Y2072995D01*
X1822399Y2059228D01*
X1825091Y2045716D01*
X1829562Y2032609D01*
X1835657Y2020265D01*
X1843328Y2008784D01*
X1852422Y1998421D01*
X1862785Y1989328D01*
X1874266Y1981657D01*
X1880870Y1978406D01*
X1883867Y1976120D01*
X1885848Y1972970D01*
X1886559Y1969262D01*
X1886559Y1922729D01*
X1885848Y1919020D01*
X1883867Y1915871D01*
X1880870Y1913585D01*
X1874266Y1910334D01*
X1862785Y1902663D01*
X1852422Y1893570D01*
X1843328Y1883206D01*
X1835657Y1871725D01*
X1829562Y1859381D01*
X1825091Y1846275D01*
X1822399Y1832762D01*
X1821484Y1818995D01*
X1822399Y1805228D01*
X1825091Y1791716D01*
X1829562Y1778609D01*
X1835657Y1766265D01*
X1843328Y1754784D01*
X1852422Y1744421D01*
X1856536Y1740763D01*
X1859025Y1737512D01*
X1859991Y1733550D01*
X1859381Y1729536D01*
X1857197Y1726082D01*
X1853844Y1723796D01*
X1849882Y1722983D01*
X1750110Y1722983D01*
X1746097Y1723796D01*
X1742795Y1726082D01*
X1740611Y1729536D01*
X1739950Y1733550D01*
X1740966Y1737512D01*
X1743405Y1740763D01*
X1747570Y1744421D01*
X1756664Y1754784D01*
X1764334Y1766265D01*
X1770430Y1778609D01*
X1774850Y1791716D01*
X1777542Y1805228D01*
X1778457Y1818995D01*
X1777542Y1832762D01*
X1774850Y1846275D01*
X1770430Y1859381D01*
X1764334Y1871725D01*
X1756664Y1883206D01*
X1747570Y1893570D01*
X1737207Y1902663D01*
X1725726Y1910334D01*
X1713331Y1916430D01*
X1700275Y1920900D01*
X1686763Y1923592D01*
X1672996Y1924456D01*
X1659229Y1923592D01*
X1645666Y1920900D01*
X1632610Y1916430D01*
X1620266Y1910334D01*
X1608785Y1902663D01*
X1598422Y1893570D01*
X1589328Y1883206D01*
X1581658Y1871725D01*
X1575562Y1859381D01*
X1571091Y1846275D01*
X1568399Y1832762D01*
X1567484Y1818995D01*
X1568399Y1805228D01*
X1571091Y1791716D01*
X1575562Y1778609D01*
X1581658Y1766265D01*
X1589328Y1754784D01*
X1598422Y1744421D01*
X1602536Y1740763D01*
X1605026Y1737512D01*
X1605991Y1733550D01*
X1605381Y1729536D01*
X1603197Y1726082D01*
X1599844Y1723796D01*
X1595882Y1722983D01*
G37*

%LPD*%
D10*
X1164960Y1900074D02*
G01*
X1164960Y1785012D01*
X1262496Y1687476D01*
X1926960Y1687476D01*
X909944Y2124610D02*
G01*
X975222Y2189888D01*
X1290182Y2189888D01*
X1330060Y2150010D01*
X1330060Y2070000D01*
D11*
X1164960Y2500022D02*
G01*
X1164960Y2669948D01*
X1309994Y2814982D01*
X1309994Y3855112D01*
D12*
X4448007Y3926994D02*
G01*
X4448007Y4726975D01*
X4279991Y4894991D01*
X790000Y4894991D01*
X639998Y4744989D01*
X639998Y4049994D01*
X739975Y3950017D01*
X1135509Y3950017D01*
D13*
X1175374Y4500018D02*
G01*
X1384924Y4290214D01*
X1384924Y3384958D01*
X1551040Y3219096D01*
X1672960Y3219096D01*
X2068184Y1190398D02*
G01*
X2134478Y1190398D01*
X2330058Y995072D01*
X3194928Y995072D01*
X3889872Y299874D01*
X3926956Y299874D01*
X3672956Y299874D02*
G01*
X3672956Y437034D01*
X3173592Y936398D01*
X2068184Y936398D01*
X2075296Y4500018D02*
G01*
X1805040Y4229762D01*
X1805040Y3604922D01*
X1672960Y3473096D01*
X1889998Y4699990D02*
G01*
X1924664Y4665324D01*
X1924664Y4500001D01*
X989998Y4699990D02*
G01*
X1024663Y4665324D01*
X1024663Y4500001D01*
X2300086Y3500020D02*
G01*
X2354950Y3500020D01*
X2354950Y4099968D01*
X2229982Y4224936D01*
X2229982Y4729888D01*
X2324978Y4824884D01*
X2537068Y4824884D01*
X2665084Y4697122D01*
X2300086Y3399944D02*
G01*
X2380096Y3399944D01*
X2399908Y3420010D01*
X2399908Y4120034D01*
X2274940Y4245002D01*
X2274940Y4560978D01*
X2411084Y4697122D01*
X3899994Y3200001D02*
G01*
X4110001Y3200001D01*
X4448007Y3538006D01*
X4448007Y3672994D01*
X2345044Y500026D02*
G01*
X2718462Y500026D01*
X2918490Y299999D01*
X2118476Y299874D02*
G01*
X2220076Y299874D01*
X1318491Y299999D02*
G01*
X1444998Y299999D01*
X2299992Y2799999D02*
G01*
X2374988Y2799999D01*
X2549999Y2624990D01*
X2909991Y2624990D01*
X2299992Y2599999D02*
G01*
X2305004Y2594996D01*
X2375001Y2594996D01*
X2590015Y2379982D01*
X2909991Y2379982D01*
X2299992Y2699999D02*
G01*
X2374988Y2699999D01*
X2574993Y2499997D01*
X3025002Y2499997D01*
X3000110Y3289962D02*
G01*
X3000110Y3699918D01*
X2899984Y3489987D02*
G01*
X2899994Y3489998D01*
X2899994Y3700000D01*
D11*
X3935001Y4697003D02*
G01*
X4189001Y4697003D01*
X3399906Y2099972D02*
G01*
X3399906Y2880006D01*
X3624950Y3105050D01*
X3624950Y3410104D01*
X4060052Y3844952D01*
X4060052Y4695090D01*
D13*
X2699994Y3700000D02*
G01*
X2699994Y2885000D01*
X2795005Y2789989D01*
D11*
X3429878Y1820064D02*
G01*
X3429878Y1340004D01*
X3763634Y1006502D01*
X4701910Y1006502D01*
D13*
X2899994Y2100005D02*
G01*
X2899984Y2099995D01*
X2899984Y1984987D01*
X3000110Y2099972D02*
G01*
X3000110Y1984910D01*
X648416Y2124997D02*
G01*
X648411Y2124991D01*
X404992Y2124991D01*
X1135496Y3500020D02*
G01*
X1065646Y3569870D01*
X844920Y3569870D01*
X354954Y3079904D01*
X354954Y2340002D01*
X470016Y2224940D01*
X648324Y2224940D01*
X648413Y2275006D02*
G01*
X739985Y2275006D01*
X759998Y2254994D01*
X759998Y2194996D01*
X740008Y2175007D01*
X648413Y2175007D01*
X648413Y1024994D02*
G01*
X559996Y1024994D01*
X535000Y999997D01*
X535000Y949998D01*
X560003Y924994D01*
X648413Y924994D01*
X648324Y1075082D02*
G01*
X734938Y1075082D01*
X769990Y1109880D01*
X829934Y1109880D01*
X859906Y1079908D01*
X859906Y1010058D01*
X799962Y950114D01*
X909944Y1254660D02*
G01*
X849746Y1254660D01*
X719952Y1125120D01*
X648324Y1125120D01*
X2799994Y2100005D02*
G01*
X2799984Y2100016D01*
X2799984Y2214984D01*
X2699882Y2099972D02*
G01*
X2699882Y2215034D01*
D14*
X4180956Y299874D02*
G01*
X4180956Y326036D01*
X4701910Y846990D01*
X4701910Y878994D01*
X4701999Y1133000D02*
G01*
X4701999Y879000D01*
X1724665Y2980001D02*
G01*
X1724665Y2820001D01*
X1799998Y2200000D02*
G01*
X1926998Y2073000D01*
X1724665Y2820001D02*
G01*
X1799998Y2744668D01*
X1799998Y2200000D01*
X1672998Y3219000D02*
G01*
X1724665Y3167334D01*
X1724665Y2980001D01*
D13*
X2300086Y3200046D02*
G01*
X2209916Y3200046D01*
X2110094Y3300122D01*
X2110094Y3543962D01*
X1926960Y3727096D01*
D14*
X690018Y1959983D02*
G01*
X750018Y1959983D01*
X690011Y2439974D02*
G01*
X750011Y2439974D01*
X694999Y759995D02*
G01*
X754999Y759995D01*
X694997Y1240000D02*
G01*
X754997Y1240000D01*
D13*
X648413Y975006D02*
G01*
X774989Y975006D01*
X799998Y949998D01*
X648416Y1024994D02*
G01*
X769990Y1024994D01*
X799988Y1054991D01*
X1399910Y1062890D02*
G01*
X1531736Y1063398D01*
X1399910Y1189890D02*
G01*
X1531736Y1190398D01*
X910000Y875337D02*
G01*
X859657Y824994D01*
X648413Y824994D01*
X1135496Y3699918D02*
G01*
X1060566Y3624988D01*
X825108Y3624988D01*
X304916Y3105050D01*
X304916Y2315110D01*
X444870Y2174902D01*
X648324Y2174902D01*
X2200000Y2400002D02*
G01*
X2299997Y2400002D01*
X2200000Y2500002D02*
G01*
X2299997Y2500002D01*
X1875337Y2980001D02*
G01*
X2155337Y2700002D01*
X2299997Y2700002D01*
D15*
X3900032Y3399944D02*
G01*
X4060052Y3399944D01*
X4209912Y3550058D01*
X4209912Y3850032D01*
X4286874Y3926994D01*
X4447910Y3926994D01*
X4702007Y3926994D02*
G01*
X4448007Y3926994D01*
X1870001Y1399999D02*
G01*
X1926998Y1456997D01*
X1926998Y1819000D01*
X1926960Y1819048D02*
G01*
X3429878Y1820064D01*
X1926998Y2073000D02*
G01*
X1926998Y1819000D01*
X3430000Y1820001D02*
G01*
X3399995Y1850006D01*
X3399995Y2100003D01*
D13*
X1926998Y2581000D02*
G01*
X2110000Y2397998D01*
X2110000Y2160000D01*
X2169998Y2100003D01*
X2499997Y2100003D01*
X2599992Y3700000D02*
G01*
X2599992Y2789996D01*
X2599984Y2789989D01*
X3500003Y2200000D02*
G01*
X3499995Y2100003D01*
X3600002Y2200000D02*
G01*
X3599995Y2100003D01*
X3700002Y2200000D02*
G01*
X3699995Y2100003D01*
X3800002Y2300000D02*
G01*
X3899994Y2300003D01*
X4447910Y2656994D02*
G01*
X4319894Y2785010D01*
X4319894Y2859940D01*
X4179940Y2999894D01*
X3900032Y2999894D01*
X4447910Y2148994D02*
G01*
X4220072Y2377086D01*
X4220072Y2649882D01*
X4069958Y2799996D01*
X3900032Y2799996D01*
X4447910Y1640994D02*
G01*
X4119996Y1968908D01*
X4119996Y2500022D01*
X4019920Y2600098D01*
X3900032Y2600098D01*
X3900032Y2500022D02*
G01*
X4010014Y2500022D01*
X4069958Y2440078D01*
X4069958Y1764946D01*
X4447910Y1386994D01*
X3900032Y2399946D02*
G01*
X3980042Y2399946D01*
X4019920Y2360068D01*
X4019920Y1560984D01*
X4447910Y1132994D01*
X4447910Y1894994D02*
G01*
X4170034Y2173124D01*
X4170034Y2550060D01*
X4019920Y2699920D01*
X3900032Y2699920D01*
X4447910Y2402994D02*
G01*
X4270110Y2581048D01*
X4270110Y2749958D01*
X4119996Y2900072D01*
X3900032Y2900072D01*
X4447999Y2911000D02*
G01*
X4258998Y3100001D01*
X3899994Y3100001D01*
D10*
X1870001Y1399999D02*
G01*
X1870001Y1150000D01*
X1956501Y1063500D01*
X2068248Y1063500D01*
X1300002Y740001D02*
G01*
X1369501Y809500D01*
X1531749Y809500D01*
X1531749Y936500D02*
G01*
X1293502Y936500D01*
X1160000Y1070002D01*
X1160000Y1259997D02*
G01*
X1160000Y1204272D01*
X1160000Y1204272D02*
G01*
X1160000Y1070002D01*
X1329984Y2069975D02*
G01*
X1587009Y2327000D01*
X1673004Y2327000D01*
X1140002Y2069985D02*
G01*
X1164996Y2044992D01*
X1164996Y1899996D01*
X1140002Y2330005D02*
G01*
X1164996Y2354999D01*
X1164996Y2499995D01*
D13*
X3200019Y2100005D02*
G01*
X3200019Y2989999D01*
X3400008Y3189988D01*
X3099996Y2100003D02*
G01*
X3099996Y3039996D01*
X3250001Y3190001D01*
X2800002Y3934665D02*
G01*
X2799999Y3852611D01*
X2799999Y3852611D02*
G01*
X2799996Y3700000D01*
X1875337Y2820001D02*
G01*
X2095337Y2600002D01*
X2299997Y2600002D01*
X910000Y1925337D02*
G01*
X810343Y2024994D01*
X648413Y2024994D01*
X648413Y2324994D02*
G01*
X760328Y2324994D01*
X910000Y2474666D01*
X3900007Y2780007D02*
G01*
X3900007Y2799994D01*
X1926960Y3981096D02*
G01*
X2170038Y3738018D01*
X2170038Y3349906D01*
X2220076Y3300122D01*
X2300086Y3300122D01*
X2300086Y3099970D02*
G01*
X2170038Y3099970D01*
X2049896Y3220112D01*
X2049896Y3349906D01*
X1926960Y3473096D01*
X2665006Y4443001D02*
G01*
X3200008Y3907998D01*
X3200008Y3699995D01*
X2919006Y4443001D02*
G01*
X3300008Y4061998D01*
X3300008Y3699995D01*
X3173006Y4443001D02*
G01*
X3400008Y4215998D01*
X3400008Y3699995D01*
X3427006Y4443001D02*
G01*
X3500033Y4369973D01*
X3500033Y3699995D01*
X3681006Y4443001D02*
G01*
X3600033Y4362028D01*
X3600033Y3699995D01*
X3935006Y4443001D02*
G01*
X3700033Y4208028D01*
X3700033Y3699995D01*
X1926998Y3219000D02*
G01*
X2145997Y3000001D01*
X2299997Y3000001D01*
D16*
X2006485Y809500D02*
G01*
X2129985Y809500D01*
X2006485Y936500D02*
G01*
X2129985Y936500D01*
X2006485Y1063500D02*
G01*
X2129985Y1063500D01*
X2006485Y1190500D02*
G01*
X2129985Y1190500D01*
X1470012Y809500D02*
G01*
X1593512Y809500D01*
X1470012Y936500D02*
G01*
X1593512Y936500D01*
X1470012Y1063500D02*
G01*
X1593512Y1063500D01*
X1470012Y1190500D02*
G01*
X1593512Y1190500D01*
D17*
G01*
X4504984Y4339998D03*
G01*
X4644989Y4339998D03*
G36*
X939998Y4762489D02*
G01*
X1039997Y4762489D01*
X1039997Y4637491D01*
X939998Y4637491D01*
G37*
G36*
X1160012Y4762489D02*
G01*
X1260012Y4762489D01*
X1260012Y4637491D01*
X1160012Y4637491D01*
G37*
G36*
X1839998Y4762489D02*
G01*
X1939998Y4762489D01*
X1939998Y4637491D01*
X1839998Y4637491D01*
G37*
G36*
X2060013Y4762489D02*
G01*
X2160013Y4762489D01*
X2160013Y4637491D01*
X2060013Y4637491D01*
G37*
G36*
X1064999Y4543201D02*
G01*
X1064999Y4456800D01*
X984351Y4456800D01*
X984351Y4543201D01*
G37*
G36*
X1135001Y4543201D02*
G01*
X1135001Y4456800D01*
X1215649Y4456800D01*
X1215649Y4543201D01*
G37*
G36*
X1964999Y4543201D02*
G01*
X1964999Y4456800D01*
X1884352Y4456800D01*
X1884352Y4543201D01*
G37*
G36*
X2035002Y4543201D02*
G01*
X2035002Y4456800D01*
X2115649Y4456800D01*
X2115649Y4543201D01*
G37*
G36*
X1256992Y375000D02*
G01*
X1379992Y375000D01*
X1379992Y224998D01*
X1256992Y224998D01*
G37*
G36*
X820011Y375000D02*
G01*
X943010Y375000D01*
X943010Y224998D01*
X820011Y224998D01*
G37*
G36*
X2056993Y375000D02*
G01*
X2179993Y375000D01*
X2179993Y224998D01*
X2056993Y224998D01*
G37*
G36*
X1620011Y375000D02*
G01*
X1743011Y375000D01*
X1743011Y224998D01*
X1620011Y224998D01*
G37*
G36*
X2856992Y375000D02*
G01*
X2979991Y375000D01*
X2979991Y224998D01*
X2856992Y224998D01*
G37*
G36*
X2420010Y375000D02*
G01*
X2543009Y375000D01*
X2543009Y224998D01*
X2420010Y224998D01*
G37*
D18*
G01*
X2500010Y3699995D03*
G01*
X2600010Y3699995D03*
G01*
X2700009Y3699995D03*
G01*
X2800009Y3699995D03*
G01*
X2900009Y3699995D03*
G01*
X3000034Y3699995D03*
G01*
X3100034Y3699995D03*
G01*
X3200034Y3699995D03*
G01*
X3300034Y3699995D03*
G01*
X3400033Y3699995D03*
G01*
X3500033Y3699995D03*
G01*
X3600033Y3699995D03*
G36*
X3670025Y3762504D02*
G01*
X3730025Y3762504D01*
X3730025Y3637506D01*
X3670025Y3637506D01*
G37*
D19*
G01*
X2300010Y3500020D03*
G01*
X2300010Y3400021D03*
G01*
X2300010Y3300021D03*
G01*
X2300010Y3200021D03*
G01*
X2300010Y3100021D03*
G01*
X2300010Y2999996D03*
G01*
X2300010Y2899996D03*
G01*
X2300010Y2799996D03*
G01*
X2300010Y2699997D03*
G01*
X2300010Y2599997D03*
G01*
X2300010Y2499997D03*
G01*
X2300010Y2399997D03*
G01*
X2300010Y2299997D03*
G36*
X2470002Y2162507D02*
G01*
X2530002Y2162507D01*
X2530002Y2037509D01*
X2470002Y2037509D01*
G37*
G36*
X2570002Y2162507D02*
G01*
X2630002Y2162507D01*
X2630002Y2037509D01*
X2570002Y2037509D01*
G37*
G36*
X2670002Y2162507D02*
G01*
X2730002Y2162507D01*
X2730002Y2037509D01*
X2670002Y2037509D01*
G37*
G36*
X2770002Y2162507D02*
G01*
X2830001Y2162507D01*
X2830001Y2037509D01*
X2770002Y2037509D01*
G37*
G36*
X2870001Y2162507D02*
G01*
X2930001Y2162507D01*
X2930001Y2037509D01*
X2870001Y2037509D01*
G37*
G36*
X2970001Y2162507D02*
G01*
X3030001Y2162507D01*
X3030001Y2037509D01*
X2970001Y2037509D01*
G37*
G36*
X3070001Y2162507D02*
G01*
X3130001Y2162507D01*
X3130001Y2037509D01*
X3070001Y2037509D01*
G37*
G36*
X3170026Y2162507D02*
G01*
X3230026Y2162507D01*
X3230026Y2037509D01*
X3170026Y2037509D01*
G37*
G36*
X3270026Y2162507D02*
G01*
X3330026Y2162507D01*
X3330026Y2037509D01*
X3270026Y2037509D01*
G37*
G01*
X3900007Y3099996D03*
G36*
X3369998Y2162497D02*
G01*
X3429998Y2162497D01*
X3429998Y2037499D01*
X3369998Y2037499D01*
G37*
G36*
X3469998Y2162497D02*
G01*
X3529998Y2162497D01*
X3529998Y2037499D01*
X3469998Y2037499D01*
G37*
G36*
X3569997Y2162497D02*
G01*
X3629997Y2162497D01*
X3629997Y2037499D01*
X3569997Y2037499D01*
G37*
D18*
G01*
X3700007Y2099998D03*
D19*
G01*
X3900007Y2299997D03*
G01*
X3900007Y2399997D03*
G01*
X3900007Y2499997D03*
G01*
X3900007Y2599997D03*
G01*
X3900007Y2699997D03*
G01*
X3900007Y2799996D03*
G01*
X3900007Y2899996D03*
G01*
X3900007Y2999996D03*
G01*
X3900007Y3199996D03*
G01*
X3900007Y3299995D03*
G01*
X3900007Y3400021D03*
G01*
X3900007Y3500020D03*
D20*
G01*
X648426Y2375004D03*
G01*
X648426Y2324991D03*
G01*
X648426Y2275004D03*
G01*
X648426Y2224991D03*
G01*
X648426Y2175004D03*
G01*
X648426Y2124991D03*
G01*
X648426Y2075030D03*
G01*
X648426Y2024992D03*
G01*
X648401Y2534998D03*
G01*
X648426Y2505001D03*
G01*
X648401Y2454988D03*
G01*
X648401Y2424991D03*
G01*
X648401Y1975004D03*
G01*
X648401Y1944982D03*
G01*
X648426Y1894994D03*
G01*
X648426Y1864997D03*
D21*
G01*
X1160007Y1070002D03*
G01*
X1160007Y929998D03*
D17*
G01*
X1160007Y740006D03*
G01*
X1299987Y740006D03*
D21*
G01*
X1160007Y1259994D03*
G01*
X1160007Y1399999D03*
G36*
X1829998Y1445000D02*
G01*
X1909998Y1445000D01*
X1909998Y1354998D01*
X1829998Y1354998D01*
G37*
G36*
X1689999Y1445000D02*
G01*
X1769999Y1445000D01*
X1769999Y1354998D01*
X1689999Y1354998D01*
G37*
D17*
G01*
X3430005Y1819988D03*
G01*
X3570010Y1819988D03*
D20*
G01*
X648426Y1175006D03*
G01*
X648426Y1124993D03*
G01*
X648426Y1075006D03*
G01*
X648426Y1024994D03*
G01*
X648426Y975006D03*
G01*
X648426Y924994D03*
G01*
X648426Y875032D03*
G01*
X648426Y824994D03*
G01*
X648401Y1335001D03*
G01*
X648426Y1305003D03*
G01*
X648401Y1254991D03*
G01*
X648401Y1224993D03*
G01*
X648401Y775007D03*
G01*
X648401Y744984D03*
G01*
X648426Y694997D03*
G01*
X648426Y664999D03*
G36*
X1835002Y2936801D02*
G01*
X1835002Y3023201D01*
X1915650Y3023201D01*
X1915650Y2936801D01*
G37*
G36*
X1765000Y2936801D02*
G01*
X1765000Y3023201D01*
X1684352Y3023201D01*
X1684352Y2936801D01*
G37*
G36*
X2756801Y3975000D02*
G01*
X2843202Y3975000D01*
X2843202Y3894353D01*
X2756801Y3894353D01*
G37*
D22*
G01*
X2800009Y4085338D03*
G36*
X953201Y1365001D02*
G01*
X866800Y1365001D01*
X866800Y1445648D01*
X953201Y1445648D01*
G37*
G01*
X909995Y1254686D03*
G36*
X866800Y764999D02*
G01*
X953201Y764999D01*
X953201Y684352D01*
X866800Y684352D01*
G37*
G01*
X909995Y875337D03*
G36*
X953201Y2585003D02*
G01*
X866800Y2585003D01*
X866800Y2665651D01*
X953201Y2665651D01*
G37*
G01*
X909995Y2474673D03*
G36*
X866800Y1815000D02*
G01*
X953201Y1815000D01*
X953201Y1734352D01*
X866800Y1734352D01*
G37*
G01*
X909995Y1925322D03*
G36*
X1835002Y2776801D02*
G01*
X1835002Y2863202D01*
X1915650Y2863202D01*
X1915650Y2776801D01*
G37*
G36*
X1765000Y2776801D02*
G01*
X1765000Y2863202D01*
X1684352Y2863202D01*
X1684352Y2776801D01*
G37*
G36*
X866800Y2164999D02*
G01*
X953201Y2164999D01*
X953201Y2084351D01*
X866800Y2084351D01*
G37*
G01*
X909995Y2275334D03*
D23*
G01*
X1139992Y2329995D03*
G01*
X1329984Y2329995D03*
G01*
X1329984Y2069975D03*
G01*
X1234988Y2069975D03*
G01*
X1139992Y2069975D03*
D17*
G01*
X1165011Y1899998D03*
G01*
X1304991Y1899998D03*
G01*
X1165011Y2499997D03*
G01*
X1304991Y2499997D03*
D24*
G01*
X864504Y2899996D03*
G01*
X864504Y4299993D03*
D25*
G01*
X1135522Y3950007D03*
G01*
X1135522Y3699995D03*
G01*
X1135522Y3499995D03*
G01*
X1135522Y3250008D03*
G36*
X3333998Y385000D02*
G01*
X3504001Y385000D01*
X3504001Y214998D01*
X3333998Y214998D01*
G37*
G01*
X3673007Y300001D03*
G01*
X3927007Y300001D03*
G01*
X4181007Y300001D03*
D26*
G01*
X4189008Y4696995D03*
G01*
X4189008Y4442995D03*
G01*
X3935008Y4696995D03*
G01*
X3935008Y4442995D03*
G01*
X3681008Y4696995D03*
G01*
X3681008Y4442995D03*
G01*
X3427008Y4696995D03*
G01*
X3427008Y4442995D03*
G01*
X3173008Y4696995D03*
G01*
X3173008Y4442995D03*
G01*
X2919008Y4696995D03*
G01*
X2919008Y4442995D03*
G01*
X2665008Y4696995D03*
G01*
X2665008Y4442995D03*
G01*
X2411008Y4696995D03*
G36*
X2321001Y4533003D02*
G01*
X2501000Y4533003D01*
X2501000Y4353003D01*
X2321001Y4353003D01*
G37*
D25*
G01*
X4702012Y878994D03*
G01*
X4448012Y878994D03*
G01*
X4702012Y1132994D03*
G01*
X4448012Y1132994D03*
G01*
X4702012Y1386994D03*
G01*
X4448012Y1386994D03*
G01*
X4702012Y1640994D03*
G01*
X4448012Y1640994D03*
G01*
X4702012Y1894994D03*
G01*
X4448012Y1894994D03*
G01*
X4702012Y2148994D03*
G01*
X4448012Y2148994D03*
G01*
X4702012Y2402994D03*
G01*
X4448012Y2402994D03*
G01*
X4702012Y2656994D03*
G01*
X4448012Y2656994D03*
G01*
X4702012Y2910994D03*
G01*
X4448012Y2910994D03*
G01*
X4702012Y3164994D03*
D27*
G01*
X4448012Y3164994D03*
G01*
X1672986Y3980995D03*
D25*
G01*
X1927011Y3980995D03*
G01*
X1673011Y3726995D03*
G01*
X1927011Y3726995D03*
G01*
X1673011Y3472995D03*
G01*
X1927011Y3472995D03*
G01*
X1673011Y3218995D03*
G01*
X1927011Y3218995D03*
D27*
G01*
X1672986Y2580998D03*
D25*
G01*
X1927011Y2580998D03*
G01*
X1673011Y2326998D03*
G01*
X1927011Y2326998D03*
G01*
X1673011Y2072998D03*
G01*
X1927011Y2072998D03*
G01*
X1673011Y1818998D03*
G01*
X1927011Y1818998D03*
D28*
G01*
X4448012Y3926994D03*
D29*
G01*
X4702012Y3926994D03*
G01*
X4448012Y3672994D03*
G01*
X4702012Y3672994D03*
D30*
G01*
X299989Y300001D03*
G01*
X4700005Y300001D03*
G01*
X4700005Y4699993D03*
G01*
X299989Y4699993D03*
D31*
G01*
X3249996Y3189988D03*
G01*
X3400008Y3189988D03*
G01*
X3800007Y2299997D03*
G01*
X3700007Y2199998D03*
G01*
X3600008Y2199998D03*
G01*
X3500008Y2199998D03*
G01*
X2599984Y2789989D03*
G01*
X2795005Y2789989D03*
G01*
X2200010Y2499997D03*
G01*
X2200010Y2399997D03*
G01*
X1399987Y1189992D03*
G01*
X1399987Y1062992D03*
G01*
X799988Y1054991D03*
G01*
X799988Y949987D03*
G01*
X755004Y1240005D03*
G01*
X755004Y759995D03*
G01*
X750001Y2440002D03*
G01*
X750001Y1959993D03*
G01*
X2799984Y2214984D03*
G01*
X2699882Y2215034D03*
G01*
X1160007Y1204267D03*
G01*
X474995Y2240003D03*
G01*
X404992Y2124991D03*
G01*
X3000110Y1984910D03*
G01*
X2899984Y1984987D03*
G01*
X1309994Y3854985D03*
G01*
X2800009Y3852598D03*
G01*
X2899984Y3489987D03*
G01*
X2999983Y3289988D03*
G01*
X2909991Y2624990D03*
G01*
X2909991Y2379982D03*
G01*
X3025002Y2499997D03*
G01*
X2345044Y500026D03*
G01*
X2220076Y299874D03*
G01*
X1444995Y300001D03*
G01*
X1464985Y1899998D03*
G01*
X1025006Y1405003D03*
G01*
X969990Y1105004D03*
G01*
X1034989Y719990D03*
G01*
X1025006Y829998D03*
G01*
X1099987Y300001D03*
G01*
X1899986Y300001D03*
G01*
X2700009Y300001D03*
G01*
X4574987Y1254991D03*
G01*
X3760002Y3294992D03*
G01*
X3760002Y3394991D03*
G01*
X4009989Y3499995D03*
G01*
X4009989Y3599995D03*
G01*
X4019997Y3299995D03*
G01*
X4099981Y3299995D03*
G01*
X3825001Y2124991D03*
G01*
X3939987Y2124991D03*
G01*
X3299983Y2270000D03*
G01*
X3299983Y2375004D03*
G01*
X3299983Y2475003D03*
G01*
X3299983Y2579982D03*
G01*
X3030006Y2284986D03*
G01*
X3030006Y2634998D03*
G01*
X2439990Y2899996D03*
G01*
X2534986Y2899996D03*
G01*
X2174991Y2899996D03*
G01*
X2095007Y2899996D03*
G01*
X2014997Y2994992D03*
G01*
X2534986Y2984985D03*
G01*
X2514996Y3519985D03*
G01*
X2514996Y3424989D03*
G01*
X2790002Y3389988D03*
G01*
X2874990Y3389988D03*
G01*
X2495006Y3229993D03*
G01*
X2495006Y3129993D03*
G01*
X2260005Y3740000D03*
G01*
X2499984Y3949981D03*
G01*
X2499984Y4039999D03*
G01*
X2499984Y3784983D03*
G01*
X3099983Y3824988D03*
G01*
X2999983Y3824988D03*
G01*
X3099983Y3904998D03*
G01*
X3099983Y3589987D03*
G01*
X3099983Y3510003D03*
G01*
X2599984Y2000023D03*
G01*
X2599984Y1899998D03*
G01*
X2599984Y1700024D03*
G01*
X2799984Y1700024D03*
G01*
X2999983Y1700024D03*
G01*
X2499984Y1100025D03*
G01*
X2699984Y1100025D03*
G01*
X3099983Y1200025D03*
G01*
X2499984Y700026D03*
G01*
X2904987Y695022D03*
G01*
X2699984Y700026D03*
G01*
X3099983Y700026D03*
G01*
X3899982Y700026D03*
G01*
X4099981Y700026D03*
G01*
X3999981Y1300025D03*
G01*
X3799982Y1400025D03*
G01*
X3999981Y1200025D03*
G01*
X3899982Y1600024D03*
G01*
X3844991Y1850011D03*
G01*
X3569985Y1935025D03*
G01*
X3569985Y1635025D03*
G01*
X1999985Y700026D03*
G01*
X1899986Y700026D03*
G01*
X1799986Y900026D03*
G01*
X1799986Y1000025D03*
G01*
X1299987Y1400025D03*
G01*
X1599986Y1400025D03*
G01*
X899988Y1600024D03*
G01*
X999987Y2400023D03*
G01*
X1299987Y2700022D03*
G01*
X1399987Y2500022D03*
G01*
X1379997Y3095017D03*
G01*
X1379997Y3215007D03*
G01*
X1379997Y2955013D03*
G01*
X1589979Y3015007D03*
G01*
X2099985Y4300019D03*
G01*
X1599986Y4400019D03*
G01*
X1399987Y4500018D03*
G01*
X399989Y4400019D03*
G01*
X199989Y4400019D03*
G01*
X499988Y2800022D03*
G01*
X199989Y2800022D03*
G01*
X699988Y3300021D03*
G01*
X499988Y3500020D03*
G01*
X699988Y3700020D03*
G01*
X899988Y3400021D03*
G01*
X499988Y3100021D03*
G01*
X299989Y3300021D03*
G01*
X3799982Y4000019D03*
G01*
X3899982Y3900020D03*
G01*
X3989974Y4090012D03*
G01*
X4199981Y4000019D03*
G01*
X4099981Y3700020D03*
G01*
X2899984Y4000019D03*
D32*
X181602Y1767486D02*
G01*
X121602Y1767486D01*
X611591Y1767486D02*
G01*
X531591Y1767486D01*
X611591Y2632509D02*
G01*
X531591Y2632509D01*
X181602Y2632509D02*
G01*
X121602Y2632509D01*
X181602Y567489D02*
G01*
X121602Y567489D01*
X611591Y567489D02*
G01*
X531591Y567489D01*
X611591Y1432511D02*
G01*
X531591Y1432511D01*
X181602Y1432511D02*
G01*
X121602Y1432511D01*
M02*
